<svg xmlns="http://www.w3.org/2000/svg" width="96" height="26" viewBox="0 0 96 26">
    <path fill="#FFF" fill-rule="evenodd" d="M64.41 10.265c.37 0 .897.187.897.656 0 .408-.96 1.63-1.205 2.256 1.885-1.974 3.495-2.85 4.267-2.85.712 0 1.176.502 1.176 1.534 0 1.753-2.381 6.262-5.94 6.262-.432 0-1.05-.282-1.237-.47-.296.376-.995 2.189-1.506 4.056-.174.797-.312 1.547-.312 2.13 0 .408.122.783.122 1.222 0 .376-.37.939-.835.939-.462 0-.864-.313-.864-1.158 0-.91.164-2.018.408-3.163l.02-.083a49.812 49.812 0 0 1 1.421-4.569c.138-.384.283-.775.431-1.162-1.385 1.221-3.158 2.257-5.288 2.257-1.022 0-1.886-.814-1.886-2.19l-.006-.06c-1.451 1.177-3.206 2.157-4.821 2.157-.66 0-1.815-.5-1.884-1.902-1.336 1.103-3.005 1.995-4.983 1.995-1.02 0-1.886-.814-1.886-2.19.037-.37.093-.848.36-1.45 1.312-2.716 3.383-4.124 4.992-4.124.649 0 1.36.502 1.36 1.19 0 1.629-2.597 3.475-4.64 3.945-.403.094-.526.313-.526.533 0 .25.278.845.867.845 2.203 0 4.028-1.735 5.213-3.102 1.024-1.719 2.917-3.411 4.591-3.411.744 0 1.518.658 1.518 1.377 0 .972-.99 1.848-1.64 1.848-.279 0-.557-.187-.557-.626 0-.282.186-.5.37-.627.155-.094.31-.219.31-.375 0-.03-.061-.094-.155-.094-1.082 0-3.527 2.348-3.527 4.039 0 .406.25.782.62.782 2.01 0 4.517-2.16 5.598-3.6l.173-.216c1.188-1.677 2.754-2.508 4.004-2.508.65 0 1.36.502 1.36 1.19 0 1.629-2.598 3.475-4.64 3.945-.402.094-.524.313-.524.533 0 .25.277.845.864.845 2.6 0 4.673-2.413 5.785-3.789.083-.105.168-.21.253-.313.16-.358.296-.648.397-.844.433-.816.866-1.66 1.485-1.66zM42.475 0c2.91 0 4.669 1.1 4.669 3.528 0 3.01-4.62 6.95-8.126 7.421.006.016.01.036.014.053h-.077c-.243 4.031.307 8.31 4.288 10.452a.708.708 0 0 1 .3.943.688.688 0 0 1-.931.304c-1.983-1.03-3.778-3.003-4.541-5.65-.651-2.258-.678-4.65-.617-6.693a.788.788 0 0 1 .037-.218c.077-.54.855-.656 1.402-.656 2.494 0 6.62-3.464 6.62-5.794 0-1.619-1.152-2.363-3.454-2.363-5.724 0-11.226 4.531-11.226 7.347.08.857.08 1.805-.831 1.845-.576 0-.992-.453-.992-1.165C29.01 4.564 35.44 0 42.475 0zm33.63 3.47c.559 0 .855.258.775.72-.072.403-.318.623-.743 1.16-.334.42-.619.782-1.484 2.346a6.31 6.31 0 0 1 1.762-.28c1.145 0 1.702.313 1.702 1.031 0 .629-.495 1.348-.96 1.348-.37 0-.464-.188-.464-.376 0-.156.063-.282.063-.438 0-.126-.278-.25-.65-.25-.62 0-1.608.25-2.444.532-1.734 3.099-3.37 6.763-3.37 8.36 0 .281.215.595.215.781 0 .282-.28.722-.742.722-.557 0-.867-.44-.867-1.316 0-1.66 1.516-5.229 2.907-8.015-1.484 0-1.824-.22-1.824-.72 0-.501.31-.908.865-.908.31 0 .558.25.928.25.249 0 .558-.032.836-.125 1.081-1.909 1.577-2.943 2.135-3.696.525-.75.897-1.125 1.36-1.125zm9.005 6.231c.217 0 .651.219.651.657 0 .44-.126.72-.434 1.597-.186.502-.588 1.88-.648 2.066.988-1.127 3.216-3.213 4.578-3.213.68 0 1.205.44 1.205 1.191 0 .94-.186 1.848-.186 2.944 0 .97.062 1.815.649 1.815.712 0 2.415-1.88 3.467-3.318.37-.47.772-.972 1.112-.972.28 0 .496.157.496.47 0 .344-.155.564-.527 1.033-1.424 1.786-3.463 4.134-5.01 4.134-1.548 0-1.826-1.44-1.826-2.819 0-.688.185-1.628.185-2.379 0-.156-.093-.345-.276-.345-.868 0-3.807 2.962-4.518 3.932-.31.409-.588 1.785-1.114 1.785-.557 0-1.052-.218-1.052-.845 0-.523.538-2.135 1.071-3.7a7.472 7.472 0 0 1-1.26.132c-.712 1.846-2.104 4.257-4.301 4.257-.7 0-1.384-.411-1.677-1.22-.886.65-1.746 1.095-2.4 1.095-.65 0-1.36-.565-1.36-1.659 0-1.378 1.577-4.447 1.824-4.916.373-.626.68-1.127 1.115-1.127.431 0 .772.25.772.657 0 .438-.216.656-.401.94-.9 1.471-1.762 3.632-1.762 4.258 0 .219.153.5.431.5.36 0 .973-.392 1.642-.954.166-2.83 2.66-5.402 4.662-5.402 1.207 0 1.763.596 1.763 1.129 0 .218.092.938.404.938.412 0 .754-.063 1.068-.16.073-.22.141-.43.203-.622.433-1.41.649-1.879 1.454-1.879zM40.364 3.303c.511 0 .96.291.96.939 0 .291-.671 1.035-1.087 1.423-.865.778-2.303 2.526-3.295 4.273-1.759 3.068-2.41 5.417-2.64 7.07.043 1.56-1.868 1.441-1.722 0 .297-1.566 1.043-4.3 2.795-7.49 2.559-4.662 4.413-6.215 4.99-6.215zM2.688.041c.106 0 .21.04.29.12.08.083.12.19.12.296v14.325c0 .114.043.23.13.318a.44.44 0 0 0 .314.132h6.016V.49a.444.444 0 0 1 .444-.45h11.624a.409.409 0 0 1 .382.264l1.687 4.376.452 1.504c.02.049.059.049.076 0l.48-1.48 1.892-4.38a.463.463 0 0 1 .427-.283h2.476a.41.41 0 0 1 .35.197.42.42 0 0 1 .016.405l-3.72 7.444c-.217.454-.217.73 0 1.183l3.845 8.196a.423.423 0 0 1-.024.401.41.41 0 0 1-.347.192h-2.626a.457.457 0 0 1-.25-.075.457.457 0 0 1-.163-.206l-2.002-5.046-.455-1.553c-.026-.065-.074-.065-.1 0l-.504 1.53-2.209 5.102a.407.407 0 0 1-.377.248H.445A.445.445 0 0 1 0 17.611V.49A.443.443 0 0 1 .445.04zm77.314 11.884c-1.238.061-2.94 2.221-2.94 4.131 0 .47.342.815.65.815 1.145 0 2.66-2.787 2.66-3.57-.185-.03-.493-.407-.493-.75 0-.189.061-.44.123-.626zm-12.467.093c-.836 0-4.053 2.818-4.64 4.321.092.125.402.375.804.375 2.444 0 4.205-3.601 4.205-4.352 0-.25-.153-.344-.37-.344zm-48.355-9.2H13.1a.45.45 0 0 0-.444.45v3.97a.447.447 0 0 0 .444.448h4.627c.105 0 .21.042.29.122a.42.42 0 0 1 .12.295v1.759a.443.443 0 0 1-.443.45h-4.594a.45.45 0 0 0-.444.45v4.071a.447.447 0 0 0 .444.449h5.57a.69.69 0 0 0 .625-.388l2.833-5.625c.214-.457.214-.717 0-1.174L19.811 3.22a.69.69 0 0 0-.258-.292.677.677 0 0 0-.373-.11zm26.267 8.95c-.742 0-2.38 1.659-2.968 2.598 1.113-.22 3.216-1.753 3.216-2.285 0-.189-.061-.313-.248-.313zm13.58 0c-.741 0-2.383 1.659-2.97 2.598 1.115-.22 3.218-1.753 3.218-2.285 0-.189-.061-.313-.248-.313zm18.73-6.497c.269 0 .541.138.541.687 0 .595-.611.96-.904.96-.36 0-.498-.481-.498-.823 0-.364.362-.824.86-.824z"/>
</svg>
