<svg id="Layer_1" data-name="Layer 1" xmlns="http://www.w3.org/2000/svg" viewBox="0 0 116 112"><defs><style>.cls-1{fill:#5390cb;}.cls-2{fill:#fbfcfd;}.cls-3{fill:#f8fbfd;}.cls-4{fill:#fcfcfd;}.cls-5{fill:#d0e2f0;}.cls-6{fill:#7eb0de;}.cls-7{fill:#7dabd8;}.cls-8{fill:#82b0db;}.cls-9{fill:#cbdeef;}.cls-10{fill:#ddeffd;}.cls-11{fill:#b4dbfc;}.cls-12{fill:#5b94cc;}.cls-13{fill:#679ed2;}.cls-14{fill:#73a7d6;}.cls-15{fill:#5793cc;}.cls-16{fill:#84b3df;}.cls-17{fill:#85b4e0;}.cls-18{fill:#83b2de;}.cls-19{fill:#619bd2;}.cls-20{fill:#619ad1;}.cls-21{fill:#5f99d0;}.cls-22{fill:#629ad0;}.cls-23{fill:#619ad0;}.cls-24{fill:#fefefe;}.cls-25{fill:#4a8ac7;}.cls-26{fill:#dae6f3;}.cls-27{fill:#d9e6f3;}.cls-28{fill:#d6e4f2;}.cls-29{fill:#d5e3f2;}.cls-30{fill:#5692cb;}.cls-31{fill:#b5dcfd;}</style></defs><path class="cls-1" d="M115.47,30.3V44.2c-2.63,1.12-3.17-1-4-2.6-1.3-6.7-1.3-6.74-8.26-6.74q-45.39,0-90.76,0c-7,0-7,0-8.27,6.72-.81,1.68-1.38,3.74-4,2.62V29.31c1.39-1.15,3-.42,4.49-.47,34.8-.32,69.59-.13,104.38-.12C111.21,29.12,113.63,28.56,115.47,30.3Z"/><path class="cls-2" d="M115.47,47.18c0,19.52-.23,39,.16,58.56.1,5.11-1,7.08-6.12,6a6.76,6.76,0,0,1-1-1.63c-1-12.22-.32-24.45-.42-36.68,0-7.09-.53-14.21.37-21.29C110.19,49.62,110.9,45.64,115.47,47.18Z"/><path class="cls-2" d="M6.12,111.7c-5.09,1.12-6.21-.85-6.11-6,.38-19.52.15-39,.15-58.56,4.56-1.55,5.24,2.42,7,4.88.94,6.54.44,13.11.39,19.65-.1,12.78.61,25.58-.41,38.36A6.5,6.5,0,0,1,6.12,111.7Z"/><path class="cls-3" d="M.16,27.33V.53H11.09A2.44,2.44,0,0,1,11.71,2C9.9,6.19,11,10.82,9.87,15.12a27.67,27.67,0,0,0-3.42,6.53c-1.33,1-1.87,2.54-2.57,4S2.21,28.57.16,27.33Z"/><path class="cls-4" d="M104.54.53c3.64,0,8.71-1.42,10.53.4s.4,6.88.4,10.52v12.9c-2.13,1.43-2.68-1-4-1.62a8.74,8.74,0,0,1-2.58-2.34c-.68-2.06-2.23-3.63-3.23-5.51-1.09-4,.21-8.28-1.77-12.12A2.69,2.69,0,0,1,104.54.53Z"/><path class="cls-5" d="M6.12,111.7l.07-1.1c1.81-1.58,4-1.29,6.16-1.29q45.46,0,90.93,0c2.13,0,4.36-.29,6.16,1.3l.07,1.09Z"/><path class="cls-5" d="M104.54.53v2c-1.71.86-3.54.24-5.32.42q-41.7,0-83.4,0c-1.6-.07-3.24,0-4.55-1.15L11.09.53Z"/><path class="cls-6" d="M6,51.29c-2.75-.23-2.73-4.37-5.82-4.11v-3c1.57.18,2-1.33,2.93-2,2.72,2.19,7.07,3.09,6.37,8A3.85,3.85,0,0,1,6,51.29Z"/><path class="cls-6" d="M115.47,47.18c-3.08-.24-3.07,3.89-5.83,4.11a3.91,3.91,0,0,1-3.46-1.1c-.73-4.92,3.63-5.82,6.37-8,1,.7,1.36,2.2,2.92,2Z"/><path class="cls-7" d="M109.57,20.27l2.69,1.26c1.12,1.9,1,4.5,3.21,5.8v3l-6.09-.11c-.78-.84,2.3-1,.27-2.44-1.77-1.3-1.88-4-2.38-6.2A2.34,2.34,0,0,1,109.57,20.27Z"/><path class="cls-8" d="M.16,27.33A2.93,2.93,0,0,0,3,24.11c0-2,.89-3,2.93-2.79a1.77,1.77,0,0,1,2-.23c.55,4.06-1.2,7-4.61,9L.16,29.31Z"/><path class="cls-9" d="M115.47,27.33c-4.63,0-2.38-3.73-3.21-5.8,1.57.36,1,3.17,3.21,2.82Z"/><path class="cls-10" d="M3.38,30.08l4.89-8.64c-.58-4.07,1.77-5.7,5.31-6.29a18.48,18.48,0,0,1,3-.13q41.25,0,82.5,0c6.49,0,7.86,1.16,8.32,6.39,3.16,1.35,1,5.91,4.31,7.17l-2.31,1.6Z"/><path class="cls-11" d="M112.55,42.18c-.75,3.62-5.76,4-6.13,7.88-1.23,1.44-2.79,1.28-4.4.88a29.21,29.21,0,0,1-7-6.56c-1-2.19-1.34-6-4.72-1.73-1.63,3.31-4.31,5.71-7,8.15a6.46,6.46,0,0,1-5.19.07c-3-2.84-5.9-5.8-7.42-9.76-1.88-1-2.67.28-3.4,1.65-1.56,3.31-4.26,5.63-6.87,8.05a6.53,6.53,0,0,1-5.2,0c-2.7-2.38-5.4-4.75-7-8.1-.74-1.41-1.56-2.63-3.43-1.64-1.5,4-4.39,6.83-7.29,9.7a6.53,6.53,0,0,1-5.2,0c-2.73-2.39-5.41-4.83-7-8.17-3.29-4.39-3.75-.61-4.72,1.64a29.74,29.74,0,0,1-7,6.6c-1.62.43-3.19.59-4.44-.87-.38-3.9-5.37-4.24-6.12-7.87.05-8.93.05-8.93,8.85-8.93h91.75C112.48,33.25,112.48,33.24,112.55,42.18Z"/><path class="cls-12" d="M9.21,50.05l4.87.09c2.29,1.83.68,3-.72,4.13-3,1.46-2.68,4.28-2.69,6.88-.09,15.19.08,30.37-.08,45.54.69,2.32,2.67,1.59,4.16,1.59q43.17,0,86.32,0c1.5,0,3.49.71,4-1.73-.17-15.16,0-30.31-.11-45.45,0-2.61.3-5.4-2.74-6.83-1.4-1.19-3-2.36-.67-4.15l4.86-.06c1.18.15,2.47,0,3.22,1.23q-.09,29.66-.2,59.32H6.19L6,51.29C6.74,50.05,8,50.2,9.21,50.05Z"/><path class="cls-13" d="M11.27,1.76l3.78-.09c1.41,1.24,3.14.83,4.75.83q38,0,76,0c1.62,0,3.34.41,4.76-.82,1.48-.49,2.69.33,4,.82,3.71,3.8,1.66,8.55,2.13,12.89-2.16,1.31-4.52.45-6.76.46-29.54.13-59.08-.07-88.62.15A3.32,3.32,0,0,1,9,15.39C9.13,10.74,7.83,5.86,11.27,1.76Z"/><path class="cls-14" d="M9,15.39h97.7c2.4.78,3.21,2.5,2.9,4.88a2.35,2.35,0,0,1-2.19,1.15c-1.16-4.21-4-5.2-8.17-5.18q-41.4.23-82.78,0c-4.16,0-7,1-8.16,5.2L6,21.32C5.8,18.76,5.92,16.33,9,15.39Z"/><path class="cls-15" d="M100.58,1.68c.13.63,1.77,1,.57,1.76-.57.39-1.61.08-2.43.08-27.27,0-54.54,0-81.81-.11-.42,0-4.09,1.74-1.86-1.74Z"/><path class="cls-16" d="M60.79,50.08c.52-3.72,4.71-4.72,5.88-7.95,4,3.13,3.55-1.56,5-2.86.12,4.64,5,6.66,6,10.79a2.56,2.56,0,0,1,.37,3c-3.13,2.11-4.65-.59-6.55-2.16-1.57-3-3.18-2.37-4.82,0-1.94,1.19-3.17,4.4-6.3,2.19A2.56,2.56,0,0,1,60.79,50.08Z"/><path class="cls-17" d="M37.93,50.06c.07-.64-.1-1.62.25-1.86,3.2-2.18,4.72-5.38,5.74-8.93,1.49,1.3,1,6,5,2.85,1.15,3.24,5.34,4.24,5.87,7.94a2.55,2.55,0,0,1,.4,2.94c-3.11,2.29-4.38-.89-6.31-2.12-1.58-2.28-3.18-3.08-4.81,0-1.9,1.57-3.43,4.27-6.55,2.21A2.55,2.55,0,0,1,37.93,50.06Z"/><path class="cls-18" d="M101.56,50.12a2.6,2.6,0,0,0,0,3c-3.09,2.21-4.68,0-6.33-2.12-1.73-3.42-3.59-2.9-5.51-.16-1.91,1.44-3.29,4.38-6.44,2.25a2.52,2.52,0,0,1,.36-3c.52-3.71,4.79-4.68,5.87-8,1.75,1.56,3.92,1.87,6.13,2C97.8,46,100.47,47.27,101.56,50.12Z"/><path class="cls-18" d="M14.06,53.08a2.56,2.56,0,0,0,0-2.94c1.08-2.86,3.74-4.18,5.9-6,2.21-.17,4.38-.48,6.13-2,1.09,3.29,5.35,4.26,5.87,8a2.54,2.54,0,0,1,.37,3c-3.13,2.15-4.53-.75-6.43-2.19-2-3-3.87-3.13-5.7.14C18.6,53,17.1,55.34,14.06,53.08Z"/><path class="cls-19" d="M95.65,44.16c-2.67,1.19-5.46,2.73-6.13-2-.16-2.83,1.59-3.21,3.81-2.93C96.73,39.6,95.19,42.35,95.65,44.16Z"/><path class="cls-20" d="M26.11,42.11c-.67,4.79-3.46,3.22-6.13,2,.46-1.8-1.07-4.55,2.33-5C24.52,38.9,26.26,39.29,26.11,42.11Z"/><path class="cls-21" d="M71.71,39.27c0,.82,0,1.63,0,2.44,0,1.65.17,3.33-2.27,3.47s-2.71-1.26-2.78-3C66.62,38.12,69.48,39.25,71.71,39.27Z"/><path class="cls-21" d="M49,42.12c-.08,1.79-.46,3.2-2.78,3.07s-2.28-1.83-2.29-3.48c0-.81,0-1.62,0-2.44C46.16,39.24,49,38.14,49,42.12Z"/><path class="cls-22" d="M32,53.08c0-1,0-2,0-3l5.95,0c0,1,0,2,0,3A4.07,4.07,0,0,1,32,53.08Z"/><path class="cls-23" d="M54.85,53.07c0-1,0-2,0-3l5.95,0c0,1,0,2,0,3A4.07,4.07,0,0,1,54.85,53.07Z"/><path class="cls-23" d="M83.65,50.08v3a4.09,4.09,0,0,1-5.93,0c0-1,0-2,0-3Z"/><path class="cls-24" d="M77.72,53.07h5.93c3,1.11,3.37-3.17,6-2.93,2-1.49,3.92-1.59,5.85.08,2.15.72,3,4.11,6.11,2.86,4-.41,5.14,1.35,5.07,5.37-.28,16.4-.17,32.81-.21,49.22-5.65,1.84-11.33,1.33-17,.27-1.56-2-1.15-4.41-1.16-6.69,0-11.57,0-23.14,0-34.72,0-5.83-.18-6-5.72-6-16.56,0-33.11.08-49.67-.08-4.1,0-5.53,1.37-5.47,5.47.18,11.73.09,23.47,0,35.21,0,2.28.39,4.66-1.07,6.73-5.72,1.29-11.43,1.59-17.12-.16,0-16.41.08-32.82-.21-49.22-.07-4,1-5.77,5.07-5.38,3.17,1.48,3.73-2.59,6.08-2.86A4.2,4.2,0,0,1,26,50.16c2.61-.27,3,4.05,6,2.92h5.92c2.85.72,3.56-2.66,5.84-3a3.82,3.82,0,0,1,5.09.13c2.83-.75,3,4,6,2.89h5.93c3,1.13,3.18-3.61,6-2.91a3.77,3.77,0,0,1,5.07-.08C74.14,50.41,74.88,53.79,77.72,53.07Z"/><path class="cls-25" d="M9.2,107.68l16.7,0c1.14-1.48.58-3.2.59-4.79.05-13,.11-26.08,0-39.12,0-3.1.62-4.32,4.08-4.28q27.27.25,54.55,0c3.45,0,4.12,1.17,4.08,4.28-.14,13-.08,26.08,0,39.12,0,1.59-.54,3.31.59,4.78l16.7,0c.79.32,2.46.5,1,1.65-.86.67-2.53.37-3.84.37H12.05c-1.31,0-3,.3-3.84-.37C6.74,108.19,8.41,108,9.2,107.68Z"/><path class="cls-11" d="M57.32,12.51c-13.55,0-27.11,0-40.66,0-2.71,0-4.73,0-4.73-3.79s1.69-4.28,4.84-4.27q40.91.12,81.81,0c3.07,0,5,.55,5.09,4.26.17,4.35-2.57,3.75-5.2,3.75Z"/><path class="cls-26" d="M71.84,50.08l-5.07.08c0-1.53.08-2.89,2.22-3S71.91,48.11,71.84,50.08Z"/><path class="cls-27" d="M48.84,50.18l-5.09-.13c0-2,.73-2.95,2.88-2.85S48.82,48.66,48.84,50.18Z"/><path class="cls-28" d="M95.46,50.23l-5.85-.08c-.2-2.38,1-3,3.22-3S95.63,48.32,95.46,50.23Z"/><path class="cls-29" d="M26,50.16l-5.86.06c-.15-1.9.4-3,2.64-3.06S26.22,47.77,26,50.16Z"/><path class="cls-30" d="M89.73,107.7c-1.81-1.37-1.07-3.34-1.08-5.06-.06-12.55-.13-25.11,0-37.66,0-3.44-.57-5-4.56-5q-26.29.3-52.61,0c-4,0-4.61,1.54-4.56,5,.16,12.55.09,25.11,0,37.66,0,1.72.73,3.69-1.08,5.07C26,93,26.12,78.28,26,63.57c0-3.78,1.14-4.73,4.79-4.69q27.08.25,54.14,0c3.65,0,4.85.91,4.8,4.69C89.51,78.28,89.69,93,89.73,107.7Z"/><path class="cls-31" d="M86.61,62.22c0,13.51-.1,27,.09,40.54,0,3.72-.76,5.38-4.9,5.11a141.21,141.21,0,0,0-16.33,0c-3.63.18-4.88-.89-4.81-4.67.23-13.68.13-27.36.15-41A113,113,0,0,1,86.61,62.22Z"/><path class="cls-31" d="M54.82,62.14c0,13.68-.08,27.36.16,41,.06,3.78-1.19,4.85-4.82,4.67a141.21,141.21,0,0,0-16.33,0c-4.13.27-4.95-1.4-4.9-5.12.19-13.51.08-27,.09-40.54A114.15,114.15,0,0,1,54.82,62.14Z"/><path class="cls-30" d="M54.82,62.14,29,62.21c1.33-1.85,3.32-1.2,5-1.09C40.94,61.6,48,59.78,54.82,62.14Z"/><path class="cls-30" d="M86.61,62.22l-25.8-.08c5.66-2.42,11.58-.67,17.37-1C80.94,61,84.06,59.89,86.61,62.22Z"/></svg>