<svg id="Layer_1" data-name="Layer 1" xmlns="http://www.w3.org/2000/svg" viewBox="0 0 106 126"><defs><style>.cls-1{fill:#fefefe;}.cls-2{fill:#e8f0f7;}.cls-3{fill:#b1cce7;}.cls-4{fill:#d8e5f2;}.cls-5{fill:#87b2db;}.cls-6{fill:#7fafdc;}.cls-7{fill:#d3e2f1;}.cls-8{fill:#a7c5e3;}.cls-9{fill:#f5f9fc;}.cls-10{fill:#649cd3;}.cls-11{fill:#8bb8e2;}.cls-12{fill:#bbd3e9;}.cls-13{fill:#78a8d6;}.cls-14{fill:#c4d8ec;}.cls-15{fill:#e5eef7;}.cls-16{fill:#83b4e2;}.cls-17{fill:#b9d2e9;}.cls-18{fill:#bcd3ea;}.cls-19{fill:#d3e3f2;}.cls-20{fill:#a5c6e5;}.cls-21{fill:#caddef;}.cls-22{fill:#77a6d5;}.cls-23{fill:#a2c1e2;}.cls-24{fill:#bed5eb;}.cls-25{fill:#76a6d5;}.cls-26{fill:#8fbae3;}.cls-27{fill:#e2ecf6;}.cls-28{fill:#bcd4eb;}.cls-29{fill:#6da1d4;}.cls-30{fill:#b3cee8;}.cls-31{fill:#86b3e0;}.cls-32{fill:#d0e0f1;}.cls-33{fill:#cfe0f0;}.cls-34{fill:#cee0ef;}.cls-35{fill:#bfd5eb;}.cls-36{fill:#d2e1f1;}.cls-37{fill:#c4d8ed;}.cls-38{fill:#85b4e2;}.cls-39{fill:#4889c7;}.cls-40{fill:#5c95ce;}.cls-41{fill:#5b95cd;}.cls-42{fill:#84b3e0;}.cls-43{fill:#b5dcfd;}.cls-44{fill:#abd3f8;}.cls-45{fill:#add4f8;}.cls-46{fill:#88b9e5;}.cls-47{fill:#6198cf;}.cls-48{fill:#5693cc;}.cls-49{fill:#629ad1;}.cls-50{fill:#71a4d4;}.cls-51{fill:#6199d0;}.cls-52{fill:#699ed3;}.cls-53{fill:#71a4d5;}.cls-54{fill:#91b8df;}.cls-55{fill:#88b7e5;}.cls-56{fill:#90b7de;}.cls-57{fill:#71a3d4;}.cls-58{fill:#a7c6e3;}.cls-59{fill:#679dd1;}.cls-60{fill:#639bd0;}.cls-61{fill:#87b4df;}.cls-62{fill:#a1c2e3;}.cls-63{fill:#70a5d8;}.cls-64{fill:#99c0e4;}.cls-65{fill:#9fc2e3;}.cls-66{fill:#c9dcee;}.cls-67{fill:#4e8cca;}.cls-68{fill:#8cbbe7;}.cls-69{fill:#7cafde;}.cls-70{fill:#5490c9;}.cls-71{fill:#a1ccf2;}.cls-72{fill:#79a7d7;}.cls-73{fill:#a8d1f6;}.cls-74{fill:#5893cc;}.cls-75{fill:#96bbdf;}.cls-76{fill:#80acd7;}.cls-77{fill:#7eaedb;}.cls-78{fill:#6aa0d3;}.cls-79{fill:#6ca4d9;}.cls-80{fill:#619ad1;}.cls-81{fill:#a9c6e4;}.cls-82{fill:#6199ce;}.cls-83{fill:#80b0de;}.cls-84{fill:#7eacd8;}.cls-85{fill:#96c4ec;}.cls-86{fill:#71a5d6;}.cls-87{fill:#94bce4;}.cls-88{fill:#5692cc;}.cls-89{fill:#6fa3d5;}.cls-90{fill:#73a6d7;}.cls-91{fill:#659dd3;}.cls-92{fill:#7eafdc;}.cls-93{fill:#528fcb;}.cls-94{fill:#dae6f3;}.cls-95{fill:#639cd3;}.cls-96{fill:#6da1d3;}.cls-97{fill:#7eb1e1;}.cls-98{fill:#8ab7e1;}.cls-99{fill:#649cd1;}.cls-100{fill:#93c1ec;}.cls-101{fill:#77a9da;}.cls-102{fill:#5e98d0;}.cls-103{fill:#aad3f8;}.cls-104{fill:#96c3ec;}.cls-105{fill:#75abdc;}.cls-106{fill:#659ed5;}.cls-107{fill:#8bbbe8;}.cls-108{fill:#6ba1d3;}.cls-109{fill:#91b9df;}.cls-110{fill:#81b4e3;}.cls-111{fill:#639ed4;}.cls-112{fill:#649fd5;}.cls-113{fill:#96c3ed;}.cls-114{fill:#a2cdf4;}.cls-115{fill:#77a9d8;}.cls-116{fill:#90c0ea;}.cls-117{fill:#9dc9f1;}.cls-118{fill:#89b9e6;}.cls-119{fill:#98c4ee;}.cls-120{fill:#86b8e3;}.cls-121{fill:#9cc8f1;}.cls-122{fill:#73a8db;}.cls-123{fill:#a0c1e2;}.cls-124{fill:#9fc1e2;}.cls-125{fill:#bbd4ea;}.cls-126{fill:#b8d2ea;}.cls-127{fill:#7dabd7;}.cls-128{fill:#7caad7;}.cls-129{fill:#cddfef;}.cls-130{fill:#c7dbed;}.cls-131{fill:#ccdeef;}.cls-132{fill:#d5e4f2;}.cls-133{fill:#a8c8e3;}.cls-134{fill:#7dacd8;}.cls-135{fill:#6ba3d6;}.cls-136{fill:#a1ccf3;}.cls-137{fill:#9fcaf1;}.cls-138{fill:#5592cd;}.cls-139{fill:#659ed1;}.cls-140{fill:#6ba1d5;}.cls-141{fill:#99c6ef;}.cls-142{fill:#a6cff5;}.cls-143{fill:#71a8db;}.cls-144{fill:#88b9e6;}.cls-145{fill:#93b8de;}.cls-146{fill:#78abdc;}.cls-147{fill:#e9f1f8;}.cls-148{fill:#7fb2e3;}.cls-149{fill:#add5fa;}.cls-150{fill:#9fcaf2;}.cls-151{fill:#8dbce9;}.cls-152{fill:#cddef0;}.cls-153{fill:#84b6e4;}.cls-154{fill:#94c2ec;}.cls-155{fill:#92b9de;}.cls-156{fill:#a2cdf2;}.cls-157{fill:#a0cbf2;}.cls-158{fill:#8ab6e1;}.cls-159{fill:#97c5ee;}.cls-160{fill:#a8d1f7;}.cls-161{fill:#5c98d1;}.cls-162{fill:#8ebeea;}.cls-163{fill:#659dd2;}.cls-164{fill:#acc9e6;}.cls-165{fill:#8cbbe9;}.cls-166{fill:#70a7db;}.cls-167{fill:#f7f9fc;}.cls-168{fill:#a4cff4;}.cls-169{fill:#89b8e5;}.cls-170{fill:#5490cc;}.cls-171{fill:#74a6d7;}.cls-172{fill:#89b6e1;}.cls-173{fill:#649dd2;}.cls-174{fill:#649bd1;}.cls-175{fill:#7aaad8;}.cls-176{fill:#6299ce;}.cls-177{fill:#e5eef6;}.cls-178{fill:#79a9d7;}.cls-179{fill:#5b97d0;}.cls-180{fill:#68a0d8;}.cls-181{fill:#659fd5;}.cls-182{fill:#5290cc;}.cls-183{fill:#5492cc;}</style></defs><path class="cls-1" d="M.08,111.91C.08,75.79.13,39.67,0,3.55,0,.6.59,0,3.54,0q49.35.2,98.72,0c2.94,0,3.55.6,3.54,3.55-.13,39.58-.07,79.16-.16,118.75,0,1.2,1.59,3.93-1.9,3.46a7.28,7.28,0,0,1-.89-1.32c-.73-2.56-.3-5.18-.43-7.77.5-2.6-1.13-4.48-2.27-6.52a7.4,7.4,0,0,1-.41-1.39,30,30,0,0,1-.25-3.55c-1.56-6.53-11-15.06-17.68-15.85-2.53,0-4.5-1.73-6.85-2.31a14.85,14.85,0,0,0-2.39-.57c-4.5-.9-5.77-3.85-3.4-7.84,1.26-2.11,3.51-3.52,4.2-6a4.16,4.16,0,0,1,.95-1.81,6.43,6.43,0,0,0,2.83-4.75,11.88,11.88,0,0,1,.32-1.34,7.85,7.85,0,0,1,3.45-5.31c2.75-2,3.34-5.12,3.07-8-.79-8.18.19-16.33,0-24.5-.14-5.13-2.32-8.73-5.86-11.91a4,4,0,0,0-3.42-1.79c-1.15-.05-2.3,0-3.45-.16-4.29-1-6.08-5-9.1-7.51-.84-1.29-1.76-2.48-3.57-2.21l-2.91.05c-3.71,0-7.42,0-11.12,0-4-.82-6.83,1.57-9.88,3.42C33.24,8,32.16,9.67,30.17,10c-3,.45-4.28,2.71-5.32,5.2-.13.44-.3.87-.47,1.3-.83,2.26-2.49,4.14-3,6.57-.49,5.83-.11,11.66-.21,17.49,0,4.68-.05,9.36,0,14a6.3,6.3,0,0,0,3,5.19c2,1.12,2.62,3.1,3.13,5.13a11.44,11.44,0,0,1,.36,1.27c.14,1.86,1.74,2.84,2.58,4.28a9,9,0,0,1,.6,2.54c0,1.91,1.65,2.44,2.79,3.41a7.6,7.6,0,0,1,1.34,1.38c3.59,5.12,2.14,7.88-4.75,9.09-2.18.27-4,1.53-6,2.24-2.89,0-5,1.55-7,3.42-2,1.38-3.54,3.25-5.68,4.41-2.55,2.39-5.05,4.81-6.46,8.11-.14.42-.3.83-.47,1.24A19.77,19.77,0,0,1,1.29,112,1,1,0,0,1,.08,111.91Z"/><path class="cls-2" d="M103.69,124.68l0,1.08q-49.86,0-99.73-.06c-1.27,0-3,1.11-3.93-.93a6.3,6.3,0,0,1,1.68-1,17.41,17.41,0,0,1,4.88-.37q45.22,0,90.46,0C99.36,123.39,101.74,123,103.69,124.68Z"/><path class="cls-3" d="M.08,111.91c.33,0,.66,0,1,0a2.28,2.28,0,0,1,2.9-.2,2.62,2.62,0,0,1,.61,2.87,3.19,3.19,0,0,1-3.13,1.64c-1.12-.37-.6-1.72-1.36-2.31Z"/><path class="cls-4" d="M.08,113.89c.87.41,1,1.22,1.1,2a8,8,0,0,1,.07,8.73l-1.17.11Z"/><path class="cls-5" d="M1.25,124.66c0-2.91-.05-5.82-.07-8.73L4,114.81a2.56,2.56,0,0,1,.57,2.77c-1.83,4.87-1.79,4.9,5.08,4.82q43.62-.08,87.18,0c5.16-.18,5.16-.18,3.32-4.7a3.12,3.12,0,0,1,.37-2.87c1.5-1,2.43-.22,3.2,1.05,0,2.94,0,5.87,0,8.81Z"/><path class="cls-6" d="M62.31,5c4,1,4.7,6.18,8.85,7a.94.94,0,0,1,0,1.24c-2,1.17-4.06.16-6.09.29-2.85-.19-4.06-3.61-7-3.57a6.35,6.35,0,0,1-1.32-.55c-3-3-6.89-1.76-10.44-2.12-1.29-.25-2.68-.36-3-2a2.45,2.45,0,0,1,2-1.09c1.21-.08,2.42-.05,3.63-.06h2l-.23,0H48.5c-.94,0-1.87,0-2.8,0a3.59,3.59,0,0,1-2.06-.59.92.92,0,0,1-.3-.85c.06-.3.13-.44.21-.44l12.79,0c1.49.54,2.94,1.16,4.38,1.79A4.66,4.66,0,0,1,62.31,5Z"/><path class="cls-7" d="M78.07,13.94c6,3.68,8.8,10.63,7.51,18.59-.86,5.33-.52,10.67-.21,16.06.24,4.33.87,9.26-4.18,11.93-.17-.15-.34-.3-.52-.44a2.4,2.4,0,0,1,0-2c1.13-1.63,2.34-3.22,2-5.4,0-1.68,0-3.34-.15-5-1-3.06-.33-6.1,0-9.14V36.2c0-3.38,0-6.77,0-10.15.38-2-.74-3.46-2-4.82-.82-2.12-2.52-3.79-3.08-6.05A2,2,0,0,1,78.07,13.94Z"/><path class="cls-8" d="M29.64,70.41c-1.71-.85-3.38-1.73-2.72-4.15,1.61-1.94,1.32-4.28,1.43-6.56.27-5.87-.61-11.77.54-17.62A3.37,3.37,0,0,1,32.36,40a2.23,2.23,0,0,1,1.37.84,50.06,50.06,0,0,0-.54,24.53c-.2,1.53-1.82,2.12-2.28,3.48A3.24,3.24,0,0,1,29.64,70.41Z"/><path class="cls-9" d="M82,88.19c3.33-.86,5.77,1.27,7.75,3.12,4.31,4,10.15,7,11,13.88a1.83,1.83,0,0,1-2,.08c-1.59-2.35-2.85-5-5.23-6.72-1.77-1.83-3.44-3.79-5.88-4.8a7.5,7.5,0,0,1-2.85-1.28c-.92-1.11-2-2.09-3-3.14A1,1,0,0,1,82,88.19Z"/><path class="cls-10" d="M29.67,41.48c0,6.67,0,13.34,0,20,0,2.06.43,4.47-2.71,4.78a2.41,2.41,0,0,1-.25-.84,2.14,2.14,0,0,1-.27-1.9,6,6,0,0,0,1-3.08c.1-2.78-.27-5.59.11-8.3.52-3.76-1.08-4.68-4.36-4.08-1.31-1-.53-2.15-.14-3.25a30.53,30.53,0,0,1,4.46-4.49,2.39,2.39,0,0,1,2.07,0,.75.75,0,0,1,.35.76Q29.79,41.48,29.67,41.48Z"/><path class="cls-11" d="M98.84,104.94l1.83.25c0,1.25,0,2.5,0,3.75-1.4.63-1.6,1.94-1.83,3.23A3.51,3.51,0,0,1,98,114a1.62,1.62,0,0,1-1.31,0c-1.32-1.78-1-4.42-3.1-5.79a3.47,3.47,0,0,1-.53-2,4.11,4.11,0,0,1,.41-1.33,7.55,7.55,0,0,1,3.38-2.26C98.5,102.55,98,104.33,98.84,104.94Z"/><path class="cls-12" d="M74.25,72.25c1.68,2.13-.6,2.85-1.51,3.9-5.6,6.45-5.33,7.6,2.52,9.89l-.58.64a6.62,6.62,0,0,1-4.17.67c-5.59-1.86-3.38-6.25-3.21-10a5.31,5.31,0,0,1,2.61-2.55A19.41,19.41,0,0,0,71.85,73,3.37,3.37,0,0,1,74.25,72.25Z"/><path class="cls-13" d="M29.65,9c2.11.08,2.76-1.82,4-2.94.88-.72,1.86-.49,2.84-.29-1,1.48.09,2.51.79,3.63-.3,2.78-2.38,3.32-4.6,3.69-1.45,0-2.78-.26-3.51-1.74A2.52,2.52,0,0,1,29.65,9Z"/><path class="cls-14" d="M29.48,86a8,8,0,0,1,1.78-.73c5.1-.78,5.75-2.49,2.58-6.86-.48-.66-.87-1.39-1.31-2.08l.56-.56a3.52,3.52,0,0,1,1.56-.38A3,3,0,0,1,37.33,77c1.43,7,.88,8.62-3.42,10.35A8,8,0,0,1,30.68,87,2.39,2.39,0,0,1,29.48,86Z"/><path class="cls-15" d="M4.17,105.17c.76-4.14,4.11-6.37,6.77-9.1a2.59,2.59,0,0,1,.71,2.61,9.44,9.44,0,0,1-2.06,3.63c-.29.36-.61.69-.92,1C7.46,104.65,6.49,106.6,4.17,105.17Z"/><path class="cls-16" d="M71.17,12.89c0-.31,0-.62,0-.93l3.84.1a3.66,3.66,0,0,1,1.25,2.77,5,5,0,0,1-.75,3,2.27,2.27,0,0,1-1.34.65c-2.26-.67-4.77-.85-6.2-3.16C68.27,13.51,70.8,14.63,71.17,12.89Z"/><path class="cls-17" d="M19.84,40.65c.31-6.3-1.15-12.68.88-18.91l.58.52a6.35,6.35,0,0,1,.77,3c.08,1.8,0,3.6.06,5.4,0,1.27,0,2.55,0,3.83a29.76,29.76,0,0,1-.26,4.62,3.86,3.86,0,0,1-.65,1.41A1,1,0,0,1,19.84,40.65Z"/><path class="cls-18" d="M10.86,98.93c0-1,.05-1.91.08-2.86,2.33-.87,3.38-3.59,5.94-4.15l.46.5c.73,1.85-.31,3-1.6,4l-1.48,1.3C13.23,98.44,12.43,99.82,10.86,98.93Z"/><path class="cls-19" d="M29.65,9v1.95a12.37,12.37,0,0,1-3.14,4.52A2.45,2.45,0,0,1,23.83,15C24.79,12,26.05,9.36,29.65,9Z"/><path class="cls-20" d="M36.61,6.09l-3-.07c3.19-1.57,5.69-4.91,9.9-3.89,0,.29-.06.59-.07.89a3,3,0,0,1-.81,1.07,10.3,10.3,0,0,1-4.81,2.38A1.62,1.62,0,0,1,36.61,6.09Z"/><path class="cls-21" d="M19.84,40.65l.91,0c2,1.88,1.2,4.32,1.34,6.58.42,1.51,0,3,0,4.54s0,3.14-.9,4.52a.91.91,0,0,1-1.36.15Z"/><path class="cls-22" d="M29.64,70.41l.1-2c1.42-2.06,2.56-1.23,3.64.35.52,2,.73,3.82-1.37,5a2.17,2.17,0,0,1-2.23-.63Z"/><path class="cls-23" d="M78.15,65.48a3.5,3.5,0,0,1-.07.91c-.84.94-1.18,2.54-3,2.25a5.51,5.51,0,0,1-2.3-2.38,2.8,2.8,0,0,1,1.92-3.15c1.18.49,2.44,1.19,2.63-1a1.18,1.18,0,0,1,1.11.61A4.18,4.18,0,0,1,78.15,65.48Z"/><path class="cls-24" d="M82,88.19l.12.9a3.21,3.21,0,0,1-1.44,1c-2.8.11-6.4,1.45-5.73-3.75l.34-.32C77.84,85.65,79.33,88.69,82,88.19Z"/><path class="cls-25" d="M74.25,72.25a2.37,2.37,0,0,1-2.1,1C71.06,72.36,71,71.09,71,69.8a5.34,5.34,0,0,1,.25-1.48,2.86,2.86,0,0,1,.83-1.22c2.61-.8,2.47,1.62,3.34,2.87A1.26,1.26,0,0,1,75,71.22Z"/><path class="cls-26" d="M4.17,105.17c2.44.41,2.62-2,3.82-3.11a3.43,3.43,0,0,1,.73,3.51,7,7,0,0,1-2.3,3c-.86.51-1.72,1.11-2.72.27-.13-1-.4-2,.33-2.82C4.09,105.71,4.13,105.44,4.17,105.17Z"/><path class="cls-27" d="M16.88,91.92c1.64-2.47,3.64-4.26,6.88-3.78a.89.89,0,0,1,.32.78c0,.28-.09.43-.16.43-1.46,1.07-2.72,2.4-4.28,3.37A2.79,2.79,0,0,1,17,92.38Z"/><path class="cls-15" d="M4,106l.15,3a2,2,0,0,1,.23,2.45l-.55.38-2.8.09C.91,109.34,3,107.91,4,106Z"/><path class="cls-28" d="M20.72,21.74c-.08-2.5,2.21-3.82,3-5.91A3.12,3.12,0,0,1,24.88,18,5.33,5.33,0,0,1,24,22a2.42,2.42,0,0,1-3.1,0Z"/><path class="cls-29" d="M97.82,111.9c.29-1.63-1.08-4.89,2.87-3a3,3,0,0,1,.19.92,2.65,2.65,0,0,1,.26,2.06C100,113.48,98.92,113.59,97.82,111.9Z"/><path class="cls-30" d="M100.65,111.88c.08-.68.16-1.35.23-2,1.6,1.7,3.52,3.24,2.85,6l-2.92-1.06C99.86,113.88,100.14,112.88,100.65,111.88Z"/><path class="cls-31" d="M23.94,17.94c-.09-.7-.17-1.4-.25-2.11a6.13,6.13,0,0,1,.14-.84l2.69-.13a2.7,2.7,0,0,1,2.76-.48,1.53,1.53,0,0,1,.79,1.1,3.34,3.34,0,0,1-2.59,2.74c-.73.09-1.38-.41-2.11-.3A1.78,1.78,0,0,1,23.94,17.94Z"/><path class="cls-32" d="M23.74,89c0-.28,0-.57,0-.85,2-.42,3.35-2.67,5.72-2.12l.38.28a1.57,1.57,0,0,1-.14,1.47C28,89.42,26.22,91,23.74,89Z"/><path class="cls-33" d="M19.86,56.48,21,56.4c1.35-.89,2.27-.13,3.14.83a2.92,2.92,0,0,1,.06,2.82l-.55.47C21.51,60,21,58,19.86,56.48Z"/><path class="cls-34" d="M75.13,14.82c0-.92-.09-1.84-.13-2.76,1.5-.15,2.93-.19,3.07,1.88L78,15A2,2,0,0,1,75.13,14.82Z"/><path class="cls-35" d="M75,71.22v-.84a1.49,1.49,0,0,1,.18-2l2.93-2A4.32,4.32,0,0,1,75,71.22Z"/><path class="cls-36" d="M29.78,73.2l1.88.16c1.27.62,2,1.45,1.08,2.88l-.21.11C30.32,76.44,29.44,75.35,29.78,73.2Z"/><path class="cls-37" d="M62.31,5l-2,0c-1-.74-2-1.42-1-2.87C61.49,1.8,62.46,2.8,62.31,5Z"/><path class="cls-35" d="M78.15,65.48,78,62.29a1.67,1.67,0,0,1,0-2.07,2.18,2.18,0,0,1,2.79.06,3.75,3.75,0,0,1,.44.24C79,61.42,79.4,64,78.15,65.48Z"/><path class="cls-35" d="M27.05,63.35c-.12.69-.25,1.38-.38,2.07-1.29-1.46-.83-4-3-4.9l.44-.3a2.29,2.29,0,0,1,2.92.13A2.67,2.67,0,0,1,27.05,63.35Z"/><path class="cls-20" d="M59.27,2.15l1,2.87c-1.92-.12-2.61-1.95-4-2.86Z"/><path class="cls-38" d="M4,117.89c0-1,0-2,0-3.08l-.15-3,.17.11a4.21,4.21,0,0,1,2.54-.36,1.58,1.58,0,0,1,1,.77,3.4,3.4,0,0,1,0,2.53c-.76,1.27-1.42,2.63-2.93,3.22Z"/><path class="cls-39" d="M98.81,123.79H8c.81-3.29,3.58-2.26,5.59-2.31,9-.2,17.9,0,26.83-.15a7,7,0,0,0,1.44-.3c2-.23,3.76-.78,3.56-3.39a8.29,8.29,0,0,1,.45-2c.85-2.09,2.62-3.84,2.29-6.35a32.87,32.87,0,0,0-.21-5.7c-3.84-4.38-3.72-5.39.88-7.75a43,43,0,0,1,7.18,0c4.53,2.29,4.73,3.6,1.14,7.17-.75,1.8-.38,3.7-.46,5.55-.44,2.76,1.28,4.82,2.32,7.1a10.49,10.49,0,0,1,.54,2.65c0,2,1.41,2.36,3,2.58.53.11,1,.24,1.53.38,9.72.3,19.43,0,29.13.19C95.18,121.52,98,120.48,98.81,123.79Z"/><path class="cls-40" d="M42.48,121.74c-1.22,1.62-3,1-4.53,1-8.3,0-16.61,0-24.91,0-1.71,0-3.63-.64-5.07,1-2-.45-4.84,1.38-5.75-1.74-.43-1.44-1-3.73,1.77-4.16l0,0c2.11,2.07,4.68,2.62,7.58,2.59,8.29-.09,16.58-.07,24.87,0C38.54,120.46,40.75,120.05,42.48,121.74Z"/><path class="cls-41" d="M98.81,123.79c-1.44-1.62-3.36-1-5.07-1-8.8-.06-17.6,0-26.4,0-1.71,0-3.62.62-5.08-.94,1.84-1.91,4.24-1.32,6.46-1.39,9.92-.3,19.86.52,29.76-.47a5.46,5.46,0,0,0,1.12-1.08,3.34,3.34,0,0,1,1.22-1c2.82.38,2,2.6,1.82,4.13C102.37,124.43,100.29,123.64,98.81,123.79Z"/><path class="cls-42" d="M100.82,117.94a5.46,5.46,0,0,1-.07.9c-2.72-.59-4-2.08-3-4.94,0-.66,0-1.33,0-2a2.28,2.28,0,0,0,2.83,0c0,1,.11,2,.16,2.93S100.82,116.89,100.82,117.94Z"/><path class="cls-43" d="M29.71,15.92,29.8,15c.13-1.83,1.79-2.15,2.95-3,1.75-.39,3.52-.76,3.88-3a3.88,3.88,0,0,1,2.08-1.17,23.92,23.92,0,0,1,4-.24C47.6,7.88,52.79,5.23,57.4,9a4.13,4.13,0,0,1,.93,0c2.79.86,4.65,3.13,6.7,4.91A21.66,21.66,0,0,0,75.76,19a3.48,3.48,0,0,1,2.49,2.75c.28,2.3,1.4,4.28,2.33,6.35s1.35,4.38-.75,5.76-3.6-.31-4.89-1.86A13.72,13.72,0,0,0,72,28.2a7.8,7.8,0,0,0-4-2.81c-1.78-.32-3.09-2.93-5.28-1C61.16,25.5,60,27,58.47,28.22c-2,.71-2.68,2.78-4.24,3.92a4.11,4.11,0,0,1-1.39.17,11.08,11.08,0,0,0-6.76.71c-3.67,1.69-7.53,2.08-11.46,2.25a11.51,11.51,0,0,1-1.31.36,3.9,3.9,0,0,0-3.1,2.07,4.21,4.21,0,0,1-1.08.89c-4,1.44-5.23-1.21-6.21-4.23a9.26,9.26,0,0,1,0-4.41c.52-2.86,2.2-5.29,3-8C26.37,19.4,28.64,18,29.71,15.92Z"/><path class="cls-44" d="M75.13,19.86C67.57,19.26,63.4,13.42,58.33,9c3.58-.91,4.37,3.08,6.92,4,.87.82,2.31.82,2.89,2,1.89,1.19,4.34,1.21,6,2.91C74.68,18.44,75.74,18.72,75.13,19.86Z"/><path class="cls-45" d="M57.4,9c-5-2.14-9.92.18-14.88,0C42.07,5.6,45.31,7.2,46.5,6,50.23,6.62,54.77,4.23,57.4,9Z"/><path class="cls-46" d="M46.5,6c-1,1.39-3.44.9-4,3l-4,0a9,9,0,0,1-1-3l5-2.87A2.29,2.29,0,0,1,43.51,5C44.24,6.19,45.42,6,46.5,6Z"/><path class="cls-47" d="M68.14,15c-1.42,0-2.85,0-2.89-2,2-1.64,4,.34,5.92-.06.5.31,1.31.54,1.41.95.17.68-.52,1-1.19,1Z"/><path class="cls-48" d="M48.47,3.07H52.4a1.27,1.27,0,0,1,0,1.93H49.45C48.91,4.47,47.85,4.2,48.47,3.07Z"/><path class="cls-49" d="M48.47,3.07l1,1.93H45.51a1.27,1.27,0,0,1,0-1.93Z"/><path class="cls-50" d="M45.51,3.08V5l-2,0a2,2,0,0,1-.94-1.94A9,9,0,0,1,43.48,3Z"/><path class="cls-51" d="M52.39,5c0-.65,0-1.29,0-1.93.92.22,2.57-.5,2.39,1.21C54.69,5.27,53.28,5,52.39,5Z"/><path class="cls-52" d="M84,24.84,84,36.71c-1.1,1.28-2,3.58-3.85.66a5,5,0,0,1,0-3.15c.8-2.7.27-5.39,0-8.08a3.31,3.31,0,0,1,.7-1.52A2.44,2.44,0,0,1,84,24.84Z"/><path class="cls-53" d="M75.13,14.82,78,15c1,1.9,3.51,3,3.09,5.73a.93.93,0,0,1,.26.83c0,.29-.11.43-.18.43a2.75,2.75,0,0,1-2.66.45,1.75,1.75,0,0,1-.9-1c.37-2.05-2-2.17-2.52-3.63Z"/><path class="cls-54" d="M84,38.67c-.27,3-1.64,5.95-.09,8.95a2.65,2.65,0,0,1-1.41.62c-1.62-.08-2.24-1.17-2.55-2.56a9.39,9.39,0,0,1,0-3.13C80.45,40.36,81.67,38.92,84,38.67Z"/><path class="cls-55" d="M84,38.67c-1.1,1.26-2.8,2.08-3,4-1.33.54-2.09-.38-2.91-1.14a4,4,0,0,1-.66-1.18,2.72,2.72,0,0,1,.48-2.53,3.51,3.51,0,0,1,3.14-.14c1.47,1.15,1.86-1,3-1Z"/><path class="cls-56" d="M81,21.81c0-.35.09-.69.13-1,1.54.94,3.37,1.68,2.83,4.07l-2.9,0A2.2,2.2,0,0,1,81,21.81Z"/><path class="cls-57" d="M82.92,47.7l1-.08.12,6a3.19,3.19,0,0,1-1.3.62c-1,0-1.86-.36-2-1.56C81.59,51.05,81.71,49.13,82.92,47.7Z"/><path class="cls-58" d="M83.11,53.58h.94c.29,2.41-1.14,3.78-2.93,4.94a2.13,2.13,0,0,1-.75-1.17C80.09,55.22,81.88,54.61,83.11,53.58Z"/><path class="cls-59" d="M80.93,57.51c.06.34.12.67.19,1l-.36,1.76-2.67.22c-.65-1.65.51-2.35,1.6-3.09A1.42,1.42,0,0,1,80.93,57.51Z"/><path class="cls-1" d="M71.88,68.36a2,2,0,0,1,.17.84,8.31,8.31,0,0,1-.77,1,11.43,11.43,0,0,0-2.4,2.87,3.84,3.84,0,0,1-.9.9,14.65,14.65,0,0,0-3.41,2.82c-1.21.92-2,2.28-3.37,3.06a6.83,6.83,0,0,1-1.93.53C57,80.2,55.77,82,54.06,82.92c-3.47,1.5-5.32-2.67-8.45-2.4a7.16,7.16,0,0,1-2.68-.71c-1.15-.73-1.66-2.06-2.68-2.92a12.58,12.58,0,0,0-3.37-2.84,5.73,5.73,0,0,1-1-.83A9.22,9.22,0,0,1,32.69,67c0-.22,0-.44,0-.66-2.85-8.7-4-17.34.93-25.76L34,40c3.67-3.86,8.7-1.92,13-3.08a18.93,18.93,0,0,0,8-2.8,9.2,9.2,0,0,1,2.06-.54c2.1,0,3.47-1.52,5.15-2.44,1.89-1.05,3.82-2.77,6.12-.71a5.79,5.79,0,0,1,.74,1.19c.35,1.75,2.17,2.46,2.85,4,2.07,5.64,4.11,11.21,3.57,17.46-.34,3.9-.06,7.78-2.68,11.14A5.39,5.39,0,0,0,71.88,68.36Z"/><path class="cls-60" d="M29.67,41.48a4.89,4.89,0,0,0,0-.66,2.17,2.17,0,0,1,0-3.07l0,0A2.39,2.39,0,0,1,32,37.16c1.47.9,1.74,2,.53,3.33Z"/><path class="cls-61" d="M32.52,40.49c.16-1.08.25-2.14-.86-2.84-.69-1.33.22-2.1,1-2.92l1-.09.43.36a6.16,6.16,0,0,1,.63,1.55,5.58,5.58,0,0,1,.34,1.67,3.72,3.72,0,0,1-1.39,2.45l-.06-.05Z"/><path class="cls-62" d="M32.58,68.49a2.08,2.08,0,0,0-2.84-.06c0-2.08,1.47-2,2.93-2.05h0A1.45,1.45,0,0,1,32.58,68.49Z"/><path class="cls-63" d="M85.13,92l2.81,1.24a2,2,0,0,1,.33,2.63c-1.61,1.63-3.56,1-5.44.84a2.36,2.36,0,0,1-1.17-.84C81.12,93.05,80.84,90.46,85.13,92Z"/><path class="cls-64" d="M85.13,92c-3.4-.52-2.35,2.36-3,3.94-2.12.9-2.74-.76-3.56-2.08l-.12-.64A3.18,3.18,0,0,1,78.72,92c.43-.65,1-1.25,1.43-1.89l.77-.83,1.16-.2C84,89.17,84.83,90.28,85.13,92Z"/><path class="cls-65" d="M88,96.1c0-1,0-1.91,0-2.86,3.06.25,4.49,2.55,6,4.79a.83.83,0,0,1,.32.77c0,.29-.11.43-.19.43a2.81,2.81,0,0,1-2.59.46A2.75,2.75,0,0,1,90.37,99a10.5,10.5,0,0,0-2.08-2.33C88.17,96.45,88.06,96.27,88,96.1Z"/><path class="cls-66" d="M93.79,99.12c0-.36.07-.73.11-1.09,2.89,1.41,4.81,3.52,4.94,6.91l-2-2a3.54,3.54,0,0,1-3.45-1.89A1.87,1.87,0,0,1,93.79,99.12Z"/><path class="cls-67" d="M20.8,51.55a5.21,5.21,0,0,1,1-4,.65.65,0,0,1,1,0c.49,0,1-.08,1.47-.06,1.83.06,1.35-3.65,3.54-2.41,1.87,1.06.86,3.3.91,5,.13,3.78,0,7.56,0,11.34-1.75.47-1.39-1.62-2.44-2-1.38-2.06,0-4.64-1.28-6.69C23.33,53.24,21.79,53.33,20.8,51.55Z"/><path class="cls-68" d="M22.76,47.56l-.48,0h-.49c-1.85-2.07-.46-4.63-1-6.89,0-.36.09-.71.14-1.07.28-.27.58-.52.89-.77,1.29-1.11.53-3.25,2.09-4.22,1,2.85,2.73,4.32,5.88,3.12l0,3.07-2-.13c-1.49,1.14-3.35,1.91-4,3.93Z"/><path class="cls-69" d="M23.79,44.62c-1.26-3.92,2.19-3.07,4-3.93A6.51,6.51,0,0,1,23.79,44.62Z"/><path class="cls-70" d="M26.75,59.45l2,2c0,1.1-.46,1.85-1.66,1.92-.11-1-.21-1.92-.32-2.88-.25-.23-.33-.46-.24-.68S26.67,59.45,26.75,59.45Z"/><path class="cls-43" d="M79,93.15a5.1,5.1,0,0,0,3.1,2.79q.45,0,.9,0c1.67,1,3.43,1.8,5.16,2.66,2.6,1.91,3.84,4.84,5.63,7.36l.06,1.94c3.37,1.63,1.8,5.5,3.55,7.86,1.63,3.68.31,5.08-3.54,5-9.94-.1-19.87,0-29.8-.07a4.26,4.26,0,0,1-1.6-.38c-1.86-1.95-2.84-4.42-4-6.79a12.71,12.71,0,0,1-.46-3.93c.17-2.15.32-4.32,3.24-4.46a5.26,5.26,0,0,1,2.63,1.19c2.83,2,4.84,1.52,5.86-1.94.12-.94.18-1.88.32-2.81a6.68,6.68,0,0,1,.72-2.11C72,97.78,72.62,95.68,74,94S77,91.51,79,93.15Z"/><path class="cls-71" d="M62.28,119.82c10,0,20-.27,30,.14,4.33.17,5.43-1.21,4.56-5.07-.27-.25-.35-.48-.25-.71s.2-.34.3-.34l.94.06c.24,2.1,1.71,3.46,3,4.94,0,.31,0,.61-.05.92-.65,1.46-1.92,1.54-3.28,1.54-10.91,0-21.82,0-32.72,0C63.7,121.27,62.24,121.72,62.28,119.82Z"/><path class="cls-71" d="M93.82,106c-3.37-1.08-3.83-4.7-5.95-6.87l.48-.51a2.07,2.07,0,0,1,2.57.46l0,0c.91.88,1.68,1.88,2.51,2.85.53,1,1.15,1.93.49,3.09Z"/><path class="cls-72" d="M93.88,105l-1-2.92c-.21-1,.13-1.35,1.11-1.07l2.91,2A3,3,0,0,1,93.88,105Z"/><path class="cls-73" d="M96.86,113.84c0,.35,0,.7,0,1q-1.45-3.48-2.93-7C97.76,108.44,96.6,111.5,96.86,113.84Z"/><path class="cls-74" d="M68.15,76.28c0,2.27.08,4.54,0,6.8s.84,3.31,3.06,3.29c1.07.72,3.46-.36,3.25,2-.17,1.82-2,1.88-3.45,2-4.32.45-5.54-.85-6.22-6.52-.15-.49-.27-1-.38-1.51a10.13,10.13,0,0,1,.06-4.45,3.93,3.93,0,0,1,1.21-1.74,2.25,2.25,0,0,1,2-.3Z"/><path class="cls-63" d="M65.25,82.21a5.59,5.59,0,0,1,.87,1.65c.83,6,1.33,6.27,7.48,4.46-.14-1.5-1.89-1-2.43-1.95h3.74c.46,4.17,3.84,2.31,6,2.93a4.27,4.27,0,0,1,.08.87c-.64.63-1.55,1-2,1.87l0,.22c-1.5.7-3.23,0-4.72.78a5,5,0,0,1-3.16-.35c-2.09-1.84-6.13-.5-7-4.32a10.84,10.84,0,0,1,.13-4.84A2.8,2.8,0,0,1,65.25,82.21Z"/><path class="cls-75" d="M71.2,69.39l.85-.19c0,1.36.07,2.72.1,4.09a2.25,2.25,0,0,1-.92,2.06A2,2,0,0,1,69.64,74C69.21,72.16,70.3,70.8,71.2,69.39Z"/><path class="cls-76" d="M70.08,74.22l1.15,1.13c-.78,1.12-2,1-3.08.93l.06,0a2.26,2.26,0,0,1,0-3h0C69.28,72.65,69.59,73.61,70.08,74.22Z"/><path class="cls-77" d="M32.75,12c-1,1-2,2-2.95,3l-3.28-.11c-.16-2.28,1.39-3.2,3.13-3.95C30.38,12.13,31.62,11.91,32.75,12Z"/><path class="cls-78" d="M37.57,6c2.47.27,1.69,1.65,1,3L36.63,9c-1.18-1-1.6-2,0-2.95A7.87,7.87,0,0,1,37.57,6Z"/><path class="cls-79" d="M29.65,87.11a1.63,1.63,0,0,1,.21-.81l2.76.07c2.38,2.56,4.12,2.34,5-1.21a3.15,3.15,0,0,1,1.14-2.07,1.15,1.15,0,0,1,1.22.35c.95,2.12,1,4.54,2.22,6.56a3.77,3.77,0,0,1-.08,1.42,3.17,3.17,0,0,1-2.06,1.74c-3.3.81-1.8,3.89-2.72,5.83a5.66,5.66,0,0,1-1.8,3.05A2.39,2.39,0,0,1,33,101a22.47,22.47,0,0,0-7.46-9.38C25.75,89.09,29.24,89.51,29.65,87.11Z"/><path class="cls-80" d="M39.38,83.21c-.76,3.65-1.41,7.41-6.72,5.92-3.23-.91-.62-1.83,0-2.76,3.11.23,4.36-1.18,4-4.31a56.09,56.09,0,0,1,0-5.8l.49-.46a2.39,2.39,0,0,1,2.55.25,12.15,12.15,0,0,1,.7,1.15c.42,1.73,1,3.46,0,5.2A2.14,2.14,0,0,1,39.38,83.21Z"/><path class="cls-81" d="M32.58,68.49l.09-2.11c.59,2.71,3.43,4.21,3.78,7.05-.72,1.06-1.89,1.67-2.63,2.72l-1.08.09-1.08-2.88C33.37,72,32.46,70.15,32.58,68.49Z"/><path class="cls-82" d="M33.82,76.15c-.53-2.28.59-3,2.63-2.73l.12-.07a2.07,2.07,0,0,1,0,3l.07-.06Z"/><path class="cls-83" d="M10.86,98.93l3-1.91A2.29,2.29,0,0,1,15.5,99.3c-.45,2.46-1.43,4.39-4.38,4.31a3.39,3.39,0,0,1-2.38-1.71Z"/><path class="cls-84" d="M8.74,101.9c.9.13,1.79.26,2.26,1.19a1.85,1.85,0,0,1,.37,1.93,2.92,2.92,0,0,1-1.48,1.42A1.89,1.89,0,0,1,8,106c0-1.31,0-2.61,0-3.91A1.42,1.42,0,0,1,8.74,101.9Z"/><path class="cls-85" d="M75.13,17.88c1.77.73,3.31,1.63,3,4a.59.59,0,0,1-1,0,1.86,1.86,0,0,0-2-2c-.34-.65-.68-1.3-1-2Z"/><path class="cls-86" d="M23.87,34.63c-.06,1.46,0,2.94-.19,4.39-.15,1.29-.83,1.69-1.9.66,0-.92,0-1.83,0-2.75A34.94,34.94,0,0,1,22,31.15c.08-.41.37-.78.17-1.23-.16.75-.57,1.09-1.34.84l.05-5.86c3.66-.5,3.73-.39,2.95,4.92Z"/><path class="cls-87" d="M23.86,29.82c-.58-1.89,1.25-5.23-2.95-4.92,0-1,0-1.94,0-2.91l2.76-.13a2.13,2.13,0,0,1,1.56-.77,2.88,2.88,0,0,1,1.15.33l.39.46C27.11,25,24.67,27.11,23.86,29.82Z"/><path class="cls-88" d="M20.86,30.76,22.78,28v9.69c-2.61.3-.69-2.35-1.91-3Z"/><path class="cls-89" d="M20.87,34.72l1.91,3a2.05,2.05,0,0,1-1,2c-.3,0-.6,0-.89-.06C20.88,38,20.87,36.35,20.87,34.72Z"/><path class="cls-90" d="M17,92.38l2.83-.31c2.58.07,2.6,1.42,1.62,3.27a5.93,5.93,0,0,1-4.31,2.17A3,3,0,0,1,14.82,96C15.92,95,17.21,94.17,17,92.38Z"/><path class="cls-91" d="M14.82,96a2.26,2.26,0,0,1,2.06,1,1.44,1.44,0,0,1,0,2,1.41,1.41,0,0,1-2-.07l-1-2Z"/><path class="cls-92" d="M20.8,51.55c1.65,1.39,3.3.16,4.95,0,.38,2.33,1.81,5-2,5.94L21,56.4C20.93,54.79,20.87,53.17,20.8,51.55Z"/><path class="cls-93" d="M80,57.48l-2,3L78,62.3a3.39,3.39,0,0,1-.84.17c-1.89,0-1.95-1.4-2-2.7-.16-6,.12-12-.22-18.06-.06-1.17,0-2.79,1.8-2.86,1,0,.78,1.27,1.33,1.81h0c1,1.67,1.93,3.32,2.89,5a2,2,0,0,0,1.94,2.06c-.28,1.74,1.26,4.2-1.88,4.81-.51-.1-1-.27-1.48.14a6.13,6.13,0,0,0,.29,4.22C79.92,57.08,80,57.28,80,57.48Z"/><path class="cls-94" d="M71.88,68.36a4,4,0,0,1-.26-4.59c4-8.06,3.81-16-.1-24.07-.66-1.36-.35-3.2-.49-4.81l.62-.37a2.8,2.8,0,0,1,1.24.73c1.21,1.59,3,2.86,2.7,5.24-.36,7.63.74,15.28-.56,22.87l-2,3a2.12,2.12,0,0,1-.85,1.06Z"/><path class="cls-95" d="M75,63.36q0-12.28,0-24.59c-.06-2.1.81-2.73,2.72-1.73l.36.65c0,1,0,2,0,3-.69-.13-1.83-1.45-1.8-.77.32,7.52-1.42,15.14.87,22.58-.15.75-.07,1.94-.48,2.14C75.81,65,75.44,64,75,63.36Z"/><path class="cls-75" d="M72.18,67.39c.28-.35.56-.71.85-1.06a2,2,0,0,1,2.12,2.08l-.18,2C73.86,69.55,74.32,67.25,72.18,67.39Z"/><path class="cls-96" d="M7,111.86a2.46,2.46,0,0,1-2.93,0L4.18,109l1.82-1C8.58,108.68,8,110.21,7,111.86Z"/><path class="cls-97" d="M7,111.86c-.07-1.37.47-2.89-1-3.94l2-2h2c.67,1.47-.54,2.55-.76,3.83-.46,1-.5,2.38-2.15,2.17Z"/><path class="cls-98" d="M20.83,95.1c.78-1.4.51-2.44-1-3,.7-1.82,1.82-3.1,4-3.08,2.3.42,4.05-.91,5.91-1.88.65,3.32-2.4,3-4,4-.52,1.55-.63,3.3-2.16,4.34A2.2,2.2,0,0,1,20.83,95.1Z"/><path class="cls-99" d="M25.73,21.83l-2,0,.24-3.92c.28-.34.56-.69.83-1C27.72,18,26.68,19.94,25.73,21.83Z"/><path class="cls-100" d="M29.71,15.92c.21,2.57-2,3.94-2.92,6l-.12-.07a3.92,3.92,0,0,1,.1-3.89Z"/><path class="cls-101" d="M26.77,17.92c0,1.3-.07,2.59-.1,3.89l-.47,0h-.47c-.21-1.66.68-3.55-1-4.93C26.37,15.38,26.54,16.7,26.77,17.92Z"/><path class="cls-102" d="M23.78,57.48c2.23-1.45,2-3.71,2-5.94,2.09,2.42.46,5.3,1,7.91,0,.34,0,.68,0,1l-2.64-.25C24,59.31,23.88,58.39,23.78,57.48Z"/><path class="cls-103" d="M7,112c1.08-.74.94-1.89,1-3,1.09-.37,2-2.24,3.36-.51a4.5,4.5,0,0,1-.12,1.93c-2,8-2,8.14,6.42,8,8.14-.15,16.31.81,24.41-.84a2.51,2.51,0,0,1,1.73,2.63c-.38,1-1.24,1.12-2.16,1.11q-15.25,0-30.52,0c-6.88,0-7.13-.43-4.13-6.41Z"/><path class="cls-104" d="M7,114.88c-1.15,5.9-1.15,5.9,5.29,5.91l30.25,0c.34.23.44.45.31.65s-.25.29-.37.29v0c-11,0-22,0-33,0-2.61,0-5.56.16-5.47-3.84C5,116.86,6,115.87,7,114.88Z"/><path class="cls-105" d="M62.28,119.82c.71.33,1.42,1,2.13,1q16.53.09,33.06,0a11.88,11.88,0,0,0,3.24-1c-.48,3.13-3,2-4.66,2-11.27.11-22.53.07-33.79.08-.32,0-.64,0-1,0a4.08,4.08,0,0,1-3-3l-.05-2.93a.87.87,0,0,1-.28-.78q.08-.42.18-.42a1.24,1.24,0,0,1,1.25,0,37.66,37.66,0,0,0,2.82,5.09Z"/><path class="cls-106" d="M55.47,102.11c2.21-1.4,5.92-2.55.82-5.12-1-2.56.88-2.89,2.59-3.35a3.59,3.59,0,0,1,2.51,1.21c.39,1.26-.76,3,1.06,3.82.45.44.84.93,1.27,1.38,1.33,1.25,3.5.47,4.71,2a1.7,1.7,0,0,1-.31,1.36,6.87,6.87,0,0,1-5.75,1.28C60.31,103.17,57.49,103.73,55.47,102.11Z"/><path class="cls-107" d="M55.47,102.11c2.39.19,5.21-1.15,6.82,1.88l.36.58a1.16,1.16,0,0,1-.91.85c-4.23-.35-4.07,1.68-2.44,4.52l.05,3.91c.27.26.34.5.23.73s-.21.33-.3.33l-.9-.08a23.81,23.81,0,0,1-3-5.91Z"/><path class="cls-108" d="M48.52,97c-2.62,1.5-4.4,3,.07,4.4.4.13.54,1.09.8,1.66a2.37,2.37,0,0,1-1.28.32,9.66,9.66,0,0,1-3.9-1A2.92,2.92,0,0,1,43,99.43c1-1.45.52-2.67-.65-3.77a3.85,3.85,0,0,1-.56-1.24,3.08,3.08,0,0,1,.71-2.67,3.24,3.24,0,0,1,2.81-.25A11,11,0,0,1,48.82,95,1.86,1.86,0,0,1,48.52,97Z"/><path class="cls-109" d="M48.52,97l-.07-1.89a2.64,2.64,0,0,1,1.08-.82,14.36,14.36,0,0,0,7.4-2.82,3.2,3.2,0,0,1,2.09.16,1.78,1.78,0,0,1,.79,1.15,2,2,0,0,1-.52,1.3c-1.19.78-2.85,1.08-3,2.93Z"/><path class="cls-110" d="M48.47,103l.92.06c0,2.29,0,4.57,0,6.86-.68.92-1,2.17-2.47,2.3a1.51,1.51,0,0,1-1-.83c-.42-2.93,1.52-5.24,2.05-7.92Z"/><path class="cls-40" d="M42.48,121.76c0-.32,0-.63.06-.94l1-1a2.4,2.4,0,0,1,1.79-2.48,1.59,1.59,0,0,1,1.17.48C46.93,121,45.61,122.28,42.48,121.76Z"/><path class="cls-111" d="M55.39,108.92c1.47,1.73,3.16,3.35,3,5.91l-.09,1.06C56.49,113.92,54.86,111.87,55.39,108.92Z"/><path class="cls-112" d="M46.53,112l2.88-2c.34,2.64-1.45,4.23-2.92,6A2.63,2.63,0,0,1,46.53,112Z"/><path class="cls-110" d="M46.53,112c0,1.31,0,2.62,0,3.93,0,.65,0,1.3,0,1.94l-1,0a4.28,4.28,0,0,1-1.09-3.54,4.53,4.53,0,0,1,.7-2.16,1,1,0,0,1,1.35-.25Z"/><path class="cls-40" d="M58.34,118.82l3,3C59.08,122,58.1,121,58.34,118.82Z"/><path class="cls-113" d="M33.65,34.64c6.78.1,12.72-5.31,19.83-3a2.79,2.79,0,0,1-1,1c-2.23.92-4.16,2.5-6.57,3a29.11,29.11,0,0,1-6.11.39c-1,0-2.1,0-3.15-.06a4.9,4.9,0,0,1-3-1.12Z"/><path class="cls-114" d="M77.11,21.84c.32,0,.65,0,1,0l0,0a14.51,14.51,0,0,1,2.88,4c0,3,0,5.94-.05,8.9-.59,2.53-2,2.37-3.72,1.14a4.51,4.51,0,0,1-2.5-1.1A3.68,3.68,0,0,1,74.3,32a2.31,2.31,0,0,1,.84-1.21c1.33,1,2.47,3.59,4.22,2.24,1.46-1.12,1-3.49-.35-5.24A9,9,0,0,1,77.11,21.84Z"/><path class="cls-115" d="M52.4,31.75l1.08-.14a5.9,5.9,0,0,0,.84,0c.67-.73,1.28-1.56,2.41-1.6,2,.19,2.55,1.35,2.22,3.17-.28.78-1,1-1.63,1.49l-1.84.12a4.78,4.78,0,0,1-2.89.38C51,34.14,50.59,33,52.4,31.75Z"/><path class="cls-116" d="M62.28,23.83c2.74-4.75,4,.82,6,.88l-.53.61a5.37,5.37,0,0,1-5.37-.11A.9.9,0,0,1,62.28,23.83Z"/><path class="cls-117" d="M62.28,23.83l.06,1.08a2.38,2.38,0,0,1,.38,2.71,2.86,2.86,0,0,1-2.57,1.08,3.93,3.93,0,0,1-1.38-.41l-.48-.54A6.56,6.56,0,0,1,62.28,23.83Z"/><path class="cls-118" d="M75.14,30.74l-.07,1c-.86.55-1.64.17-2.42-.19a3,3,0,0,1-.93-.88,2.76,2.76,0,0,1,0-2.49l.46-.44A2.88,2.88,0,0,1,75.14,30.74Z"/><path class="cls-116" d="M68.3,24.71c2,.06,3.72.59,3.86,3.06l-.07.12c-2,1.24-3.24.35-4.08-1.55a2,2,0,0,1,.13-1.45Z"/><path class="cls-117" d="M56.35,30.75l-2,.89c.47-2.18,1.16-4.12,4-3.89l.05.05C59.08,29.74,57.18,29.88,56.35,30.75Z"/><path class="cls-119" d="M32.67,34.73c-.34,1-.67,2-1,2.92l-1.94.06Q29.35,34.38,32.67,34.73Z"/><path class="cls-120" d="M81,25.83c-1.54-.92-2.92-2-2.88-4H81l.06,3.07C81.06,25.2,81,25.51,81,25.83Z"/><path class="cls-121" d="M78,34.75c1,1.17,2,1.51,2.93,0l.09,3a2.67,2.67,0,0,1-3,0h0A2.19,2.19,0,0,1,78,34.75Z"/><path class="cls-88" d="M82.56,34.85c-.65-2.9-.74-4.45-.08-6.51C83.23,30.41,83.1,32,82.56,34.85Z"/><path class="cls-53" d="M81,45.64c-1.91-1.12-3.2-2.59-2.89-5l2.91,2C81,43.66,81,44.65,81,45.64Z"/><path class="cls-122" d="M79.07,50.57a1.76,1.76,0,0,1,2,1.94,2.26,2.26,0,0,0,2.07,1.07q-1.08,2-2.18,3.93c-.3,0-.59,0-.89,0h0C77.65,55.47,78.54,53,79.07,50.57Z"/><path class="cls-123" d="M39.38,83.21l.29-1a5.06,5.06,0,0,1,2.42-1.1c1.32-.26,3.26.61,3.4-1.85,3.62-1.14,5.19,4.16,8.87,2.84a1.22,1.22,0,0,1,.13,1.22c-1.22,1.2-3.4.75-4.28,2.53a3.73,3.73,0,0,1-1,.87c-3.35,1.09-5.65-1.44-8.4-2.43-.33-.34-.65-.68-1-1Z"/><path class="cls-124" d="M54.38,83.17c0-.34,0-.68,0-1,.85-2.35,2.45-3.39,5-2.85.5,1.79,2,1.74,3.38,1.79a3.67,3.67,0,0,1,2.46,1.18l.09-.05L65,83.4a3.9,3.9,0,0,1-1.15.67,14.88,14.88,0,0,1-2,.38c-2.07,0-2.88,2.29-4.74,2.71-2.68.39-5.39,1-7.74-1v-.94C50.62,83.38,53.29,85.19,54.38,83.17Z"/><path class="cls-125" d="M57.32,34.7l1-1.06c.8-1.25,1.06-2.85,2.42-3.74a20.83,20.83,0,0,1,3-2.82,5,5,0,0,1,4.37.28,2.43,2.43,0,0,1,.54,2.85l-.55.56c-2.79-1.18-4.6.81-6.46,2.21C60.31,34,59.12,35,57.32,34.7Z"/><path class="cls-126" d="M33.66,40.67l1-3c3.65-2.43,7.61-1.25,11.5-1a3.16,3.16,0,0,1,1.44,1.11C43.11,39.47,37.88,37.59,33.66,40.67Z"/><path class="cls-127" d="M62.24,82.18c-1.46-.2-3.29.83-4.3-.75-.59-.94,1.05-1.31,1.38-2.14l1.88-.13a1.25,1.25,0,0,1,1.26-.2C63.85,80.13,63.86,81.21,62.24,82.18Z"/><path class="cls-128" d="M45.49,79.3c.39.82,1.31,2.15,1.08,2.39-1.08,1.14-2.64.34-4,.49-1.27-.72-1.64-1.63-.61-2.85l.61-.34Z"/><path class="cls-62" d="M47.61,37.81l-1.25-.28a1,1,0,0,1,.09-1.11,3.82,3.82,0,0,1,1.06-.55c.56-.17,1.13-.29,1.69-.47,1.07-.25,1.95-1.4,3.23-.74l3,.16C53.27,36.92,50.77,38.21,47.61,37.81Z"/><path class="cls-129" d="M36.57,76.32v-3c2.36-.46,3.2,1.21,4,2.88a.86.86,0,0,1-1.21.21Z"/><path class="cls-130" d="M70.08,74.22l-1.9-.94c-.32-2.33,1.16-3.25,3-3.89C70.83,71,70.46,72.61,70.08,74.22Z"/><path class="cls-131" d="M68.16,73.28c0,1,0,2,0,3l-2,0a1.38,1.38,0,0,1-2-.07C65,74.59,65.86,73,68.16,73.28Z"/><path class="cls-58" d="M64.2,76.23l2,.07-1,1c-.85.92-.64,3.4-3,2l-1-.16C62.08,78.06,62.29,76.27,64.2,76.23Z"/><path class="cls-132" d="M71,34.89c-2.09-.09-3.14-1.06-2.73-3.26,3.06-1,4.06,0,2.92,3Z"/><path class="cls-133" d="M39.4,76.44l1.21-.21c1.75.14,2.08,1.29,2,2.77l0,.34c-2.36,1.29-2.17-1.1-3-2.07Z"/><path class="cls-118" d="M71.22,34.65c.14-2.08-.84-3.09-2.92-3-.06-.29-.12-.57-.19-.86l.42,0c1.22-1.15,2.42-.92,3.62,0h0a2.89,2.89,0,0,1,.48,3.53l-.57.51C71.77,34.76,71.5,34.71,71.22,34.65Z"/><path class="cls-134" d="M46.51,36.72a3.62,3.62,0,0,1-.15.81l-11.7.18-1-1a4.26,4.26,0,0,1,3.09-1c1.94,0,3.88,0,5.82,0C44,35.81,45.43,35.48,46.51,36.72Z"/><path class="cls-135" d="M36.61,36.7h-3l0-1.83h3A1.21,1.21,0,0,1,36.61,36.7Z"/><path class="cls-136" d="M87.87,99.12A4.73,4.73,0,0,1,83,96c1.67-1,3.27.45,4.92.13l0,0A2.12,2.12,0,0,1,88,99Z"/><path class="cls-137" d="M74.16,92.15l4.91.1c0,.3,0,.6,0,.9-3.55-1-4.3,2.13-5.63,4.12-.67,1-.38,2.65-2.15,2.8a2.27,2.27,0,0,1-.48-1.33C70.89,96,71.16,93.38,74.16,92.15Z"/><path class="cls-138" d="M79,92c-1.09-2.46.83-1.74,2-1.87C81.09,91.57,80.34,92.09,79,92Z"/><path class="cls-139" d="M88,99l-.09-2.92c2.2-.19,3.21.8,3,3Z"/><path class="cls-140" d="M94,101l-1.11,1.07c-2-.13-2-1.56-2-3l2.91.09Z"/><path class="cls-141" d="M71.13,105c-2.86,5.28-4.9,5.51-8.89,1-.32-.2-.43-.4-.32-.61s.21-.3.32-.3l.06-.15c2-1.6,3.85,1.25,5.82.14C69.11,104.59,70.1,104,71.13,105Z"/><path class="cls-142" d="M62.24,105.09a6.91,6.91,0,0,1,0,.91c-3.2-.35-3,1.88-2.94,3.94-1-1.36-3.48-2.2-2.62-4.14C57.87,103.12,60.39,105.66,62.24,105.09Z"/><path class="cls-143" d="M71.22,99.05l0,1c0,.64-.09,1.28-.14,1.92-1,.75-1.16,2.51-2.93,2.17a.8.8,0,0,1-.23-.76c.07-.25.14-.38.22-.38l0-1A4.32,4.32,0,0,1,67,99.27a8,8,0,0,1,.5-3.62,1.62,1.62,0,0,1,1-.81c1.75.57,1.66,2.38,2.45,3.61C71.07,98.65,71.14,98.85,71.22,99.05Z"/><path class="cls-141" d="M59.28,114.91c0-.35,0-.7.07-1.06,1.42,1.77,3.23,3.36,2.91,6A4.81,4.81,0,0,1,59.28,114.91Z"/><path class="cls-144" d="M68.22,104c1-.63,1.39-2.12,2.89-2,0,1,0,2,0,3l-2.94,1A1.4,1.4,0,0,1,68.22,104Z"/><path class="cls-145" d="M62.24,79.33c1.51.07,2-1.44,3-2,0,1.66-.07,3.32-.1,5l-2.92-.08A2.26,2.26,0,0,0,62.24,79.33Z"/><path class="cls-146" d="M69.17,95.08h-.92c-1.81-1.94-3.93-.57-5.93-.55-1-.4-2.2-.54-3-1.43,0-.32,0-.63,0-1C60.6,89.83,62,87.63,65.17,88c.2,2,1.65,2.15,3.21,2.11s2.64.22,2.78,2l-.19.57a12.81,12.81,0,0,1-1.3,2Z"/><path class="cls-147" d="M65.17,88c-2.56.52-3.38,3.49-5.84,4.14l-2,0c-.82-2.31.87-3.27,2.34-4.28,1.8-1.23,3-3.08,4.54-4.5a3.73,3.73,0,0,1,.82,0C65.08,84.94,65.12,86.48,65.17,88Z"/><path class="cls-148" d="M74.16,92.15c-2.3,1.73-1.39,4.84-2.94,6.9l-.16,0c-1-1.14-.86-2.52-.86-3.87a4.08,4.08,0,0,1,1-3h0Z"/><path class="cls-149" d="M36.66,99c1.06-2.23-2.58-6.45,2.86-6.83a15.74,15.74,0,0,1,3,2.92l0,0a3.64,3.64,0,0,1,.69,3.62c-.22.73-.15,1.51-.35,2.24a2.24,2.24,0,0,1-1.25.76C39.42,101.81,38,100.55,36.66,99Z"/><path class="cls-150" d="M23.73,95c-.06-1.64.27-3.09,1.92-3.88,6.91-.15,7.58,4.75,8,9.88a3.32,3.32,0,0,1,.49,3.62,1.44,1.44,0,0,1-1.23.61c-2-1.57-1.51-4.09-2.23-6.15C29.57,96,28,94,24.34,95.34Z"/><path class="cls-147" d="M39.83,83.29l.76.07c1,2.16,3.85,3,4.15,5.64a2.18,2.18,0,0,1-2.92,1C38.94,88.41,39.63,85.77,39.83,83.29Z"/><path class="cls-151" d="M36.66,99c2.16-.61,3,1.93,4.9,2-1,3.12-3.25,2.06-5.33,1.55l-.59-.57C35.67,100.92,35.43,99.72,36.66,99Z"/><path class="cls-152" d="M41.82,90l2.69-.83c2.22-.11,2.27,1.37,2.16,3a.77.77,0,0,1-1.25.07l-2.9-.34a.76.76,0,0,1-.77-.82Z"/><path class="cls-153" d="M33.69,105c0-1.31,0-2.62,0-3.93l2,1,0,0c1.48.92,2.26,2.08,1.33,3.83C35.53,106.77,34.56,106.05,33.69,105Z"/><path class="cls-154" d="M41.75,91l.77.82c0,1.09,0,2.18,0,3.27a2.9,2.9,0,0,1-3-2.92A2.55,2.55,0,0,0,41.75,91Z"/><path class="cls-155" d="M39.58,77.27c1,.65,1.47,2.11,3,2.06a2.3,2.3,0,0,0,0,2.85l-2.9.07C40.58,80.57,39.31,78.93,39.58,77.27Z"/><path class="cls-156" d="M14.89,99,16.8,99c.1.21.21.42.32.63-1.21,3-1.86,6.55-6.22,6.59a.75.75,0,0,1-.24-.81c.1-.26.19-.39.28-.39l.06-1.89C13.49,102.88,14,100.78,14.89,99Z"/><path class="cls-26" d="M10.94,105l0,1a1.37,1.37,0,0,1,0,2L8,109c.65-1,1.3-2,1.94-3Z"/><path class="cls-157" d="M20.83,95.1l2.9-.06.05,0c-1.42,2.83-3,5.32-6.87,4L16.8,99c0-.62.05-1.25.08-1.87Z"/><path class="cls-59" d="M79.07,50.57c0,2.34-.38,4.75,1,6.91C76.7,55.61,77.76,53.1,79.07,50.57Z"/><path class="cls-158" d="M78,34.75c0,1,0,2,0,2.94-1.45-.86-2.45-.41-3.08,1.08-1.57-.88-3.18-1.74-2.94-4l.18-.16a2.17,2.17,0,0,1,2.94.07Z"/><path class="cls-43" d="M16.91,99.12c3-.08,4.22-3.31,6.87-4,4.52-2.89,5.91-2.56,7.7,2.35A16.46,16.46,0,0,1,32.67,105c2.11,2.06,4.42,3.4,7.45,2,1.7-.81,3.42-2.7,5.3-1s.49,3.92.07,5.91l0,2c-.88,1.39-.63,3.64-2.95,4-1.31,1.71-3.05,2-5.14,2-8.14-.1-16.29-.18-24.42,0-4.07.11-5.67-.64-4.31-5.25A47.41,47.41,0,0,1,10.94,108c0-.66,0-1.31,0-2C14.35,104.9,14.83,101.31,16.91,99.12Z"/><path class="cls-159" d="M42.52,117.84l2.95-4c0,1.3,0,2.61,0,3.92l-2,2A2.05,2.05,0,0,1,42.52,117.84Z"/><path class="cls-160" d="M62.31,94.13c2.07-.25,4.87-5,5.94,1,0,1.29-.09,2.59-.13,3.88-1.6,1.65-3.18,3.35-5.82,2l-.1-1.84c-1.84-1.13-.79-2.58-.43-4A1.18,1.18,0,0,1,62.31,94.13Z"/><path class="cls-161" d="M68.22,104l0,1.95c-.3,1.78-1.23,2.35-2.38.79a3.79,3.79,0,0,0-3.51-1.81,6,6,0,0,1,0-1l5.88-1C68.18,103.35,68.2,103.68,68.22,104Z"/><path class="cls-107" d="M62.3,101c2.4.65,3.49-2.49,5.82-2,0,1,0,2,.08,3C66.24,101.64,64,102.89,62.3,101Z"/><path class="cls-162" d="M62.24,95c-.05,1.37-.82,2.73,0,4.11-4.48-.39-2.75-2.23-1-4.08A.64.64,0,0,1,62.24,95Z"/><path class="cls-163" d="M62.24,95l-1,0a2,2,0,0,1-2-1c0-.32,0-.64,0-1,1.11,0,2.28-.15,3,1A5.58,5.58,0,0,1,62.24,95Z"/><path class="cls-110" d="M44.51,102c1.36.14,2.91-.45,4,1l-.1.11c-1.73,1.81-3.43,3.79-6,1.22C42.55,103.07,42.65,101.69,44.51,102Z"/><path class="cls-164" d="M45.42,92.19,46.54,92c3-1.12,4-.11,3.07,2.93l-1.16.13C46.56,95.05,46.26,93.34,45.42,92.19Z"/><path class="cls-165" d="M42.6,99.09l-.09-4c1.21,1.11,5.64,1.39,1,4C43.22,99.54,42.91,99.51,42.6,99.09Z"/><path class="cls-166" d="M42.6,99.09a5.9,5.9,0,0,1,.94,0c.32,1,.65,1.93,1,2.9l-2,2.07-.42-.42a2.81,2.81,0,0,1-.27-1.14,3.27,3.27,0,0,1,.7-1.59Z"/><path class="cls-167" d="M49.61,95c0-2-1-3-3.07-2.93l-2-2.88c-1.33-1.92-4.21-2.78-3.92-5.8,3.15.28,5.51,3.13,8.85,2.78l8.76,0a9,9,0,0,1,4.07-2.86l1.95.11c0,2.85-1.94,4.5-4.07,5.58a6.34,6.34,0,0,0-2.81,3.2A7,7,0,0,1,49.61,95Z"/><path class="cls-168" d="M42.5,104.08c2.43,2.48,3.77-1.53,5.88-1,1.17,3.33-2,5.7-2,8.76a7.26,7.26,0,0,1-.93.06c0-.81,0-1.62,0-2.43,0-3.13-.39-4.45-3.71-1.91-3.89,3-7.09,1.83-9.1-2.58l1,0,2.89,1c1.47.59,2.07-.58,2.85-1.42,1-.66,1.91-1.25,3.1-.6Z"/><path class="cls-169" d="M52.43,34.66l-3,2c-.63-.88-1.76-.89-2.57-1.47-.12-.17-.24-.33-.35-.5,2-.93,3.35-3.16,5.91-2.94A2.46,2.46,0,0,0,52.43,34.66Z"/><path class="cls-135" d="M46.51,36.72l-4,0c-.6-1.22-3.11.59-2.92-1.87l6.93-.11,0,.06c.56.53,1.61.81,1,1.94Z"/><path class="cls-170" d="M39.56,34.8l2.92,1.87-5.87,0c0-.61,0-1.22.07-1.83Z"/><path class="cls-171" d="M75.17,34.71l-2.94-.07-.09-3.88,2.93,1C75.1,32.75,75.14,33.73,75.17,34.71Z"/><path class="cls-172" d="M61.33,30.8l-3,2.84c.07-1.45,0-2.79-1.94-2.89l2-2.95,1,.07A7.52,7.52,0,0,1,61.33,30.8Z"/><path class="cls-173" d="M68.19,27.83H63.36a.64.64,0,0,1-1.08,0c0-1,0-1.92,0-2.88l5.81,0c0,.31.08.62.1.93l-.54.4c-.69.07-1.4.1-1.47.09a3.93,3.93,0,0,1,2,.33A.89.89,0,0,1,68.19,27.83Z"/><path class="cls-174" d="M62.28,27.79l1.07,0-2,3c-1.91-.14-2.15-1.39-1.94-2.93Z"/><path class="cls-175" d="M68.19,27.83l0-1.07c-.3-.19-.41-.39-.32-.6s.17-.32.27-.32l.15,0c1.06,1.1,2.08,2.28,3.85,2.07l.06,2.88-3.62,0C68.42,29.77,68.31,28.8,68.19,27.83Z"/><path class="cls-176" d="M54.38,83.17c1,1,.81,1.8-.54,2a34,34,0,0,1-4.4,0C50,82,52.69,83.74,54.38,83.17Z"/><path class="cls-177" d="M62.27,83.25c-1.31,1-2,2.86-4.07,2.86C58.57,83.73,60.09,83,62.27,83.25Z"/><path class="cls-178" d="M47.46,36.69l-1-1.94c1.42,0,2.86-.12,2.94,1.91Z"/><path class="cls-179" d="M71.13,95.1c0,1.3,0,2.6-.07,3.9-2.65-.33-1.64-2.43-1.89-3.92h0A1.28,1.28,0,0,1,71.13,95.1Z"/><path class="cls-180" d="M71.13,95.1l-1.94,0c0-1.44,0-2.87,2-3Z"/><path class="cls-181" d="M39.68,105.06c-.19,1,.11,2.41-1.38,2.69C37,108,36.74,107,36.58,106a6.51,6.51,0,0,0-1-4c2-.31,4.2.82,6-.95l.95-.11c0,.7,0,1.4,0,2.11C41.74,104,40,103.45,39.68,105.06Z"/><path class="cls-182" d="M39.68,105.06c-.52-.29-1.32-.46-1.49-.88-.27-.67.37-1.07,1.05-1.1,1.08,0,2.17,0,3.26,0l0,.94Z"/><path class="cls-183" d="M68.09,25.84a3.53,3.53,0,0,1,0,.92H64.37l-.05-.92Z"/></svg>