<svg id="Layer_1" data-name="Layer 1" xmlns="http://www.w3.org/2000/svg" viewBox="0 0 128 128"><defs><style>.cls-1{fill:#fefefe;}.cls-2{fill:#fbfcfd;}.cls-3{fill:#e7f0f7;}.cls-4{fill:#d7e5f2;}.cls-5{fill:#ecf3f9;}.cls-6{fill:#f3f7fb;}.cls-7{fill:#4d8cc9;}.cls-8{fill:#488ac6;}.cls-9{fill:#78b1e6;}.cls-10{fill:#86b3dd;}.cls-11{fill:#83b3e1;}.cls-12{fill:#d7e6f3;}.cls-13{fill:#e4edf7;}.cls-14{fill:#a6c5e4;}.cls-15{fill:#c0d6ed;}.cls-16{fill:#9cbfe1;}.cls-17{fill:#c6daee;}.cls-18{fill:#a3c4e4;}.cls-19{fill:#8eb5dc;}.cls-20{fill:#81acd8;}.cls-21{fill:#7cabd9;}.cls-22{fill:#cedff0;}.cls-23{fill:#c3d7ed;}.cls-24{fill:#cfdff0;}.cls-25{fill:#bed5ec;}.cls-26{fill:#83b4e3;}.cls-27{fill:#94c8f9;}.cls-28{fill:#619ad0;}.cls-29{fill:#659cd0;}.cls-30{fill:#7cacdc;}.cls-31{fill:#7fb0df;}.cls-32{fill:#7baad9;}.cls-33{fill:#d8e5f2;}.cls-34{fill:#e3ecf7;}.cls-35{fill:#7ba9d6;}.cls-36{fill:#c3d9ed;}.cls-37{fill:#b8d1e9;}.cls-38{fill:#8cb7e0;}.cls-39{fill:#cddfef;}.cls-40{fill:#cfe0f0;}.cls-41{fill:#95cafa;}.cls-42{fill:#4e8cca;}.cls-43{fill:#c4d8ed;}.cls-44{fill:#71a4d5;}.cls-45{fill:#72a3d3;}.cls-46{fill:#acc9e5;}.cls-47{fill:#6da1d2;}.cls-48{fill:#73aadd;}.cls-49{fill:#78a9da;}.cls-50{fill:#6ca0d2;}.cls-51{fill:#7ab2e5;}.cls-52{fill:#7cb4e8;}.cls-53{fill:#daedfc;}.cls-54{fill:#629bd0;}.cls-55{fill:#7eb3e4;}.cls-56{fill:#83b5e5;}.cls-57{fill:#6aa3d8;}.cls-58{fill:#7dacda;}.cls-59{fill:#4788c6;}.cls-60{fill:#7bb3e8;}.cls-61{fill:#508dc7;}.cls-62{fill:#4e8cc8;}.cls-63{fill:#77addf;}.cls-64{fill:#6ea1d2;}.cls-65{fill:#6ca4d8;}.cls-66{fill:#5d99d2;}.cls-67{fill:#73a7da;}.cls-68{fill:#639ed6;}.cls-69{fill:#629ad1;}.cls-70{fill:#96cafb;}.cls-71{fill:#b5cfe8;}.cls-72{fill:#8ac0f2;}.cls-73{fill:#86bcef;}.cls-74{fill:#639cd1;}.cls-75{fill:#85bcef;}.cls-76{fill:#80b6ea;}.cls-77{fill:#7aabdb;}.cls-78{fill:#9ec1e1;}.cls-79{fill:#7cb3e8;}.cls-80{fill:#649dd2;}.cls-81{fill:#6ca3d7;}.cls-82{fill:#90b9df;}.cls-83{fill:#74ade1;}.cls-84{fill:#5d98d0;}.cls-85{fill:#6da5d8;}.cls-86{fill:#6198ce;}.cls-87{fill:#83bbee;}.cls-88{fill:#518fcb;}.cls-89{fill:#518ec9;}.cls-90{fill:#699ed0;}.cls-91{fill:#5491cc;}.cls-92{fill:#5894cd;}.cls-93{fill:#78aee0;}.cls-94{fill:#87bdef;}.cls-95{fill:#72a6d8;}.cls-96{fill:#72a6d9;}.cls-97{fill:#a0d0fc;}.cls-98{fill:#7cb3e6;}.cls-99{fill:#5a94cd;}.cls-100{fill:#4688c5;}.cls-101{fill:#85bdef;}.cls-102{fill:#dceffd;}.cls-103{fill:#97cbfc;}.cls-104{fill:#d9edfc;}.cls-105{fill:#b7d5ef;}.cls-106{fill:#def0fe;}.cls-107{fill:#d3e7fb;}.cls-108{fill:#9ccefc;}</style></defs><path class="cls-1" d="M.07,90C.07,61.1.11,32.24,0,3.37,0,.72.39,0,3.26,0,22.17.17,41.09.09,60,.09a2.65,2.65,0,0,1,.83,1.83,6.1,6.1,0,0,1-.19,1.35,10.85,10.85,0,0,1-3.59,5.52,13.46,13.46,0,0,1-2.83,2.76A5.93,5.93,0,0,1,53,12c-1.75.28-3,1.48-4.29,2.5a8.48,8.48,0,0,1-1.65,1.07,5.44,5.44,0,0,1-1.3.35,15.28,15.28,0,0,1-2,0,41.64,41.64,0,0,1-10.48,3.07,29,29,0,0,1-5.82.35c-3-.23-5.85-.25-5.09,4.15.9,3.55,2.82,6,6.78,6.2.51,0,1,0,1.51,0A5.77,5.77,0,0,1,34.41,31a4.39,4.39,0,0,1,.72,1.51,56.3,56.3,0,0,1-.07,12.58c-.74,2.27-2.74,3.86-3.37,6.2a5,5,0,0,1-4.23,3c-3.45-.36-6.29,4.12-10.06,1.3-2.06,0-4.83-1.51-5,2.43.54,4.39,3.06,7.7,7.66,8.44,4.33.71,5.5,3,5.3,6.85-.15,3,.31,6-.4,8.93-.59,1.77-2.19,2.75-3.24,4.16-2.69,3.73-6.93,5.12-10.74,7.18a3.16,3.16,0,0,1-2.12-.21c-2-2.65-5.08-1.79-7.67-2.52A5.91,5.91,0,0,1,.07,90Z"/><path class="cls-1" d="M68,.09c19,0,38,.05,56.94-.07,2.5,0,3.07.57,3.06,3.06-.1,30.3-.07,60.59-.07,90.89-2.35-.1-3.48-4.58-6.62-1.85a6.74,6.74,0,0,1-1.54,1.38,3.8,3.8,0,0,1-2.83.09c-3.66-2.35-8.35-3.18-10.82-7.3-1.17-1.72-2.73-3.2-3.22-5.32-.35-4.18-.8-8.35.34-12.48,1.31-2.1,3.72-1.46,5.56-2.24,2.58-2.22,6.58-3.15,6.88-7.47a8.68,8.68,0,0,0-.32-3.17,2.49,2.49,0,0,0-3.8-.9c-3.36,3-6.37,1-9.51-.15-7.53-3.54-11.36-14-7.93-21.39,1.12-2.41,3.45-2.19,5.4-2.81,2.31-2,5.57-3.16,6.11-6.77.52-4.05-2-4.44-5-4.18a28.67,28.67,0,0,1-6-.34c-4.74-.13-8.55-3.36-13.15-3.9a7.62,7.62,0,0,1-1.32-.37c-1.62-.64-2.75-2.08-4.38-2.71a12.42,12.42,0,0,1-1.18-.52A11.22,11.22,0,0,1,71,8.79,10.61,10.61,0,0,1,67.36,3.3a5.29,5.29,0,0,1-.21-1.37A2.71,2.71,0,0,1,68,.09Z"/><path class="cls-2" d="M127.93,96c0,9.82-.08,19.65.07,29.46,0,2.15-.4,2.68-2.57,2.57-4.15-.23-8.32-.07-12.48-.07a2.62,2.62,0,0,1-.51-1.62c.28-5.32.06-10.64.15-16,0-2.15-.16-4.36,1.36-6.18a3.83,3.83,0,0,1,1.3-1c2.74-.92,6.07,0,8.26-2.66C126.23,100.22,125,96.06,127.93,96Z"/><path class="cls-1" d="M15.06,127.92c-4.17,0-8.34-.16-12.49.07-2.16.11-2.6-.42-2.56-2.57.16-8.48.06-17,.06-25.46,2.09-.65,3.49,1,5.23,1.54.31.12.6.28.92.37,9.2,2.65,9.19,2.65,9.21,12.57,0,4-.12,7.92.15,11.88A2.64,2.64,0,0,1,15.06,127.92Z"/><path class="cls-3" d="M15.06,127.92c0-.3,0-.61-.05-.91,1.69-1.86,4-1.47,6.08-1.47q42.9-.08,85.81,0c2.11,0,4.39-.39,6.09,1.46,0,.31,0,.61,0,.92Z"/><path class="cls-4" d="M127.93,96c-1.86,1.26.21,5.58-3.94,5.06a2.24,2.24,0,0,1-.73-1.15c-.32-1.71,1.24-2.88,1.27-4.48.56-3.58-3-2.85-4.47-4.24,4-2.81,6.41-1.38,7.87,2.82Z"/><path class="cls-5" d="M68,.09l-.09,2.14A4.55,4.55,0,0,1,66.62,3a11.59,11.59,0,0,1-5.24,0,4.58,4.58,0,0,1-1.29-.78L60,.09Z"/><path class="cls-6" d="M4.07,102c-1.74.15-2.62-1.42-4-2V90l1.05,0a6,6,0,0,1,.79,1.19c.47,3.22.45,6.57,2.43,9.41A1.74,1.74,0,0,1,4.07,102Z"/><path class="cls-7" d="M34.13,32a6.49,6.49,0,0,1-.25-.89,2.55,2.55,0,0,1,3.3-.29c2.06,3,.91,6.32,1.23,9.51.21,2-.67,4.33,1.56,5.8,7.28,1.1,14.58.32,21.86.46s14.6.07,21.9,0c5.17,0,5.65-.62,5.87-5.67.13-3.26-.76-6.65,1-9.76A2,2,0,0,1,93.2,31c1.42,6.25.81,12.55.47,18.85a5.19,5.19,0,0,1-4,2.55c-17,.46-34,.23-51,.16A7.92,7.92,0,0,1,35,51.44a4,4,0,0,1-1.15-2.52A58.14,58.14,0,0,0,34.13,32Z"/><path class="cls-8" d="M37,31l-3.11.08L30.05,31c-1.06-2.78.85-3.53,2.87-4.07a17.14,17.14,0,0,1,4.47-.27q26.65,0,53.32,0c2.44,0,5.06-.44,7,1.71.88,1.35.35,2.18-1,2.71a8.27,8.27,0,0,1-2.35.64A2.52,2.52,0,0,1,93,31H91a8.22,8.22,0,0,1-1.64,1c-11.93,1.18-23.9.42-35.85.48-5,0-10,.71-14.91-.47A7.16,7.16,0,0,1,37,31Z"/><path class="cls-9" d="M98,30c-1-2.11-2.85-2-4.69-2H34.86c-2.19,0-4.52-.21-4.81,2.93l-1,.14c-.44-.56-1.18-.76-1.59-1.36a7.75,7.75,0,0,1-1-3.48c.53-2.53,2-3.48,4.52-2.67a6,6,0,0,1,1.18,1c.87,1,2,1,3.21,1,18.46,0,36.92,0,55.39,0,.58,0,1.41.2,1.42-.85C91.5,23.57,90.43,22.54,91,21a3.6,3.6,0,0,1,2-1A16.4,16.4,0,0,1,96,19.8a7.22,7.22,0,0,1,3.6.76,1.1,1.1,0,0,1,.1,1.75c-2,1.49.56,1.5.79,2.27a4.77,4.77,0,0,1,1.79,3C101.36,29.23,100.59,31.24,98,30Z"/><path class="cls-10" d="M24,83c0-3.82-.07-7.65.07-11.47.09-2.5-.78-3.38-3.37-3.68C14.41,67.09,11,63,11.16,57A.92.92,0,0,1,12.34,57,5,5,0,0,1,13.11,58a11.94,11.94,0,0,0,4.49,5.23A13.72,13.72,0,0,0,20.55,65c1.84.84,4.25.61,5.36,2.82a62.88,62.88,0,0,1-.09,18.58,1.9,1.9,0,0,1-2.2,1C21.47,85.71,23.6,84.41,24,83Z"/><path class="cls-11" d="M46.9,15,48,14c2.09-.27,3-2.52,5.06-2.91a5.78,5.78,0,0,0,.92-.19.9.9,0,0,1,1.18,0,8.81,8.81,0,0,0,1.13,4.76c-1,2.09-2.34,3.52-4.91,2.91-1.28-.77-2-2.31-3.55-2.71A2.53,2.53,0,0,1,46.9,15Z"/><path class="cls-12" d="M11,92.86c2.77-3.14,7.49-3.45,10-6.91a2.49,2.49,0,0,1,.83,1.28c.35,2.14-.76,3.44-2.52,4.36a8.25,8.25,0,0,1-1.41.59C15.63,92.54,13.57,95.39,11,92.86Z"/><path class="cls-13" d="M17.88,54.13c1.28.84,2.3,2.42,4.15.59a6.12,6.12,0,0,1,5-1.66,2.07,2.07,0,0,1,.44,1.59C25.34,59,22,59,18.1,57.26A2.35,2.35,0,0,1,17.88,54.13Z"/><path class="cls-14" d="M28.05,30c.32.37.65.74,1,1.12-4.46-.32-6.59-3.28-8-7.06a1.25,1.25,0,0,1,1.15-.42,7.63,7.63,0,0,1,3.52,2.77A10.45,10.45,0,0,1,28.05,30Z"/><path class="cls-15" d="M27.07,18,34,17.9l.32.71c-1.12,3-3.44,3.61-6.29,3.19a2.33,2.33,0,0,1-1.62-2.41A2.52,2.52,0,0,1,27.07,18Z"/><path class="cls-16" d="M34.13,32c2,5.58.49,11.32.83,17a.85.85,0,0,1-1.29-.15A2.68,2.68,0,0,1,34,46Z"/><path class="cls-17" d="M34,17.9,44,15.11c1.24,1.88-.34,2.53-1.48,3.38a6.43,6.43,0,0,1-1.37.51,16.32,16.32,0,0,1-5.83,0,2.76,2.76,0,0,1-1.23-.78Z"/><path class="cls-18" d="M11,92.86c2.84,1.19,4.42-2.3,7-1.91,1,3.53-1.88,3.49-3.91,4.22-2.23,0-4.68.74-6.24-1.72a.83.83,0,0,1,1.27-.6Z"/><path class="cls-19" d="M17.88,54.13l.2,2.81-.56.32c-1.81-.4-3.61-1-5.48-.25h-.88C11.44,51.5,15.51,54.8,17.88,54.13Z"/><path class="cls-20" d="M27.07,18,27,19.09c-2.21,1.15-3.63,3.07-5,5-.32,0-.63-.05-.95-.06C20,19.05,22,17,27.07,18Z"/><path class="cls-21" d="M46.9,15l1.19.13a4.71,4.71,0,0,1,.32,2.49,2.26,2.26,0,0,1-.62,1.09c-1.22.86-2.35,2-4,1.67-.94-.51-2.21-.77-1.72-2.33l0,0c1.89-.17,2.66-1.92,4-2.83A3.05,3.05,0,0,1,46.9,15Z"/><path class="cls-17" d="M34,46l.09,3.07c.44,1.82-.65,2.34-2.14,2.53a1.55,1.55,0,0,1-1.06-.71C30.86,48.58,32.14,47.1,34,46Z"/><path class="cls-22" d="M9.16,92.85,8.07,93c-1.94-.31-3.83-.87-5.77-1.16a5.5,5.5,0,0,1-1.11-.74c0-.35-.05-.71-.07-1.06C4,90.49,7.84,88.05,9.16,92.85Z"/><path class="cls-23" d="M21.14,87.11c0-.39-.07-.77-.11-1.16.07-1.92,1.78-2.21,3-3a5.41,5.41,0,0,1-1.05,4A1.28,1.28,0,0,1,21.14,87.11Z"/><path class="cls-5" d="M56,8.1c1.91-1.21,2.83-3.21,4-5,1.41,1.45,1.29,3.07.53,4.76a2.73,2.73,0,0,1-1.35,1A3.15,3.15,0,0,1,56,8.1Z"/><path class="cls-24" d="M56,8.1l2.93,0c-.08,2.6-1.25,3.83-3.94,3.16L54,10.93Z"/><path class="cls-25" d="M53,11.11C51.47,12.29,50.61,14.68,48,14,49.53,12.81,50.48,10.56,53,11.11Z"/><path class="cls-26" d="M46,15.18c-.78,1.73-1.67,3.32-4,2.83.72-.94,2.16-1.37,2.05-2.9Z"/><path class="cls-27" d="M59.86,7.88,60,3.08a4.89,4.89,0,0,0,.08-.85,4,4,0,0,1,1,0A4.48,4.48,0,0,1,61.79,7C61.34,7.74,60.93,8.56,59.86,7.88Z"/><path class="cls-17" d="M27.12,54.15c0-.36,0-.73,0-1.09,1.82.24,2.85-.88,3.78-2.19l.29.26C32.13,55.23,30.2,55.46,27.12,54.15Z"/><path class="cls-28" d="M120.06,91.15c3.81-.66,6.91-.44,5.94,4.81-.53.63-1.38,1.06-1.77,1.67-1.72,2.69-3.47,3.93-6.13,1.05-.54-.58-1.57-.38-2.38-.53a7.28,7.28,0,0,1-2.23-.67c-.93-.67-2.06-1.29-1.46-2.71A3,3,0,0,1,115.26,93c1.56.08,3.13,1.18,4.66-.11Z"/><path class="cls-29" d="M102,27.11A3.59,3.59,0,0,1,100,25c-.48-.94-1.64-1.65-1-3l1-1c-.68-1.36.22-2.13,1.09-2.91,4.88-.95,6.89.94,5.83,5.87C105.45,25.38,104.31,27.18,102,27.11Z"/><path class="cls-4" d="M94.1,31.16,95.9,31A6.32,6.32,0,0,1,101,31c-1.47,2.21-6.23-.76-6.14,4.46C94.94,43,94.34,50.44,103,54l-.64.6a4.82,4.82,0,0,1-3.44.35c-3.94-1.6-5.88-4.39-5.5-8.76C93.9,41.18,92.76,36.12,94.1,31.16Z"/><path class="cls-30" d="M119.92,92.89c-1.34,1.89-3.35.91-5.06,1.1-2.71.31-2.63,1.35-.92,3a3.08,3.08,0,0,1-3.34.74c-1.49-.57-1.94-2.37-3.47-2.91a15,15,0,0,1-4-3.08,2.35,2.35,0,0,1-.55-1.13,1.65,1.65,0,0,1,.55-1.11c1.11-.63,2-1.57,3.32-1.88a1.36,1.36,0,0,1,1.07.65c2.63,2.59,6.41,2.89,9.43,4.71Z"/><path class="cls-31" d="M106.84,88h-.92c-.87,1-2.13,1-3.26,1.34a2.28,2.28,0,0,1-2.15-1.83,3.41,3.41,0,0,1,.27-1.55c1.58-4,.54-8.07.83-12.1.14-2.09-.26-4.25.64-6.27a1.53,1.53,0,0,1,1.33-.84.89.89,0,0,1,.47,1.33L104,82c.66,1.87,1.37,3.71,3.14,4.88A.8.8,0,0,1,106.84,88Z"/><path class="cls-32" d="M116.85,59c.26,4.87-4.53,5.42-6.89,8.05-1.17.73-2.44.36-3.67.35-1.14-1.08-.12-1.62.55-2.24a16.58,16.58,0,0,0,4.33-3c1.06-1.72,2.22-3.34,4.46-3.59A1.53,1.53,0,0,1,116.85,59Z"/><path class="cls-16" d="M101,31,95.9,31A2.26,2.26,0,0,1,98,30c2-.08,2.66-2,4-2.92,1.4-1.39,2.67-3,4.88-3.11C107,28.15,102.52,28.35,101,31Z"/><path class="cls-33" d="M106.84,88a4,4,0,0,0,.07-.91.69.69,0,0,1-.21-.78c.1-.24.2-.36.29-.36,2.25,3.85,7.47,3.49,10,7C113.11,92.24,108.87,92.36,106.84,88Z"/><path class="cls-34" d="M103,54c2.87.74,5.54,1.91,8.45-.69.93-.82,4.54-1.7,5.45,1.74-2.63.48-5.48.35-7.43,2.72a6.8,6.8,0,0,1-5.33-.15,2.94,2.94,0,0,1-1.29-3.54Z"/><path class="cls-35" d="M109.87,56.91c1.32-4.5,4.29-2.84,7.07-1.88l-.09,4H116c-1.9-.6-3.92-.49-5.85-.92a.88.88,0,0,1-.36-.75C109.76,57.05,109.8,56.91,109.87,56.91Z"/><path class="cls-36" d="M80,14c5.29-.93,9,3.71,14,3.89l-.37.54a4.07,4.07,0,0,1-1.21.52,11.84,11.84,0,0,1-2,.19,19.84,19.84,0,0,1-3.27-.12A6,6,0,0,1,86,18.73c-1.57-.6-2.66-2-4.3-2.55a4.05,4.05,0,0,1-1.63-1A1.1,1.1,0,0,1,80,14Z"/><path class="cls-37" d="M101,18.13,99.94,21H96c-.87-.81-3.3-.41-2.15-2.78l.19-.34Z"/><path class="cls-38" d="M80,14a6.91,6.91,0,0,0,0,.91l-.41.54a3.61,3.61,0,0,1-2.65.4c-1.64-.39-2.54-1.73-3.63-2.84a3.6,3.6,0,0,1-.71-1.13,1.57,1.57,0,0,1,.46-1.2A2,2,0,0,1,75,11c.32,0,.63.08,1,.1C77.37,12,78.11,13.83,80,14Z"/><path class="cls-5" d="M68,3.08c1.15,1.81,2.07,3.81,4,5a3.77,3.77,0,0,1-2.32,1.55,3,3,0,0,1-1.44-.26A3.2,3.2,0,0,1,67,7.49C66.75,5.89,66.66,4.32,68,3.08Z"/><path class="cls-39" d="M107,85.93c0,.38-.06.76-.08,1.14-3.09-.48-3.15-2.71-2.94-5.09C105,83.28,106.74,84,107,85.93Z"/><path class="cls-40" d="M70,8.87l2-.78L75,11l-2,.14C70.84,11.85,69.69,11.29,70,8.87Z"/><path class="cls-41" d="M105.89,66.92l4.07.14c-1.75,1.66-3.95.62-5.91,1L104,67A1.34,1.34,0,0,1,105.89,66.92Z"/><path class="cls-27" d="M68,3.08V8a1,1,0,0,1-1.45-.25,4.6,4.6,0,0,1,.4-5.51,3.52,3.52,0,0,1,1,0A6,6,0,0,0,68,3.08Z"/><path class="cls-36" d="M80,14c-2.45.59-3.22-1.2-4.06-2.88C78,11.16,78.68,13,80,14Z"/><path class="cls-42" d="M115.9,103.92c-.31,0-.61.12-.92.19a3,3,0,0,1-1.38.33,18.55,18.55,0,0,1-4.59,0c-28.26-.12-56.51,0-84.76,0-5,0-5.76.77-5.77,5.82,0,14-1.18,12.3,12.21,12.29,5.13,0,10.29.44,15.4-.34,3.17-2.55.69-6.35,2.06-9.29a2.69,2.69,0,0,1,.94-1.22c2.59-.49,2.28,1.33,2.3,2.88.48,2.64-1.46,5.73,1.53,7.88,7.49.08,15,.57,22.42-.29,2.34-2.15,1-4.94,1.3-7.46,0-1.48-.46-3.35,2.13-3.06a2.4,2.4,0,0,1,1,1.14c1.38,3-.84,6.69,1.94,9.38,6.91,1,13.85.19,20.76.43a32.68,32.68,0,0,1,5.93.34c1.45.49,3,.86,3.79,2.39a1.17,1.17,0,0,1-1.25,1.12c-31.48,0-63,.08-94.44,0-2-1.16-1.34-3.18-1.44-4.9-.31-5.42.51-10.88-.46-16.29-.91-1.83-3.36-1.3-4.42-2.91-.56-1.67.72-2,1.8-2.33A16.1,16.1,0,0,1,17,99.56q46.58,0,93.16,0c2.52,0,5.43-.82,7.21,2A2,2,0,0,1,115.9,103.92Z"/><path class="cls-36" d="M11.08,102.88A6.23,6.23,0,0,1,14.76,104c1.78,3.75.35,7.72.76,11.56.37,3.41-.59,6.9.55,10.27l95.87,0c-.5-5.08-.34-10.17-.38-15.26.69-2.3-2.31-5.88,2.35-6.81l1.07.28c-2,5.48-.42,11.17-1,16.73-.19,2.07.75,4.35-1,6.16H15c-2.33-4.86-.9-10-.94-15s.09-9-6.67-8.22A3.83,3.83,0,0,1,4.07,102c0-.34,0-.68,0-1a2.76,2.76,0,0,1,1.23-.78C8,99.49,9.11,102.09,11.08,102.88Z"/><path class="cls-43" d="M115.9,103.92l1-1a9.45,9.45,0,0,1,7-2.92c0,.35,0,.7,0,1.06C122.41,105.11,118.88,103.74,115.9,103.92Z"/><path class="cls-44" d="M123.94,100c-2.62.32-4.07,3.43-7,2.92-.38-2.52-2.38-1.89-3.91-1.9q-49.66,0-99.33,0c-1,0-3.55-1.24-2.58,1.86-2.5.89-3.5-2.47-5.84-2a1,1,0,0,1-.13-1.42c2-2.21,3.94-4.84,7.45-2.29,1.28,1.92,3.26,1.33,5,1.32q46.59,0,93.19,0c1.71,0,4.08,1.3,5.16-1.42a5.49,5.49,0,0,1,1.46,0c4.87,1.23,4.86,1.24,8.62-1Z"/><path class="cls-45" d="M66.94,2.28l.18,5.77c-2-.46-3.84-2.09-6.11-1,0-1.61,0-3.21.05-4.82A11.71,11.71,0,0,1,66.94,2.28Z"/><path class="cls-46" d="M5.22,99.91a4,4,0,0,0,0,.92l-1.12.1c-4-2.39-3-6.28-2.93-9.87l1.07.07C3.22,94.06,5.17,96.67,5.22,99.91Z"/><path class="cls-41" d="M38,51.05H90c3.27,1.08,4.52,4.91,7.91,5.84a7,7,0,0,1,1.22.55,11.78,11.78,0,0,0,4.84,2.36,7,7,0,0,1,1.49.46A2.73,2.73,0,0,1,107,62.17c-.79,2.64-3.08,2.17-4.93,2.18q-38.07.15-76.14,0c-1.84,0-4.66.85-4.77-2.65a3.36,3.36,0,0,1,2.69-1.79c2.33-.13,4.69-.18,6.37-2.21a17.79,17.79,0,0,0,4.17-4C35.31,52.4,36.81,51.92,38,51.05Z"/><path class="cls-47" d="M89.84,31.14,91,31c0,4.14-.22,8.29.07,12.41.27,3.83-1.29,4.75-4.89,4.72C70.15,48,54.09,48.06,38,48a1.1,1.1,0,0,1,.43-1.58c2.81-1.43,5.84-1,8.8-1,11.27,0,22.55,0,33.83,0,7.22-.06,7.19-.13,7.34-7.17C88.49,35.83,88.07,33.26,89.84,31.14Z"/><path class="cls-48" d="M35,54a6.24,6.24,0,0,1-4,4c-1.83.9-3.33,2.55-5.6,2.45A16.69,16.69,0,0,0,23,59.4c-1.57-.31-3.25,0-4.7-1a1,1,0,0,1-.38-.78c0-.31.05-.47.12-.47l.07-.25c3.41.34,6.87.87,9-2.79,2.08,0,4.14-.08,4-3a3.57,3.57,0,0,0,2.91-2.08L35,49c0,.65.06,1.3.1,2A2.29,2.29,0,0,1,35,54Z"/><path class="cls-49" d="M94.1,31.16c-.08,5.15-.23,10.3-.23,15.45,0,4.07,3,5.82,6.08,7.42.14.18.27.37.41.56a1.89,1.89,0,0,1-.82,1.08,5.11,5.11,0,0,1-3.44.66c-1.73-1.79-5-2.82-3.16-6.4Q93,40.5,93,31Z"/><path class="cls-50" d="M38.05,47c0,.35,0,.71,0,1.06-2.3-5.55-.46-11.35-1-17l1.18.11A19.39,19.39,0,0,1,38.05,47Z"/><path class="cls-51" d="M92.94,49.93c-.25,3.07,1.8,4.64,4,6.09.9.38,1.54.89,1,2-4.31-.44-5.44-4.53-8-7Z"/><path class="cls-52" d="M35,54c0-1,0-2,0-3.06l3,.11A6.27,6.27,0,0,1,35,54Z"/><path class="cls-53" d="M38.05,47l.12-15.84H89.84c.07,4,0,7.93.25,11.89.15,2.9-.76,4.16-3.9,4.13C70.14,47,54.09,47,38.05,47Z"/><path class="cls-27" d="M51,18c2.53.48,3.57-1.6,5-2.93,2.42-3.1,5-5.93,9.53-4.79,2.21.75,3.35,3.27,5.86,3.53,2.66,0,3.93,3,6.58,3a7.33,7.33,0,0,1,2,.59c1.47.92,2.58,2.49,4.57,2.47a12.82,12.82,0,0,1,1.94.3,8.75,8.75,0,0,1,1.23.38c2.2.49,3.49,2.38,5.3,3.48l3.42,1.68C96.09,27.62,94.63,27,93.67,27q-29.94.08-59.89-.05c-.93,0-3.83,1.53-2.74-1.9a74,74,0,0,1,9.61-4.66A7,7,0,0,1,42,20.12c2.53.94,4.4-.17,6-2l0-.06A2.12,2.12,0,0,1,51,18Z"/><path class="cls-54" d="M22,24.13c-.32-3.65,1.1-5.58,5-5,.13.78.23,1.57,1.07,2,.79,1.18,4.44-.49,3,3-2.15-.07-3.83.47-4,3a1.4,1.4,0,0,1-2,0Z"/><path class="cls-55" d="M31,24c.18-2.18-2.32-1.65-3-3a7.1,7.1,0,0,0,6.07-2.83l1,.11c1.51,1.92,4.38.9,5.92,2.75-3.26,1.52-5.93,4.52-10,4Z"/><path class="cls-56" d="M93,24.08l-6-3a2.79,2.79,0,0,1,3.48-.56l.54.54Z"/><path class="cls-57" d="M99,22.07l1,3c-1.12-.8-2.91-.73-3.3-2.5Z"/><path class="cls-56" d="M93.86,18.26C94,19.67,95.37,20.06,96,21l-3,0a1.88,1.88,0,0,1,0-2.75A3.56,3.56,0,0,1,93.86,18.26Z"/><path class="cls-55" d="M25,27.08l2,0c1.17.7,1,1.87,1,3C27.05,29,26.05,28.05,25,27.08Z"/><path class="cls-58" d="M92.94,18.31c0,.92,0,1.83,0,2.75l-2,0v0a2.33,2.33,0,0,1,0-2.79Z"/><path class="cls-59" d="M103,67c0,5.12-.07,10.24,0,15.37,0,1.85.16,3.7-1.94,4.66-1.47,1.36-3.31,1.37-5.14,1.36-22.69,0-45.39.21-68.09-.11A3.89,3.89,0,0,1,25.12,87q0-9.93-.1-19.87c-1-.86-1.71-1.76-.05-2.63,1.23-.63,2.6-.43,3.92-.43Q64,64,99,64a8.52,8.52,0,0,1,3.92.41C104.62,65.24,104.11,66.12,103,67Z"/><path class="cls-60" d="M22.06,61c-.89,3.51,2,1.9,3,1.92C35.71,63.07,46.36,63,57,63c15.31,0,30.61,0,45.92-.08,1,0,3.9,1.62,3-1.91,1.75-1.34,3.13-.79,4.29.85a1.67,1.67,0,0,1-.4,1.61c-1.36,1.5-3.12,1.64-5,1.48-1.93-.74-3.94-.47-5.91-.47-22.23,0-44.45,0-66.67,0-4.48,0-8.89.14-13.18,1.53l-2.14-2c-.74-1.17-.16-2,.69-2.78C19.08,60.24,20.54,59.68,22.06,61Z"/><path class="cls-61" d="M19.08,66c1.84-2.26,4.4-1.93,6.87-1.93l80,0c.51.84,2.63,0,2.06,2l-2.07.92L104,67l-1,0c.69-4-2.47-1.84-3.55-1.85C82.09,65,64.79,65,47.48,65c-6.66,0-13.31,0-20,0-1.27,0-3.43-.76-2.49,2Z"/><path class="cls-62" d="M18,62c-.34.66-.69,1.32-1,2A8.66,8.66,0,0,1,12.09,58c2-3.21,4-1.37,5.95,0l5.85.05c1.21,1.84.11,2.29-1.47,2.38S19,60.15,18,62Z"/><path class="cls-63" d="M25.12,87,27,87c.4,2.17-1.7,3-2.39,4.65-.88,1.12-1.78,2.23-3.48,1.77a4.86,4.86,0,0,1-2.3-2.51c1.26-1,2.44-2,2.27-3.77L23,86.94Z"/><path class="cls-64" d="M18,58c-2-.37-4-1.66-5.95,0,0-.34,0-.69-.05-1,2.1-3.63,4-1.27,6,.18C18,57.48,18,57.76,18,58Z"/><path class="cls-65" d="M66,11.11c-4.43-1.48-6.43,3.17-10,4-3.81-.4-2.22-2.17-1-3.86,1.9-.31,2.64-2.08,3.94-3.16.3,0,.6-.1.9-.17L61,7.09c3-5.48,4.32-1,6.11,1H68l1,1.11a1.62,1.62,0,0,1,0,2.2A2.69,2.69,0,0,1,66,11.11Z"/><path class="cls-66" d="M51,18,48,18.06a2.33,2.33,0,0,1,.07-2.92C50.25,14.9,51.27,15.78,51,18Z"/><path class="cls-67" d="M18.87,90.88c1.31.1,2.15.69,2.19,2.1a1.24,1.24,0,0,1,.08,1.37c-1.92,2.33-3.94,4.44-7.4,3.35-2.12-1.42.16-2.48.31-3.72,1.8-.39,3.71-.64,4-3A7.74,7.74,0,0,1,18.87,90.88Z"/><path class="cls-68" d="M41.05,21.09c-2-.85-5.71,2-5.92-2.75L42,18.06l2,2c-.47.72-1.5.33-2,1C41.7,21.06,41.38,21.07,41.05,21.09Z"/><path class="cls-69" d="M14.05,94c1.15,1.48-.4,2.08-1,3a.66.66,0,0,1-1,0c-3.26-1.3-4.21,2.81-6.87,2.92-1.94-2.61-4.17-5.12-3-8.78C4.42,91,6.78,90.28,8.07,93,9.8,94.84,12.07,93.59,14.05,94Z"/><path class="cls-26" d="M42,21.06a2.13,2.13,0,0,1,2-1c1.4-.53,2.26-2.18,4-1.93C47.47,22,44.42,20.86,42,21.06Z"/><path class="cls-70" d="M12.09,97c.32,0,.65,0,1,0,3.5,1.22,5.19-2.35,8-3,2.49-.39,3.29-2.66,4.71-4.26,1.74-2.32,4.23-2.23,6.77-2.23q32.91,0,65.82,0c2.41,0,3.38,1.92,4.62,3.48h0c1,1,1.6,2.43,3.15,2.8,1.24,1.11,2.83,1.81,3.87,3.17l4,0,2,0,2.18,1.48c-1.43,1.73-3.41,1.47-5.28,1.47Q63.9,100,15,99.86C13.7,99.86,9.26,101.68,12.09,97Z"/><path class="cls-71" d="M100,55A7.45,7.45,0,0,0,100,54l2.94,0c.4.94.79,1.89,1.19,2.84a2,2,0,0,1-1.22.8C101,57.75,100,56.87,100,55Z"/><path class="cls-72" d="M110,96.94c-2,0-3.13-1.38-4-3a.6.6,0,0,1,1,0C109.16,93.76,110.17,94.75,110,96.94Z"/><path class="cls-73" d="M107,94l-1,0a2.82,2.82,0,0,1-3-3C104.89,91.18,105.68,92.9,107,94Z"/><path class="cls-74" d="M103,89c.71-1.15,1.86-1,3-1,0,2.05-1.47,2-2.91,2-.28-.21-.38-.42-.3-.64S102.88,89,103,89Z"/><path class="cls-75" d="M103,89l0,1c0,.34,0,.68,0,1a6.33,6.33,0,0,1-3-3c.33-.44.67-.42,1,0Z"/><path class="cls-76" d="M101,88h-1c-22,0-43.92.07-65.88-.08-3.52,0-6.51.58-9,3.07a.61.61,0,0,1-1,0c.52-1.68,1.83-2.79,3-4L101,87C101,87.32,101,87.64,101,88Z"/><path class="cls-62" d="M110,63c0-.33,0-.65-.06-1a22.09,22.09,0,0,1-1.34-2.11,2.05,2.05,0,0,1,.7-1.69l.59-.26c2.24-.89,4.5-1.9,6,1.07a10,10,0,0,0-4,4A1.31,1.31,0,0,1,110,63Z"/><path class="cls-77" d="M110,63l1.92.07-4,3-2-2A7.32,7.32,0,0,0,110,63Z"/><path class="cls-78" d="M102.93,57l1.15-.14h5.79l0,1L110,58a6.32,6.32,0,0,1-6.64.51A1.1,1.1,0,0,1,102.93,57Z"/><path class="cls-79" d="M85,21.05c-2.5.4-4.22-.5-5-3-.14-.95-.63-1.91,0-2.87l.1-.27L82,15.1c1.29.57,1.51,2.07,2.52,2.88C85.09,18.94,85.66,19.89,85,21.05Z"/><path class="cls-80" d="M91,18.27a2.24,2.24,0,0,1,0,2.79l-4,0L87,21a2,2,0,0,1,0-2.88Z"/><path class="cls-81" d="M87,18.15V21l-2,0L84,18.1A1.44,1.44,0,0,1,86,18,2.9,2.9,0,0,1,87,18.15Z"/><path class="cls-82" d="M86,18l-2,.09-2-3C84,15.16,84.64,17.08,86,18Z"/><path class="cls-83" d="M78,18c-3.21,1.06-4-3.61-7-3a.81.81,0,0,1-.34-.7c0-.27.06-.41.13-.41.81-1,2.38-.8,3.2-1.85l3,3C77.77,15.94,78.7,16.71,78,18Z"/><path class="cls-84" d="M78,18l-1-2.91,2.92.1c.43.95,1.55,1.9,0,2.87Z"/><path class="cls-85" d="M74,12.1c-.1,2-1.56,2-3,2-1.94.06-1.51-1.08-1.11-2.19a3.09,3.09,0,0,1,3.17.15A7.3,7.3,0,0,1,74,12.1Z"/><path class="cls-45" d="M73.05,12l-3,0a1.18,1.18,0,0,1-1-1c0-.64,0-1.28,0-1.92l1-.28a3,3,0,0,0,3,2.31C73,11.47,73,11.76,73.05,12Z"/><path class="cls-86" d="M48.07,122.92c-1.13,1.4-2.72,1-4.17,1-7.48,0-15-.15-22.44.08-3.6.12-4.68-1.23-4.47-4.63a69.14,69.14,0,0,0,0-11c-.42-4.38,1.07-5.66,5.52-5.63,27.44.21,54.87.09,82.3.15,2.07,0,4.36-.83,6.17,1,1.73,5.79.75,11.72.94,17.6-.23,1.68-.56,3.24-2.89,2.49-8,0-15.94,0-23.91-.1-1.75,0-3.7.63-5.16-1-1.26-3.58.43-7.41-1-11h0a258.32,258.32,0,0,1-30,0h0C47.63,115.51,49.32,119.34,48.07,122.92Z"/><path class="cls-87" d="M77,122.91c-4,2-8.36.67-12.55.9-4.43.26-8.88.08-13.33.08-1.2-2.51-.46-5.15-.47-7.74.28-.2.79-.41.83-.32,2.79,6.1,8.27,4.52,13.15,4.65,1.31,0,2.63,0,3.95,0,3,.14,5.61-.17,6.68-3.61a1.39,1.39,0,0,1,2-.91C77.49,118.3,77.84,120.63,77,122.91Z"/><path class="cls-88" d="M49,111.94c4.71-2.12,9.68-.9,14.49-.87,5.15,0,10.44-1.34,15.48.87-1.77,0-1.51.91-1,2-.45.54-.75,1.26-1.61,1.29a6.85,6.85,0,0,1-2.12-.69,192.76,192.76,0,0,0-21.23,0,4.48,4.48,0,0,1-1.59.13,3.2,3.2,0,0,1-1.42-.72C50.53,112.85,50.79,111.89,49,111.94Z"/><path class="cls-89" d="M111,121.93q0-9,0-18c1-.25,1.91-1.55,3-.12-3.2,1.58-.26,4.14-1,6.12-1.12,3.82-.14,7.75-.59,11.6A.88.88,0,0,1,111,121.93Z"/><path class="cls-86" d="M16.07,125.87c-2.29-2.93-.83-6.31-1.07-9.47-.3-4.1-.18-8.23-.24-12.36,2.24,1.38,1.2,3.6,1.24,5.43C16.15,114.93,16.06,120.4,16.07,125.87Z"/><path class="cls-90" d="M112,121.93c.51-4-1.06-8.13,1-12-.33,5.31,1.38,10.76-1,16,0-.33,0-.65,0-1A2.38,2.38,0,0,1,112,121.93Z"/><path class="cls-91" d="M79,111.94c2.07,3.51.48,7.34,1,11C77.9,119.41,79.48,115.59,79,111.94Z"/><path class="cls-91" d="M48.07,122.92c.46-3.64-1.12-7.47,1-11C48.52,115.59,50.1,119.41,48.07,122.92Z"/><path class="cls-91" d="M50,113.94h1a1.37,1.37,0,0,1,0,2c0,2.65,0,5.3.07,8C48.82,120.8,50.54,117.24,50,113.94Z"/><path class="cls-91" d="M77,114.91l1-1c-.43,3,1,6.16-1,9,0-2.32,0-4.65-.08-7-.28-.25-.36-.48-.25-.71S76.9,114.91,77,114.91Z"/><path class="cls-62" d="M112,121.93c0,1,0,2,0,3-1.06-.05-2.2.19-2.94-.89a2,2,0,0,0,2-2.11Z"/><path class="cls-92" d="M103,58h7l-1,2c-1.54,1.1-3.46-.09-5,.84a7.68,7.68,0,0,0-.83,0A1.79,1.79,0,0,1,103,58Z"/><path class="cls-93" d="M103,58c.05.93.09,1.86.14,2.79-1.7-.46-3.32-1-4.16-2.8a3.31,3.31,0,0,1,1-3L100,55c1,.65,1.36,2.17,2.89,2.06Z"/><path class="cls-94" d="M25.06,60c2.2-.06,3.54-2.65,6-2-1.2,2.62-3.36,3.3-6,3-.27-.23-.35-.44-.25-.65S25,60,25.06,60Z"/><path class="cls-95" d="M25.06,60c0,.31,0,.63,0,1l-3,0A7.54,7.54,0,0,0,18,62c.27-2,1.78-1.94,3.26-2,1.31,0,2.68,0,2.65-1.91C24.85,58.39,25,59.18,25.06,60Z"/><path class="cls-96" d="M100,55c0,1.11.17,2.28-1,3-.33,0-.66,0-1,0l-1-2C97.67,54.85,98.84,55,100,55Z"/><path class="cls-77" d="M103.93,60.86c1.48-1.43,3.34-.61,5-.84a2,2,0,0,1,1,2,6.57,6.57,0,0,0-4-1Z"/><path class="cls-97" d="M80.94,39.63c.15,2.4-.31,4.31-3.58,4.47-3.62.17-3.49-2.1-3.37-4.51s-.73-5.49,3.15-5.38C80.32,34.3,81.06,36.7,80.94,39.63Z"/><path class="cls-97" d="M54,39.58c.15,2.47.21,4.67-3.38,4.51C47.35,44,47,42,47,39.44c0-2.76.66-5.15,3.83-5.23C54.76,34.11,53.84,37.28,54,39.58Z"/><path class="cls-98" d="M69,11.07l1,1a2,2,0,0,0,1,2c0,.33,0,.65,0,1-2.56-.2-3.71-2.18-5-4Z"/><path class="cls-47" d="M27,84c0-4.26.09-8.52-.11-12.77-.14-3.11.83-4.54,4.15-4.32s6.55,0,9.83,0a66.68,66.68,0,0,1,16.22,0H70.87a75.22,75.22,0,0,1,17.23,0L100,67a1.1,1.1,0,0,1-.41,1.59c-2,1.11-4.21.8-6.35.82-18.12.13-36.24.08-54.35.16-9.11,0-9.11,0-9.27,8.9,0,.83,0,1.66-.13,2.49a6.15,6.15,0,0,1-.83,2.63A1.14,1.14,0,0,1,27,84Z"/><path class="cls-99" d="M27,84l1.12-.07c1.31-1.26,3-1.31,4.65-1.31,21.5,0,43-.1,64.52,0a7.64,7.64,0,0,1,2,.32A6,6,0,0,1,101,84a2.07,2.07,0,0,1-2,1,70.19,70.19,0,0,1-18,0H78a167.34,167.34,0,0,1-28,0H46a74.81,74.81,0,0,1-19,0C27.05,84.63,27.05,84.31,27,84Z"/><path class="cls-100" d="M50,85H78c-3.18,2-6.72,1-10,.88C62,85.66,55.89,87.19,50,85Z"/><path class="cls-100" d="M27.05,85l19,0A37.86,37.86,0,0,1,27.05,85Z"/><path class="cls-100" d="M81,85H99A33.63,33.63,0,0,1,81,85Z"/><path class="cls-47" d="M101,84l-1.11-.07a4.79,4.79,0,0,1-1.13-2.48C99,76.93,97.37,72.26,100,68c0-.33,0-.67,0-1C102.3,72.53,100.49,78.32,101,84Z"/><path class="cls-47" d="M88.1,66.92H70.87A34.9,34.9,0,0,1,88.1,66.92Z"/><path class="cls-47" d="M57.13,66.92H40.91A30.78,30.78,0,0,1,57.13,66.92Z"/><path class="cls-101" d="M24.05,91h1c-.16,2.59-1.85,3.1-4,3,0-.33,0-.65,0-1C22.6,93.12,23,91.58,24.05,91Z"/><path class="cls-102" d="M64.09,103.83c13.79,0,27.58.1,41.37-.07,3.47,0,4.88,1,4.5,4.52-.51,4.73,2,10.8-1.12,13.89-2.93,2.85-8.88.66-13.49.85-3.48.14-7-.11-10.46.07-3,.16-4-.93-4.1-4-.21-9.18-.33-9.18-9.4-9.18-6.48,0-13,.18-19.44-.06-3.75-.14-4.88,1.3-4.88,4.93,0,8.26-.14,8.26-8.61,8.26-5.49,0-11-.13-16.45,0-3.07.11-3.92-1-4-4-.43-15.25-.51-15.24,14.68-15.24Z"/><path class="cls-103" d="M77,114.91l-.06,1c-.39,5.9-4.08,6.67-9,6.07A31.8,31.8,0,0,0,60,122c-4.89.61-8.59-.17-9-6.06,0-.67,0-1.33,0-2a5,5,0,0,1,.95,0c8,.11,16,0,24,.08Z"/><path class="cls-87" d="M76,114a59.9,59.9,0,0,1-24-.08A61.58,61.58,0,0,1,76,114Z"/><path class="cls-104" d="M100,68V82a1.37,1.37,0,0,1-1.47-.52c-1.28-2.12-1-4.5-1-6.79,0-2.89-1.21-4.3-4.17-4.23-4.14.1-8.3-.33-12.4.58-7,.73-7.4.93-6.25,8.37.47,3-.6,3.54-3,3.56-5.16,0-10.31,0-15.46,0-2.4,0-3.93-.61-2.94-3.54a13.74,13.74,0,0,0,.25-5c-.06-1.7-.83-2.91-2.68-2.94a3,3,0,0,0-3.36,2.93,8,8,0,0,0,.81,4.84c1.44,2.73.12,3.65-2.45,3.65-5.48,0-11,.22-16.45-.13A4.75,4.75,0,0,1,28,82c-.28-14.1-.28-14.11,13.69-14.1Q70.84,67.92,100,68Z"/><path class="cls-105" d="M28,82h1c6.44,1.06,12.94.76,19.35.24,3.37-.28,6.58.3,9.85.37,13.29.28,26.52-2,39.82-.83L99,82h1c0,.64-.08,1.28-.13,1.92H28.16C28.11,83.27,28.07,82.63,28,82Z"/><path class="cls-106" d="M81,70c5.26-2.09,10.72-.66,16.09-.88,1.77-.07,1.87,1.56,1.88,2.93,0,3.31,0,6.62,0,9.93h0c-5.59,1.08-11.24.19-16.86.47-1.6.09-2.93-.55-2.29-2.22C81.11,76.88,79.61,73.29,81,70Z"/><path class="cls-107" d="M81,70a14.53,14.53,0,0,1-.68,12H99c-1.13,1.4-2.72,1-4.16,1Q64,83,33.19,83c-1.44,0-3,.41-4.17-1H48.26c-2.44-3.82-3.65-7.72-.75-11.18C49,69,53,69.14,53.91,70.54c2.28,3.29,1.27,7.39.25,11.3h19.6c-1.05-3.61-1.72-7.59-.2-10.76C74.73,68.67,78.43,70.35,81,70Z"/><path class="cls-108" d="M54,75.56c-.19,1.84.75,4.36-2.81,4.48-3.8.12-3.16-2.47-3.2-4.72s-.36-4.41,3.06-4.38S53.93,73.33,54,75.56Z"/><path class="cls-108" d="M74,75.45c.17-1.9-.71-4.41,2.83-4.5,3.81-.11,3.14,2.5,3.18,4.74s.32,4.39-3.08,4.35S74.09,77.61,74,75.45Z"/></svg>