<!-- Generated by IcoMoon.io -->
<svg version="1.1" xmlns="http://www.w3.org/2000/svg" width="33" height="32" viewBox="0 0 33 32">
<title>business-icon</title>
<path fill="#5390cb" d="M32.991 8.657v3.971c-0.751 0.32-0.906-0.286-1.143-0.743-0.371-1.914-0.371-1.926-2.36-1.926q-12.969 0-25.931 0c-2 0-2 0-2.363 1.92-0.231 0.48-0.394 1.069-1.143 0.749v-4.254c0.397-0.329 0.857-0.12 1.283-0.134 9.943-0.091 19.883-0.037 29.823-0.034 0.617 0.114 1.309-0.046 1.834 0.451z"></path>
<path fill="#fbfcfd" d="M32.991 13.48c0 5.577-0.066 11.143 0.046 16.731 0.029 1.46-0.286 2.023-1.749 1.714-0.112-0.134-0.208-0.288-0.281-0.453l-0.005-0.012c-0.286-3.491-0.091-6.986-0.12-10.48 0-2.026-0.151-4.060 0.106-6.083 0.494-0.72 0.697-1.857 2.003-1.417z"></path>
<path fill="#fbfcfd" d="M1.749 31.914c-1.454 0.32-1.774-0.243-1.746-1.714 0.109-5.577 0.043-11.143 0.043-16.731 1.303-0.443 1.497 0.691 2 1.394 0.269 1.869 0.126 3.746 0.111 5.614-0.029 3.651 0.174 7.309-0.117 10.96-0.078 0.183-0.176 0.34-0.294 0.48l0.002-0.003z"></path>
<path fill="#f8fbfd" d="M0.046 7.809v-7.657h3.123c0.101 0.112 0.166 0.257 0.177 0.418l0 0.002c-0.517 1.197-0.203 2.52-0.526 3.749-0.385 0.537-0.715 1.154-0.959 1.811l-0.018 0.055c-0.38 0.286-0.534 0.726-0.734 1.143s-0.477 0.834-1.063 0.48z"></path>
<path fill="#fcfcfd" d="M29.869 0.151c1.040 0 2.489-0.406 3.009 0.114s0.114 1.966 0.114 3.006v3.686c-0.609 0.409-0.766-0.286-1.143-0.463-0.293-0.176-0.538-0.399-0.732-0.662l-0.005-0.007c-0.194-0.589-0.637-1.037-0.923-1.574-0.311-1.143 0.060-2.366-0.506-3.463-0.006-0.037-0.010-0.081-0.010-0.125 0-0.197 0.074-0.377 0.197-0.513l-0.001 0.001z"></path>
<path fill="#d0e2f0" d="M1.749 31.914l0.020-0.314c0.517-0.451 1.143-0.369 1.76-0.369q12.989 0 25.98 0c0.609 0 1.246-0.083 1.76 0.371l0.020 0.311z"></path>
<path fill="#d0e2f0" d="M29.869 0.151v0.571c-0.489 0.246-1.011 0.069-1.52 0.12q-11.914 0-23.829 0c-0.457-0.020-0.926 0-1.3-0.329l-0.051-0.363z"></path>
<path fill="#7eb0de" d="M1.714 14.654c-0.786-0.066-0.78-1.249-1.663-1.174v-0.857c0.449 0.051 0.571-0.38 0.837-0.571 0.777 0.626 2.020 0.883 1.82 2.286-0.2 0.207-0.481 0.336-0.791 0.336-0.072 0-0.142-0.007-0.21-0.020l0.007 0.001z"></path>
<path fill="#7eb0de" d="M32.991 13.48c-0.88-0.069-0.877 1.111-1.666 1.174-0.058 0.011-0.126 0.017-0.195 0.017-0.311 0-0.591-0.127-0.794-0.331l-0-0c-0.209-1.406 1.037-1.663 1.82-2.286 0.286 0.2 0.389 0.629 0.834 0.571z"></path>
<path fill="#7dabd8" d="M31.306 5.791l0.769 0.36c0.32 0.543 0.286 1.286 0.917 1.657v0.857l-1.74-0.031c-0.223-0.24 0.657-0.286 0.077-0.697-0.506-0.371-0.537-1.143-0.68-1.771 0.111-0.225 0.338-0.377 0.601-0.377 0.020 0 0.039 0.001 0.058 0.003l-0.003-0z"></path>
<path fill="#82b0db" d="M0.046 7.809c0.453-0.012 0.816-0.382 0.816-0.837 0-0.029-0.001-0.058-0.004-0.087l0 0.004c0-0.571 0.254-0.857 0.837-0.797 0.089-0.078 0.205-0.125 0.333-0.125 0.087 0 0.169 0.022 0.241 0.061l-0.003-0.001c0.157 1.16-0.343 2-1.317 2.571l-0.903-0.223z"></path>
<path fill="#cbdeef" d="M32.991 7.809c-1.323 0-0.68-1.066-0.917-1.657 0.449 0.103 0.286 0.906 0.917 0.806z"></path>
<path fill="#ddeffd" d="M0.966 8.594l1.397-2.469c-0.166-1.163 0.506-1.629 1.517-1.797 0.197-0.026 0.425-0.041 0.656-0.041 0.071 0 0.141 0.001 0.211 0.004l-0.010-0q11.786 0 23.571 0c1.854 0 2.246 0.331 2.377 1.826 0.903 0.386 0.286 1.689 1.231 2.049l-0.66 0.457z"></path>
<path fill="#b4dbfc" d="M32.157 12.051c-0.214 1.034-1.646 1.143-1.751 2.251-0.351 0.411-0.797 0.366-1.257 0.251-0.776-0.522-1.437-1.143-1.986-1.855l-0.014-0.020c-0.286-0.626-0.383-1.714-1.349-0.494-0.466 0.946-1.231 1.631-2 2.329-0.224 0.105-0.487 0.166-0.764 0.166-0.26 0-0.507-0.054-0.731-0.15l0.012 0.005c-0.857-0.811-1.686-1.657-2.12-2.789-0.537-0.286-0.763 0.080-0.971 0.471-0.446 0.946-1.217 1.609-1.963 2.3-0.219 0.098-0.474 0.154-0.743 0.154s-0.524-0.057-0.755-0.159l0.012 0.005c-0.771-0.68-1.543-1.357-2-2.314-0.211-0.403-0.446-0.751-0.98-0.469-0.429 1.143-1.254 1.951-2.083 2.771-0.219 0.098-0.474 0.154-0.743 0.154s-0.524-0.057-0.755-0.159l0.012 0.005c-0.78-0.683-1.546-1.38-2-2.334-0.94-1.254-1.071-0.174-1.349 0.469-0.564 0.734-1.225 1.358-1.971 1.867l-0.029 0.019c-0.463 0.123-0.911 0.169-1.269-0.249-0.109-1.114-1.534-1.211-1.749-2.249 0.014-2.551 0.014-2.551 2.529-2.551h26.214c2.531 0.023 2.531 0.020 2.551 2.574z"></path>
<path fill="#5b94cc" d="M2.631 14.3l1.391 0.026c0.654 0.523 0.194 0.857-0.206 1.18-0.857 0.417-0.766 1.223-0.769 1.966-0.026 4.34 0.023 8.677-0.023 13.011 0.197 0.663 0.763 0.454 1.189 0.454q12.334 0 24.663 0c0.429 0 0.997 0.203 1.143-0.494-0.049-4.331 0-8.66-0.031-12.986 0-0.746 0.086-1.543-0.783-1.951-0.4-0.34-0.857-0.674-0.191-1.186l1.389-0.017c0.337 0.043 0.706 0 0.92 0.351q-0.026 8.474-0.057 16.949h-29.497l-0.054-16.949c0.211-0.354 0.571-0.311 0.917-0.354z"></path>
<path fill="#679ed2" d="M3.22 0.503l1.080-0.026c0.403 0.354 0.897 0.237 1.357 0.237q10.857 0 21.714 0c0.463 0 0.954 0.117 1.36-0.234 0.423-0.14 0.769 0.094 1.143 0.234 1.060 1.086 0.474 2.443 0.609 3.683-0.617 0.374-1.291 0.129-1.931 0.131-8.44 0.037-16.88-0.020-25.32 0.043-0.031 0.004-0.067 0.006-0.104 0.006-0.209 0-0.402-0.067-0.559-0.182l0.003 0.002c0.037-1.329-0.334-2.723 0.649-3.894z"></path>
<path fill="#73a7d6" d="M2.571 4.397h27.914c0.686 0.223 0.917 0.714 0.829 1.394-0.119 0.199-0.333 0.33-0.578 0.33-0.017 0-0.033-0.001-0.050-0.002l0.002 0c-0.331-1.203-1.143-1.486-2.334-1.48q-11.829 0.066-23.651 0c-1.189 0-2 0.286-2.331 1.486l-0.657-0.034c-0.057-0.731-0.023-1.426 0.857-1.694z"></path>
<path fill="#5793cc" d="M28.737 0.48c0.037 0.18 0.506 0.286 0.163 0.503-0.163 0.111-0.46 0.023-0.694 0.023-7.791 0-15.583 0-23.374-0.031-0.12 0-1.169 0.497-0.531-0.497z"></path>
<path fill="#84b3df" d="M17.369 14.309c0.149-1.063 1.346-1.349 1.68-2.271 1.143 0.894 1.014-0.446 1.429-0.817 0.034 1.326 1.429 1.903 1.714 3.083 0.123 0.131 0.198 0.307 0.198 0.501 0 0.131-0.034 0.254-0.095 0.36l0.002-0.004c-0.894 0.603-1.329-0.169-1.871-0.617-0.449-0.857-0.909-0.677-1.377 0-0.554 0.34-0.906 1.257-1.8 0.626-0.056-0.101-0.088-0.221-0.088-0.349 0-0.199 0.080-0.38 0.209-0.511l-0 0z"></path>
<path fill="#85b4e0" d="M10.837 14.303c0.020-0.183-0.029-0.463 0.071-0.531 0.914-0.623 1.349-1.537 1.64-2.551 0.426 0.371 0.286 1.714 1.429 0.814 0.329 0.926 1.526 1.211 1.677 2.269 0.123 0.13 0.199 0.306 0.199 0.5 0 0.124-0.031 0.242-0.086 0.344l0.002-0.004c-0.889 0.654-1.251-0.254-1.803-0.606-0.451-0.651-0.909-0.88-1.374 0-0.543 0.449-0.98 1.22-1.871 0.631-0.058-0.102-0.092-0.224-0.092-0.355 0-0.199 0.080-0.38 0.209-0.511l-0 0z"></path>
<path fill="#83b2de" d="M29.017 14.32c-0.085 0.119-0.136 0.268-0.136 0.429s0.051 0.309 0.138 0.431l-0.002-0.002c-0.883 0.631-1.337 0-1.809-0.606-0.494-0.977-1.026-0.829-1.574-0.046-0.546 0.411-0.94 1.251-1.84 0.643-0.061-0.103-0.096-0.227-0.096-0.36 0-0.193 0.076-0.368 0.2-0.498l-0 0c0.149-1.060 1.369-1.337 1.677-2.286 0.5 0.446 1.12 0.534 1.751 0.571 0.617 0.546 1.38 0.909 1.691 1.723z"></path>
<path fill="#83b2de" d="M4.017 15.166c0.083-0.117 0.133-0.263 0.133-0.42s-0.050-0.303-0.134-0.422l0.002 0.002c0.309-0.817 1.069-1.194 1.686-1.714 0.631-0.049 1.251-0.137 1.751-0.571 0.311 0.94 1.529 1.217 1.677 2.286 0.124 0.13 0.2 0.306 0.2 0.5 0 0.131-0.035 0.254-0.096 0.361l0.002-0.004c-0.894 0.614-1.294-0.214-1.837-0.626-0.571-0.857-1.106-0.894-1.629 0.040-0.457 0.546-0.886 1.214-1.754 0.569z"></path>
<path fill="#619bd2" d="M27.329 12.617c-0.763 0.34-1.56 0.78-1.751-0.571-0.046-0.809 0.454-0.917 1.089-0.837 0.971 0.106 0.531 0.891 0.663 1.409z"></path>
<path fill="#619ad1" d="M7.46 12.031c-0.191 1.369-0.989 0.92-1.751 0.571 0.131-0.514-0.306-1.3 0.666-1.429 0.631-0.060 1.129 0.051 1.086 0.857z"></path>
<path fill="#5f99d0" d="M20.489 11.22c0 0.234 0 0.466 0 0.697 0 0.471 0.049 0.951-0.649 0.991s-0.774-0.36-0.794-0.857c-0.011-1.16 0.806-0.837 1.443-0.831z"></path>
<path fill="#5f99d0" d="M14 12.034c-0.023 0.511-0.131 0.914-0.794 0.877s-0.651-0.523-0.654-0.994c0-0.231 0-0.463 0-0.697 0.637-0.009 1.449-0.323 1.449 0.814z"></path>
<path fill="#629ad0" d="M9.143 15.166c0-0.286 0-0.571 0-0.857h1.7c0 0.286 0 0.571 0 0.857-0.213 0.227-0.515 0.369-0.85 0.369s-0.637-0.142-0.849-0.369l-0.001-0.001z"></path>
<path fill="#619ad0" d="M15.671 15.163c0-0.286 0-0.571 0-0.857h1.7c0 0.286 0 0.571 0 0.857-0.213 0.227-0.515 0.369-0.85 0.369s-0.637-0.142-0.849-0.369l-0.001-0.001z"></path>
<path fill="#619ad0" d="M23.9 14.309v0.857c-0.213 0.224-0.514 0.364-0.847 0.364s-0.634-0.139-0.847-0.363l-0-0.001c0-0.286 0-0.571 0-0.857z"></path>
<path fill="#fefefe" d="M22.206 15.163h1.694c0.857 0.317 0.963-0.906 1.714-0.837 0.571-0.426 1.12-0.454 1.671 0.023 0.614 0.206 0.857 1.174 1.746 0.817 1.143-0.117 1.469 0.386 1.449 1.534-0.080 4.686-0.049 9.374-0.060 14.063-1.614 0.526-3.237 0.38-4.857 0.077-0.446-0.571-0.329-1.26-0.331-1.911 0-3.306 0-6.611 0-9.92 0-1.666-0.051-1.714-1.634-1.714-4.731 0-9.46 0.023-14.191-0.023-1.171 0-1.58 0.391-1.563 1.563 0.051 3.351 0.026 6.706 0 10.060 0 0.651 0.111 1.331-0.306 1.923-1.634 0.369-3.266 0.454-4.891-0.046 0-4.689 0.023-9.377-0.060-14.063-0.020-1.143 0.286-1.649 1.449-1.537 0.906 0.423 1.066-0.74 1.737-0.817 0.216-0.212 0.513-0.344 0.841-0.344 0.316 0 0.603 0.122 0.817 0.321l-0.001-0.001c0.746-0.077 0.857 1.157 1.714 0.834h1.691c0.814 0.206 1.017-0.76 1.669-0.857 0.189-0.161 0.436-0.259 0.706-0.259 0.29 0 0.553 0.113 0.748 0.297l-0.001-0.001c0.809-0.214 0.857 1.143 1.714 0.826h1.694c0.857 0.323 0.909-1.031 1.714-0.831 0.192-0.181 0.452-0.291 0.737-0.291 0.273 0 0.523 0.102 0.713 0.27l-0.001-0.001c0.654 0.086 0.866 1.051 1.677 0.846z"></path>
<path fill="#4a8ac7" d="M2.629 30.766h4.771c0.326-0.423 0.166-0.914 0.169-1.369 0.014-3.714 0.031-7.451 0-11.177 0-0.886 0.177-1.234 1.166-1.223q7.791 0.071 15.586 0c0.986 0 1.177 0.334 1.166 1.223-0.040 3.714-0.023 7.451 0 11.177 0 0.454-0.154 0.946 0.169 1.366h4.771c0.226 0.091 0.703 0.143 0.286 0.471-0.246 0.191-0.723 0.106-1.097 0.106h-26.171c-0.374 0-0.857 0.086-1.097-0.106-0.42-0.323 0.057-0.377 0.283-0.469z"></path>
<path fill="#b4dbfc" d="M16.377 3.574c-3.871 0-7.746 0-11.617 0-0.774 0-1.351 0-1.351-1.083s0.483-1.223 1.383-1.22q11.689 0.034 23.374 0c0.877 0 1.429 0.157 1.454 1.217 0.049 1.243-0.734 1.071-1.486 1.071z"></path>
<path fill="#dae6f3" d="M20.526 14.309l-1.449 0.023c0-0.437 0.023-0.826 0.634-0.857s0.834 0.271 0.814 0.834z"></path>
<path fill="#d9e6f3" d="M13.954 14.337l-1.454-0.037c0-0.571 0.209-0.843 0.823-0.814s0.626 0.417 0.631 0.851z"></path>
<path fill="#d6e4f2" d="M27.274 14.351l-1.671-0.023c-0.057-0.68 0.286-0.857 0.92-0.857s0.8 0.334 0.751 0.88z"></path>
<path fill="#d5e3f2" d="M7.429 14.331l-1.674 0.017c-0.043-0.543 0.114-0.857 0.754-0.874s0.983 0.174 0.92 0.857z"></path>
<path fill="#5692cb" d="M25.637 30.771c-0.517-0.391-0.306-0.954-0.309-1.446-0.017-3.586-0.037-7.174 0-10.76 0-0.983-0.163-1.429-1.303-1.429q-7.511 0.086-15.031 0c-1.143 0-1.317 0.44-1.303 1.429 0.046 3.586 0.026 7.174 0 10.76 0 0.491 0.209 1.054-0.309 1.449 0.046-4.203 0.080-8.409 0.046-12.611 0-1.080 0.326-1.351 1.369-1.34q7.737 0.071 15.469 0c1.043 0 1.386 0.26 1.371 1.34-0.063 4.203-0.011 8.409 0 12.609z"></path>
<path fill="#b5dcfd" d="M24.746 17.777c0 3.86-0.029 7.714 0.026 11.583 0 1.063-0.217 1.537-1.4 1.46-0.697-0.043-1.512-0.067-2.333-0.067s-1.636 0.024-2.444 0.073l0.111-0.005c-1.037 0.051-1.394-0.254-1.374-1.334 0.066-3.909 0.037-7.817 0.043-11.714 1.099-0.133 2.371-0.208 3.661-0.208 1.308 0 2.597 0.078 3.864 0.229l-0.153-0.015z"></path>
<path fill="#b5dcfd" d="M15.663 17.754c0 3.909-0.023 7.817 0.046 11.714 0.017 1.080-0.34 1.386-1.377 1.334-0.697-0.043-1.512-0.067-2.333-0.067s-1.636 0.024-2.444 0.073l0.111-0.005c-1.18 0.077-1.414-0.4-1.4-1.463 0.054-3.86 0.023-7.714 0.026-11.583 1.11-0.134 2.395-0.21 3.698-0.21 1.294 0 2.571 0.075 3.826 0.222l-0.152-0.015z"></path>
<path fill="#5692cb" d="M15.663 17.754l-7.377 0.020c0.38-0.529 0.949-0.343 1.429-0.311 1.983 0.137 4-0.383 5.949 0.291z"></path>
<path fill="#5692cb" d="M24.746 17.777l-7.371-0.023c1.617-0.691 3.309-0.191 4.963-0.286 0.789-0.040 1.68-0.357 2.409 0.309z"></path>
</svg>
