<!-- Generated by IcoMoon.io -->
<svg version="1.1" xmlns="http://www.w3.org/2000/svg" width="85" height="32" viewBox="0 0 85 32">
<title>odigo-logo</title>
<path fill="#fff" d="M84.086 12.475c-0.379-1.207-0.905-2.298-1.645-3.25-0.74-0.953-1.645-1.641-2.715-2.158-0.282-0.16-0.61-0.299-0.954-0.402l-0.034-0.009s-0.115-0.066-0.222-0.066c-0.050 0-0.107 0-0.165-0.057-0.041 0-0.098 0-0.098-0.058l-0.781-0.164c-0.576-0.098-1.317-0.148-2.173-0.098-1.267 0.057-2.386 0.328-3.373 0.788-1.073 0.538-1.977 1.262-2.704 2.137l-0.011 0.014c-0.74 0.952-1.267 1.994-1.645 3.259-0.361 1.197-0.526 2.56-0.526 3.923 0 1.419 0.165 2.733 0.535 3.939 0.391 1.224 0.951 2.287 1.665 3.227l-0.019-0.026c0.525 0.62 1.12 1.156 1.78 1.605l0.031 0.020c0.313 0.214 0.576 0.37 0.904 0.526h0.041s0.050 0 0.050 0.049c0.066 0 0.066 0.058 0.116 0.058 0.535 0.262 1.119 0.41 1.752 0.524 1.852 0.361 3.439 0.107 3.439 0.107 0.847-0.107 1.645-0.37 2.387-0.69 1.093-0.526 2.013-1.251 2.745-2.137l0.011-0.013c0.74-0.887 1.267-1.994 1.645-3.2 0.361-1.208 0.526-2.521 0.526-3.94 0-1.412-0.214-2.725-0.535-3.94l-0.025 0.033zM71.686 13.624c0.215-0.821 0.478-1.617 0.847-2.248 0.371-0.625 0.847-1.149 1.374-1.51 0.514-0.36 1.152-0.575 1.84-0.575 0.004 0 0.008 0 0.013 0h-0.001c0.692 0 1.275 0.148 1.81 0.517 0.526 0.361 0.947 0.821 1.317 1.412 0.37 0.632 0.641 1.313 0.846 2.15 0.223 0.836 0.33 1.683 0.33 2.626v0.312c0 0.943-0.107 1.888-0.264 2.725-0.214 0.845-0.477 1.575-0.846 2.216-0.357 0.589-0.82 1.077-1.368 1.45l-0.016 0.010c-0.526 0.37-1.152 0.525-1.851 0.525-0.692 0-1.316-0.165-1.851-0.526-0.567-0.385-1.031-0.879-1.372-1.455l-0.011-0.021c-0.378-0.625-0.641-1.354-0.855-2.2-0.206-0.837-0.264-1.782-0.264-2.725 0.058-0.902 0.165-1.837 0.33-2.676l-0.009-0.008zM58.020 28.898l2.057-2.356v-8.774l4.36-2.248 0.099 0.902v11.851l-3.34 3.726h-3.176l-0.214-2.889 0.214-0.213z"></path>
<path fill="#fff" d="M64.475 11.828c-0.382-1.193-0.914-2.273-1.662-3.214s-1.662-1.624-2.743-2.135c-0.285-0.158-0.616-0.296-0.963-0.398l-0.035-0.009s-0.117-0.065-0.224-0.065c-0.051 0-0.1 0-0.166-0.057-0.041 0-0.1 0-0.1-0.057l-0.79-0.162c-0.582-0.097-1.33-0.146-2.195-0.097-1.28 0.057-2.41 0.324-3.407 0.779-1.082 0.53-1.995 1.246-2.734 2.115l-0.010 0.012c-0.748 0.941-1.28 1.973-1.662 3.223-0.366 1.185-0.524 2.533-0.524 3.881 0 1.404 0.166 2.702 0.533 3.896 0.382 1.193 0.972 2.273 1.662 3.166 0.532 0.611 1.133 1.142 1.797 1.587l0.032 0.021c0.316 0.211 0.582 0.365 0.915 0.519h0.041s0.058 0 0.058 0.049c0.051 0 0.051 0.058 0.108 0.058 0.532 0.259 1.122 0.406 1.762 0.519 1.87 0.357 3.475 0.105 3.475 0.105 0.857-0.105 1.662-0.365 2.41-0.681 1.104-0.516 2.033-1.234 2.775-2.114l0.010-0.012c0.748-0.877 1.28-1.974 1.662-3.167 0.366-1.193 0.533-2.492 0.533-3.897 0-1.396-0.166-2.694-0.54-3.896l-0.018 0.032zM52.006 12.964c0.209-0.811 0.475-1.6 0.849-2.225 0.374-0.616 0.857-1.135 1.397-1.494 0.514-0.356 1.151-0.568 1.837-0.568 0.011 0 0.023 0 0.034 0h-0.002c0.699 0 1.289 0.146 1.829 0.511 0.523 0.357 0.956 0.812 1.331 1.397 0.374 0.625 0.64 1.299 0.856 2.126 0.211 0.77 0.332 1.654 0.332 2.567 0 0.011-0 0.022-0 0.033v-0.002 0.309c0 0.933-0.117 1.866-0.283 2.694-0.207 0.836-0.482 1.559-0.857 2.193-0.355 0.583-0.817 1.066-1.363 1.435l-0.016 0.010c-0.532 0.364-1.18 0.519-1.87 0.519-0.706 0-1.346-0.162-1.887-0.519-0.567-0.382-1.032-0.871-1.377-1.441l-0.011-0.020c-0.374-0.617-0.64-1.34-0.856-2.176-0.217-0.828-0.266-1.761-0.266-2.694 0.059-0.894 0.117-1.819 0.332-2.647l-0.008-0.008zM40.22 5.715h4.488v20.092h-4.488v-20.092zM31.242 3.101l2.078 2.29v8.727l4.406 2.273 0.099-0.666v-11.991l-3.441-3.685-3.2-0.049-0.217 2.906 0.275 0.196z"></path>
<path fill="#fff" d="M37.144 12.745c-0.378-1.217-0.905-2.317-1.645-3.278-0.741-0.96-1.646-1.655-2.716-2.177-0.283-0.161-0.61-0.301-0.954-0.404l-0.034-0.009s-0.116-0.067-0.222-0.067c-0.050 0-0.107 0-0.165-0.058-0.050 0-0.099 0-0.099-0.058l-0.79-0.165c-0.459-0.077-0.987-0.121-1.526-0.121-0.225 0-0.448 0.008-0.669 0.023l0.030-0.002c-1.268 0.059-2.387 0.331-3.374 0.795-1.074 0.544-1.979 1.274-2.704 2.155l-0.011 0.014c-0.741 0.96-1.268 2.012-1.646 3.287-0.361 1.208-0.526 2.583-0.526 3.957 0 1.432 0.165 2.756 0.535 3.973 0.387 1.234 0.948 2.307 1.666 3.254l-0.019-0.026c0.525 0.626 1.12 1.167 1.781 1.62l0.030 0.019c0.313 0.216 0.947 0.53 0.947 0.53s0.050 0 0.050 0.050c0.065 0 0.065 0.058 0.115 0.058 0.536 0.265 1.112 0.414 1.754 0.531 1.852 0.364 3.439 0.107 3.439 0.107 0.849-0.107 1.646-0.372 2.388-0.696 1.094-0.531 2.014-1.262 2.745-2.154l0.011-0.014c0.741-0.895 1.269-2.013 1.646-3.229 0.362-1.217 0.519-2.541 0.519-3.974 0-1.422-0.206-2.747-0.526-3.972l-0.026 0.033zM24.741 13.905c0.214-0.828 0.477-1.631 0.847-2.269 0.371-0.63 0.847-1.158 1.375-1.523 0.513-0.363 1.152-0.58 1.842-0.58 0.003 0 0.007 0 0.010 0h-0.001c0.692 0 1.275 0.15 1.811 0.522 0.526 0.364 0.947 0.828 1.316 1.423 0.372 0.637 0.634 1.324 0.849 2.168 0.222 0.845 0.329 1.698 0.329 2.65v0.315c0 0.952-0.107 1.903-0.264 2.748-0.214 0.853-0.477 1.59-0.846 2.235-0.356 0.594-0.819 1.086-1.368 1.464l-0.016 0.010c-0.526 0.372-1.153 0.53-1.852 0.53-0.692 0-1.317-0.165-1.852-0.53-0.568-0.39-1.032-0.888-1.372-1.469l-0.012-0.022c-0.379-0.63-0.642-1.366-0.857-2.218-0.204-0.844-0.262-1.796-0.262-2.748 0.058-0.91 0.165-1.855 0.329-2.698l-0.008-0.008zM17.054 12.745c-0.379-1.217-0.905-2.317-1.646-3.278-0.741-0.96-1.646-1.655-2.716-2.177-0.283-0.161-0.61-0.301-0.954-0.404l-0.034-0.009s-0.116-0.067-0.222-0.067c-0.050 0-0.099 0-0.165-0.058-0.041 0-0.098 0-0.098-0.058l-0.782-0.165c-0.46-0.077-0.99-0.121-1.53-0.121-0.226 0-0.45 0.008-0.673 0.023l0.030-0.002c-1.268 0.059-2.387 0.331-3.374 0.795-1.074 0.544-1.978 1.274-2.704 2.155l-0.011 0.014c-0.741 0.96-1.268 2.012-1.646 3.287-0.361 1.208-0.526 2.583-0.526 3.957 0 1.432 0.165 2.756 0.535 3.973 0.379 1.267 0.905 2.317 1.646 3.228 0.527 0.624 1.122 1.164 1.78 1.62l0.030 0.020c0.313 0.216 0.576 0.372 0.905 0.53h0.041s0.058 0 0.058 0.050c0.050 0.058 0.050 0.058 0.098 0.058 0.536 0.265 1.12 0.414 1.754 0.531 1.852 0.364 3.441 0.107 3.441 0.107 0.846-0.107 1.645-0.372 2.387-0.696 1.095-0.529 2.015-1.261 2.745-2.153l0.011-0.014c0.742-0.895 1.269-2.013 1.647-3.229 0.361-1.217 0.526-2.541 0.526-3.974 0-1.422-0.165-2.747-0.535-3.972l-0.017 0.033zM4.707 13.905c0.206-0.828 0.469-1.631 0.839-2.269 0.371-0.63 0.847-1.158 1.383-1.523 0.507-0.363 1.141-0.58 1.825-0.58 0.010 0 0.019 0 0.029 0h-0.001c0.692 0 1.275 0.15 1.811 0.522 0.518 0.364 0.947 0.828 1.316 1.423 0.372 0.637 0.634 1.324 0.849 2.168 0.214 0.845 0.329 1.698 0.329 2.65l-0.017 0.315c0 0.952-0.099 1.903-0.264 2.748-0.205 0.853-0.477 1.59-0.846 2.235-0.35 0.593-0.808 1.086-1.352 1.464l-0.015 0.010c-0.526 0.372-1.17 0.53-1.852 0.53-0.7 0-1.334-0.165-1.868-0.53-0.563-0.392-1.024-0.89-1.363-1.469l-0.012-0.022c-0.329-0.521-0.576-1.258-0.798-2.152-0.215-0.853-0.271-1.821-0.271-2.764 0-0.952 0.057-1.905 0.263-2.748l0.017-0.008zM40.271 3.102c0-0.002 0-0.003 0-0.005 0-1.138 0.921-2.061 2.058-2.064h0c1.137 0.004 2.057 0.927 2.057 2.064 0 0.002 0 0.004 0 0.005v-0c0 0.001 0 0.003 0 0.004 0 1.138-0.92 2.060-2.057 2.064h-0c-1.135 0.051-2.058-0.869-2.058-2.069z"></path>
</svg>
