<!-- Generated by IcoMoon.io -->
<svg version="1.1" xmlns="http://www.w3.org/2000/svg" width="27" height="32" viewBox="0 0 27 32">
<title>person-icon</title>
<path fill="#fefefe" d="M0.020 28.422c0-9.173 0.013-18.347-0.020-27.52 0-0.749 0.15-0.902 0.899-0.902q12.533 0.051 25.072 0c0.747 0 0.902 0.152 0.899 0.902-0.033 10.052-0.018 20.104-0.041 30.159 0 0.305 0.404 0.998-0.483 0.879-0.083-0.098-0.158-0.208-0.221-0.325l-0.005-0.010c-0.185-0.65-0.076-1.316-0.109-1.973 0.127-0.66-0.287-1.138-0.576-1.656-0.042-0.1-0.078-0.219-0.102-0.341l-0.002-0.012c-0.037-0.268-0.060-0.58-0.063-0.897l-0-0.004c-0.396-1.658-2.794-3.825-4.49-4.025-0.643 0-1.143-0.439-1.74-0.587-0.171-0.059-0.375-0.109-0.586-0.142l-0.021-0.003c-1.143-0.229-1.465-0.978-0.863-1.991 0.32-0.536 0.891-0.894 1.067-1.524 0.044-0.179 0.128-0.334 0.242-0.461l-0.001 0.001c0.399-0.269 0.67-0.702 0.718-1.2l0-0.007c0.024-0.135 0.052-0.25 0.087-0.362l-0.006 0.021c0.095-0.567 0.417-1.045 0.869-1.344l0.007-0.005c0.698-0.508 0.848-1.3 0.78-2.032-0.201-2.077 0.048-4.147 0-6.222-0.036-1.303-0.589-2.217-1.488-3.025-0.185-0.276-0.495-0.455-0.847-0.455-0.008 0-0.015 0-0.023 0l0.001-0c-0.292-0.013-0.584 0-0.876-0.041-1.090-0.254-1.544-1.27-2.311-1.907-0.213-0.328-0.447-0.63-0.907-0.561l-0.739 0.013c-0.942 0-1.884 0-2.824 0-1.016-0.208-1.735 0.399-2.509 0.869-0.366 0.3-0.64 0.724-1.145 0.808-0.762 0.114-1.087 0.688-1.351 1.321-0.033 0.112-0.076 0.221-0.119 0.33-0.211 0.574-0.632 1.051-0.762 1.669-0.124 1.481-0.028 2.961-0.053 4.442 0 1.189-0.013 2.377 0 3.556 0.016 0.556 0.314 1.040 0.755 1.314l0.007 0.004c0.508 0.284 0.665 0.787 0.795 1.303 0.031 0.085 0.063 0.193 0.088 0.303l0.004 0.020c0.036 0.472 0.442 0.721 0.655 1.087 0.077 0.189 0.131 0.408 0.152 0.636l0.001 0.009c0 0.485 0.419 0.62 0.709 0.866 0.128 0.103 0.24 0.218 0.337 0.346l0.004 0.005c0.912 1.3 0.543 2.001-1.206 2.309-0.554 0.069-1.016 0.389-1.524 0.569-0.734 0-1.27 0.394-1.778 0.869-0.508 0.35-0.899 0.825-1.443 1.12-0.648 0.607-1.283 1.222-1.641 2.060-0.036 0.107-0.076 0.211-0.119 0.315-0.211 0.558-0.496 1.040-0.85 1.463l0.006-0.008c-0.039 0.026-0.087 0.041-0.139 0.041-0.065 0-0.124-0.024-0.169-0.064l0 0z"></path>
<path fill="#e8f0f7" d="M26.334 31.665v0.274q-12.663 0-25.328-0.015c-0.323 0-0.762 0.282-0.998-0.236 0.122-0.102 0.263-0.188 0.416-0.25l0.011-0.004c0.286-0.066 0.614-0.103 0.951-0.103 0.102 0 0.202 0.003 0.302 0.010l-0.014-0.001q11.484 0 22.974 0c0.587-0.003 1.191-0.102 1.686 0.325z"></path>
<path fill="#b1cce7" d="M0.020 28.422c0.084 0 0.168 0 0.254 0 0.104-0.099 0.244-0.159 0.399-0.159 0.127 0 0.244 0.041 0.339 0.11l-0.002-0.001c0.126 0.121 0.204 0.291 0.204 0.479 0 0.090-0.018 0.176-0.050 0.254l0.002-0.004c-0.14 0.253-0.406 0.421-0.711 0.421-0.030 0-0.059-0.002-0.088-0.005l0.004 0c-0.284-0.094-0.152-0.437-0.345-0.587z"></path>
<path fill="#d8e5f2" d="M0.020 28.924c0.221 0.104 0.254 0.31 0.279 0.508 0.212 0.316 0.338 0.704 0.338 1.122 0 0.407-0.119 0.785-0.325 1.103l0.005-0.008-0.297 0.028z"></path>
<path fill="#87b2db" d="M0.317 31.66c0-0.739-0.013-1.478-0.018-2.217l0.716-0.284c0.118 0.118 0.192 0.281 0.192 0.461 0 0.087-0.017 0.171-0.048 0.247l0.002-0.004c-0.465 1.237-0.455 1.244 1.29 1.224q11.078-0.020 22.141 0c1.31-0.046 1.31-0.046 0.843-1.194-0.031-0.082-0.049-0.176-0.049-0.275 0-0.17 0.054-0.328 0.145-0.457l-0.002 0.003c0.381-0.254 0.617-0.056 0.813 0.267 0 0.747 0 1.491 0 2.237z"></path>
<path fill="#7fafdc" d="M15.825 1.27c1.016 0.254 1.194 1.57 2.248 1.778 0.037 0.042 0.059 0.097 0.059 0.157s-0.022 0.116-0.060 0.158l0-0c-0.508 0.297-1.031 0.041-1.547 0.074-0.724-0.048-1.031-0.917-1.778-0.907-0.128-0.038-0.239-0.085-0.343-0.144l0.008 0.004c-0.762-0.762-1.75-0.447-2.651-0.538-0.328-0.063-0.681-0.091-0.762-0.508 0.111-0.165 0.297-0.273 0.507-0.277h0.001c0.307-0.020 0.615-0.013 0.922-0.015h-0.112c-0.239 0-0.475 0-0.711 0-0.007 0-0.014 0-0.022 0-0.187 0-0.36-0.056-0.505-0.152l0.003 0.002c-0.049-0.043-0.080-0.106-0.080-0.176 0-0.014 0.001-0.028 0.004-0.042l-0 0.001c0.015-0.076 0.033-0.112 0.053-0.112h3.248c0.378 0.137 0.747 0.295 1.112 0.455 0.156 0.056 0.291 0.138 0.405 0.242l-0.001-0.001z"></path>
<path fill="#d3e2f1" d="M19.827 3.54c1.524 0.935 2.235 2.7 1.907 4.721-0.218 1.354-0.132 2.71-0.053 4.079 0.061 1.1 0.221 2.352-1.062 3.030-0.043-0.038-0.086-0.076-0.132-0.112-0.035-0.075-0.055-0.162-0.055-0.254s0.020-0.179 0.057-0.258l-0.002 0.004c0.287-0.414 0.594-0.818 0.508-1.371 0-0.427 0-0.848-0.038-1.27-0.254-0.777-0.084-1.549 0-2.321v-0.594c0-0.858 0-1.719 0-2.578 0.096-0.508-0.188-0.879-0.508-1.224-0.208-0.538-0.64-0.963-0.782-1.537 0.015-0.125 0.073-0.235 0.16-0.315l0-0z"></path>
<path fill="#a7c5e3" d="M7.528 17.882c-0.434-0.216-0.858-0.439-0.691-1.054 0.409-0.493 0.335-1.087 0.363-1.666 0.069-1.491-0.155-2.989 0.137-4.475 0.131-0.315 0.436-0.533 0.793-0.533 0.031 0 0.062 0.002 0.092 0.005l-0.004-0c0.143 0.027 0.264 0.104 0.347 0.212l0.001 0.001c-0.292 1.015-0.459 2.181-0.459 3.386 0 1.008 0.117 1.989 0.339 2.93l-0.017-0.086c-0.051 0.389-0.462 0.538-0.579 0.884-0.065 0.166-0.177 0.302-0.319 0.394l-0.003 0.002z"></path>
<path fill="#f5f9fc" d="M20.825 22.397c0.846-0.218 1.465 0.323 1.968 0.792 1.095 1.016 2.578 1.778 2.794 3.525-0.075 0.054-0.168 0.086-0.27 0.086-0.088 0-0.17-0.024-0.241-0.067l0.002 0.001c-0.404-0.597-0.724-1.27-1.328-1.707-0.45-0.465-0.874-0.963-1.493-1.219-0.276-0.061-0.519-0.174-0.729-0.329l0.005 0.004c-0.234-0.282-0.508-0.531-0.762-0.797-0.015-0.031-0.024-0.068-0.024-0.107 0-0.071 0.030-0.136 0.077-0.182l0-0z"></path>
<path fill="#649cd3" d="M7.535 10.535c0 1.694 0 3.388 0 5.079 0 0.523 0.109 1.135-0.688 1.214-0.032-0.062-0.055-0.134-0.063-0.211l-0-0.003c-0.061-0.086-0.097-0.194-0.097-0.31 0-0.062 0.010-0.121 0.029-0.177l-0.001 0.004c0.149-0.22 0.242-0.489 0.254-0.779l0-0.003c0.025-0.706-0.069-1.42 0.028-2.108 0.132-0.955-0.274-1.189-1.107-1.036-0.333-0.254-0.135-0.546-0.036-0.825 0.342-0.422 0.713-0.796 1.119-1.13l0.013-0.011c0.077-0.038 0.167-0.060 0.263-0.060s0.186 0.022 0.266 0.061l-0.004-0.002c0.055 0.034 0.091 0.094 0.091 0.163 0 0.011-0.001 0.021-0.003 0.031l0-0.001q-0.036 0.102-0.066 0.102z"></path>
<path fill="#8bb8e2" d="M25.102 26.651l0.465 0.064c0 0.317 0 0.635 0 0.952-0.356 0.16-0.406 0.493-0.465 0.82-0.026 0.18-0.102 0.339-0.214 0.466l0.001-0.001c-0.049 0.022-0.106 0.035-0.166 0.035s-0.117-0.013-0.169-0.036l0.003 0.001c-0.335-0.452-0.254-1.123-0.787-1.47-0.085-0.133-0.135-0.295-0.135-0.469 0-0.014 0-0.027 0.001-0.040l-0 0.002c0.017-0.126 0.053-0.24 0.107-0.344l-0.003 0.006c0.225-0.261 0.515-0.459 0.845-0.57l0.014-0.004c0.419-0.018 0.292 0.434 0.505 0.589z"></path>
<path fill="#bbd3e9" d="M18.857 18.349c0.427 0.541-0.152 0.724-0.384 0.99-1.422 1.638-1.354 1.93 0.64 2.512l-0.147 0.163c-0.227 0.122-0.496 0.193-0.782 0.193-0.098 0-0.194-0.008-0.287-0.024l0.010 0.001c-1.42-0.472-0.858-1.587-0.815-2.54 0.14-0.288 0.371-0.514 0.654-0.644l0.008-0.003c0.179-0.146 0.34-0.295 0.49-0.455l0.002-0.003c0.146-0.12 0.335-0.193 0.542-0.193 0.024 0 0.048 0.001 0.071 0.003l-0.003-0z"></path>
<path fill="#78a8d6" d="M7.53 2.286c0.536 0.020 0.701-0.462 1.016-0.747 0.223-0.183 0.472-0.124 0.721-0.074-0.254 0.376 0.023 0.637 0.201 0.922-0.076 0.706-0.604 0.843-1.168 0.937-0.368 0-0.706-0.066-0.891-0.442-0.017-0.056-0.028-0.119-0.028-0.186 0-0.157 0.056-0.301 0.15-0.412l-0.001 0.001z"></path>
<path fill="#c4d8ec" d="M7.487 21.841c0.13-0.074 0.28-0.137 0.438-0.182l0.014-0.003c1.295-0.198 1.46-0.632 0.655-1.742-0.122-0.168-0.221-0.353-0.333-0.528l0.142-0.142c0.115-0.060 0.251-0.095 0.396-0.096h0c0.002 0 0.004-0 0.005-0 0.292 0 0.545 0.164 0.673 0.405l0.002 0.004c0.363 1.778 0.223 2.189-0.869 2.629-0.059 0.006-0.127 0.009-0.196 0.009-0.223 0-0.438-0.036-0.639-0.102l0.014 0.004c-0.129-0.050-0.234-0.138-0.303-0.251l-0.002-0.003z"></path>
<path fill="#e5eef7" d="M1.059 26.71c0.193-1.051 1.044-1.618 1.719-2.311 0.127 0.12 0.207 0.29 0.207 0.479 0 0.066-0.010 0.129-0.027 0.189l0.001-0.005c-0.11 0.358-0.29 0.667-0.525 0.924l0.002-0.002c-0.074 0.091-0.155 0.175-0.234 0.254-0.307 0.34-0.554 0.836-1.143 0.472z"></path>
<path fill="#83b4e2" d="M18.075 3.274c0-0.079 0-0.157 0-0.236l0.975 0.025c0.195 0.171 0.317 0.421 0.317 0.7 0 0.001 0 0.003 0 0.004v-0c0.002 0.026 0.003 0.057 0.003 0.088 0 0.25-0.072 0.483-0.197 0.679l0.003-0.005c-0.089 0.089-0.206 0.149-0.338 0.165l-0.003 0c-0.574-0.17-1.211-0.216-1.575-0.803 0.076-0.46 0.719-0.175 0.813-0.617z"></path>
<path fill="#b9d2e9" d="M5.039 10.324c0.079-1.6-0.292-3.22 0.223-4.803l0.147 0.132c0.122 0.22 0.194 0.482 0.196 0.761v0c0.020 0.457 0 0.914 0.015 1.371 0 0.323 0 0.648 0 0.973 0.001 0.049 0.002 0.106 0.002 0.163 0 0.356-0.025 0.707-0.072 1.050l0.005-0.040c-0.033 0.137-0.090 0.257-0.167 0.361l0.002-0.003c-0.047 0.054-0.116 0.088-0.192 0.088-0.060 0-0.115-0.021-0.159-0.056l0 0z"></path>
<path fill="#bcd3ea" d="M2.758 25.125c0-0.254 0.013-0.485 0.020-0.726 0.592-0.221 0.858-0.912 1.509-1.054l0.117 0.127c0.185 0.47-0.079 0.762-0.406 1.016l-0.376 0.33c-0.262 0.183-0.465 0.533-0.864 0.307z"></path>
<path fill="#d3e3f2" d="M7.53 2.286v0.495c-0.185 0.452-0.456 0.836-0.795 1.146l-0.002 0.002c-0.074 0.033-0.16 0.053-0.251 0.053-0.167 0-0.318-0.066-0.43-0.172l0 0c0.244-0.762 0.564-1.432 1.478-1.524z"></path>
<path fill="#a5c6e5" d="M9.298 1.547l-0.762-0.018c0.81-0.399 1.445-1.247 2.514-0.988 0 0.074-0.015 0.15-0.018 0.226-0.049 0.108-0.119 0.199-0.205 0.271l-0.001 0.001c-0.334 0.296-0.748 0.508-1.205 0.602l-0.017 0.003c-0.012 0.001-0.026 0.002-0.040 0.002-0.102 0-0.196-0.037-0.268-0.099l0.001 0z"></path>
<path fill="#caddef" d="M5.039 10.324h0.231c0.508 0.477 0.305 1.097 0.34 1.671 0.107 0.383 0 0.762 0 1.153s0 0.797-0.229 1.148c-0.042 0.060-0.111 0.099-0.189 0.099-0.060 0-0.115-0.023-0.156-0.061l0 0z"></path>
<path fill="#77a6d5" d="M7.528 17.882l0.025-0.508c0.361-0.523 0.65-0.312 0.924 0.089 0.132 0.508 0.185 0.97-0.348 1.27-0.047 0.014-0.101 0.023-0.157 0.023-0.162 0-0.309-0.070-0.409-0.182l-0-0z"></path>
<path fill="#a2c1e2" d="M19.848 16.63c0.001 0.014 0.001 0.031 0.001 0.048 0 0.065-0.007 0.128-0.020 0.189l0.001-0.006c-0.213 0.239-0.3 0.645-0.762 0.571-0.253-0.139-0.453-0.346-0.58-0.596l-0.004-0.008c-0.007-0.037-0.010-0.079-0.010-0.122 0-0.317 0.207-0.585 0.493-0.677l0.005-0.001c0.3 0.124 0.62 0.302 0.668-0.254 0.006-0 0.012-0.001 0.019-0.001 0.113 0 0.211 0.062 0.262 0.154l0.001 0.002c0.018 0.074 0.029 0.159 0.029 0.246 0 0.165-0.038 0.322-0.105 0.461l0.003-0.006z"></path>
<path fill="#bed5eb" d="M20.825 22.397l0.030 0.229c-0.095 0.115-0.218 0.203-0.36 0.252l-0.006 0.002c-0.711 0.028-1.625 0.368-1.455-0.952l0.086-0.081c0.648-0.094 1.026 0.678 1.704 0.551z"></path>
<path fill="#76a6d5" d="M18.857 18.349c-0.11 0.155-0.29 0.255-0.492 0.255-0.015 0-0.029-0-0.043-0.002l0.002 0c-0.277-0.226-0.292-0.549-0.292-0.876 0.004-0.135 0.027-0.264 0.066-0.385l-0.003 0.010c0.044-0.124 0.117-0.228 0.21-0.309l0.001-0.001c0.663-0.203 0.627 0.411 0.848 0.729 0.005 0.022 0.008 0.046 0.008 0.072 0 0.098-0.044 0.186-0.114 0.245l-0 0z"></path>
<path fill="#8fbae3" d="M1.059 26.71c0.62 0.104 0.665-0.508 0.97-0.79 0.147 0.156 0.237 0.366 0.237 0.597 0 0.106-0.019 0.207-0.053 0.301l0.002-0.006c-0.126 0.31-0.326 0.567-0.58 0.759l-0.004 0.003c-0.218 0.13-0.437 0.282-0.691 0.069-0.033-0.254-0.102-0.508 0.084-0.716 0.015-0.079 0.025-0.147 0.036-0.216z"></path>
<path fill="#e2ecf6" d="M4.287 23.345c0.417-0.627 0.924-1.082 1.747-0.96 0.051 0.042 0.082 0.104 0.082 0.175 0 0.008-0 0.016-0.001 0.024l0-0.001c0 0.071-0.023 0.109-0.041 0.109-0.371 0.272-0.691 0.61-1.087 0.856-0.076 0.030-0.164 0.048-0.256 0.048-0.156 0-0.3-0.050-0.417-0.136l0.002 0.001z"></path>
<path fill="#e5eef7" d="M1.016 26.921l0.038 0.762c0.086 0.091 0.138 0.213 0.138 0.349 0 0.102-0.030 0.196-0.081 0.276l0.001-0.002-0.14 0.096-0.711 0.023c-0.030-0.655 0.5-1.018 0.754-1.503z"></path>
<path fill="#bcd4eb" d="M5.262 5.521c-0.020-0.635 0.561-0.97 0.762-1.501 0.165 0.133 0.275 0.327 0.294 0.548l0 0.003c0.014 0.072 0.021 0.155 0.021 0.239 0 0.291-0.092 0.56-0.248 0.781l0.003-0.004c-0.106 0.089-0.243 0.143-0.394 0.143s-0.288-0.054-0.395-0.143l0.001 0.001z"></path>
<path fill="#6da1d4" d="M24.843 28.419c0.074-0.414-0.274-1.242 0.729-0.762 0.027 0.069 0.044 0.149 0.048 0.232l0 0.002c0.058 0.097 0.092 0.214 0.092 0.339 0 0.066-0.009 0.129-0.027 0.189l0.001-0.005c-0.29 0.406-0.564 0.434-0.843 0.005z"></path>
<path fill="#b3cee8" d="M25.562 28.414c0.020-0.173 0.041-0.343 0.058-0.508 0.406 0.432 0.894 0.823 0.724 1.524l-0.742-0.269c-0.241-0.239-0.17-0.493-0.041-0.747z"></path>
<path fill="#86b3e0" d="M6.080 4.556c-0.023-0.178-0.043-0.356-0.064-0.536 0.008-0.081 0.020-0.153 0.038-0.224l-0.002 0.011 0.683-0.033c0.12-0.105 0.278-0.169 0.451-0.169 0.090 0 0.176 0.017 0.255 0.049l-0.005-0.002c0.105 0.057 0.18 0.158 0.2 0.277l0 0.002c-0.057 0.347-0.317 0.62-0.652 0.695l-0.006 0.001c-0.185 0.023-0.35-0.104-0.536-0.076-0.055 0.026-0.119 0.041-0.187 0.041-0.064 0-0.124-0.013-0.179-0.037l0.003 0.001z"></path>
<path fill="#d0e0f1" d="M6.029 22.603c0-0.071 0-0.145 0-0.216 0.508-0.107 0.851-0.678 1.453-0.538l0.096 0.071c0.019 0.045 0.031 0.098 0.031 0.153 0 0.082-0.025 0.158-0.067 0.221l0.001-0.001c-0.432 0.416-0.884 0.818-1.514 0.31z"></path>
<path fill="#cfe0f0" d="M5.044 14.344l0.29-0.020c0.343-0.226 0.577-0.033 0.797 0.211 0.063 0.107 0.1 0.235 0.1 0.372 0 0.126-0.031 0.244-0.087 0.348l0.002-0.004-0.14 0.119c-0.543-0.132-0.673-0.64-0.963-1.026z"></path>
<path fill="#cee0ef" d="M19.081 3.764c0-0.234-0.023-0.467-0.033-0.701 0.381-0.038 0.744-0.048 0.78 0.477l-0.018 0.269c-0.090 0.082-0.21 0.133-0.342 0.133-0.154 0-0.293-0.069-0.386-0.178l-0.001-0.001z"></path>
<path fill="#bfd5eb" d="M19.048 18.088v-0.213c-0.048-0.063-0.077-0.142-0.077-0.229 0-0.11 0.047-0.21 0.123-0.279l0-0 0.744-0.508c0.009 0.052 0.014 0.111 0.014 0.172 0 0.501-0.336 0.924-0.796 1.055l-0.008 0.002z"></path>
<path fill="#d2e1f1" d="M7.563 18.59l0.477 0.041c0.323 0.157 0.508 0.368 0.274 0.731l-0.053 0.028c-0.561 0.023-0.785-0.254-0.698-0.8z"></path>
<path fill="#c4d8ed" d="M15.825 1.27h-0.508c-0.254-0.188-0.508-0.361-0.254-0.729 0.554-0.084 0.8 0.17 0.762 0.729z"></path>
<path fill="#bfd5eb" d="M19.848 16.63l-0.038-0.81c-0.057-0.072-0.091-0.163-0.091-0.263s0.034-0.191 0.092-0.264l-0.001 0.001c0.094-0.075 0.214-0.121 0.345-0.121 0.139 0 0.267 0.052 0.364 0.137l-0.001-0.001c0.044 0.020 0.080 0.041 0.116 0.063l-0.004-0.002c-0.566 0.229-0.465 0.884-0.782 1.26z"></path>
<path fill="#bfd5eb" d="M6.87 16.089c-0.030 0.175-0.064 0.35-0.096 0.526-0.328-0.371-0.211-1.016-0.762-1.244l0.112-0.076c0.096-0.073 0.218-0.118 0.351-0.118 0.151 0 0.288 0.057 0.391 0.151l-0-0c0.075 0.107 0.12 0.241 0.12 0.385 0 0.141-0.043 0.271-0.116 0.38l0.002-0.002z"></path>
<path fill="#85b4e2" d="M1.016 29.94c0-0.254 0-0.508 0-0.782l-0.038-0.762 0.043 0.028c0.136-0.067 0.296-0.107 0.465-0.107 0.063 0 0.126 0.006 0.186 0.016l-0.006-0.001c0.11 0.028 0.2 0.099 0.253 0.194l0.001 0.002c0.039 0.095 0.062 0.206 0.062 0.321s-0.023 0.226-0.064 0.327l0.002-0.006c-0.193 0.323-0.361 0.668-0.744 0.818z"></path>
<path fill="#4889c7" d="M25.095 31.439h-23.063c0.206-0.836 0.909-0.574 1.42-0.587 2.286-0.051 4.546 0 6.814-0.038 0.136-0.014 0.26-0.041 0.378-0.080l-0.013 0.004c0.508-0.058 0.955-0.198 0.904-0.861 0.019-0.188 0.059-0.36 0.119-0.523l-0.005 0.015c0.216-0.531 0.665-0.975 0.582-1.613 0.007-0.125 0.010-0.271 0.010-0.418 0-0.363-0.023-0.721-0.068-1.072l0.004 0.042c-0.975-1.112-0.945-1.369 0.223-1.968 0.273-0.024 0.591-0.038 0.912-0.038s0.639 0.014 0.953 0.041l-0.041-0.003c1.15 0.582 1.201 0.914 0.29 1.821-0.19 0.457-0.097 0.94-0.117 1.41-0.112 0.701 0.325 1.224 0.589 1.803 0.070 0.198 0.119 0.427 0.137 0.664l0.001 0.009c0 0.508 0.358 0.599 0.762 0.655 0.135 0.028 0.254 0.061 0.389 0.096 2.469 0.076 4.935 0 7.398 0.048 0.5 0.015 1.216-0.249 1.422 0.592z"></path>
<path fill="#5c95ce" d="M10.789 30.918c-0.31 0.411-0.762 0.254-1.15 0.254-2.108 0-4.218 0-6.326 0-0.434 0-0.922-0.163-1.288 0.254-0.508-0.114-1.229 0.35-1.46-0.442-0.109-0.366-0.254-0.947 0.45-1.056v0c0.536 0.526 1.189 0.665 1.925 0.658 2.105-0.023 4.211-0.018 6.316 0 0.533 0.008 1.095-0.096 1.534 0.333z"></path>
<path fill="#5b95cd" d="M25.095 31.439c-0.366-0.411-0.853-0.254-1.288-0.254-2.235-0.015-4.47 0-6.705 0-0.434 0-0.919 0.157-1.29-0.239 0.467-0.485 1.077-0.335 1.641-0.353 2.519-0.076 5.044 0.132 7.558-0.119 0.109-0.079 0.202-0.169 0.282-0.271l0.002-0.003c0.081-0.107 0.185-0.193 0.305-0.252l0.005-0.002c0.716 0.096 0.508 0.66 0.462 1.049-0.069 0.607-0.597 0.406-0.973 0.444z"></path>
<path fill="#84b3e0" d="M25.605 29.953c0 0.002 0 0.005 0 0.007 0 0.078-0.006 0.155-0.019 0.23l0.001-0.008c-0.691-0.15-1.016-0.528-0.762-1.255 0-0.168 0-0.338 0-0.508 0.098 0.078 0.223 0.125 0.359 0.125s0.262-0.047 0.361-0.126l-0.001 0.001c0 0.254 0.028 0.508 0.041 0.744s0.020 0.523 0.020 0.79z"></path>
<path fill="#b5dcfd" d="M7.545 4.043l0.023-0.234c0.033-0.465 0.455-0.546 0.749-0.762 0.444-0.099 0.894-0.193 0.985-0.762 0.137-0.148 0.318-0.254 0.522-0.296l0.006-0.001c0.262-0.040 0.563-0.063 0.87-0.063 0.051 0 0.102 0.001 0.153 0.002l-0.008-0c1.242 0.074 2.56-0.599 3.731 0.358 0.035-0.004 0.076-0.007 0.118-0.007s0.083 0.002 0.123 0.007l-0.005-0c0.709 0.218 1.181 0.795 1.702 1.247 0.741 0.653 1.668 1.112 2.692 1.288l0.033 0.005c0.326 0.093 0.572 0.361 0.632 0.693l0.001 0.005c0.071 0.584 0.356 1.087 0.592 1.613s0.343 1.112-0.19 1.463-0.914-0.079-1.242-0.472c-0.199-0.375-0.448-0.694-0.744-0.963l-0.003-0.003c-0.251-0.335-0.599-0.585-1.002-0.71l-0.014-0.004c-0.452-0.081-0.785-0.744-1.341-0.254-0.396 0.282-0.691 0.663-1.079 0.973-0.508 0.18-0.681 0.706-1.077 0.996-0.090 0.028-0.194 0.044-0.301 0.044-0.018 0-0.036-0-0.054-0.001l0.003 0c-0.174-0.038-0.374-0.060-0.579-0.060-0.412 0-0.803 0.089-1.156 0.248l0.018-0.007c-0.932 0.429-1.912 0.528-2.91 0.571-0.088 0.032-0.199 0.063-0.313 0.088l-0.019 0.004c-0.343 0.032-0.632 0.234-0.785 0.52l-0.003 0.005c-0.078 0.089-0.168 0.164-0.269 0.223l-0.005 0.003c-1.016 0.366-1.328-0.307-1.577-1.074-0.043-0.168-0.068-0.361-0.068-0.56s0.025-0.392 0.071-0.576l-0.003 0.016c0.132-0.726 0.559-1.343 0.762-2.032 0.114-0.648 0.691-1.003 0.963-1.531z"></path>
<path fill="#abd3f8" d="M19.081 5.044c-1.92-0.152-2.979-1.636-4.267-2.758 0.909-0.231 1.11 0.782 1.757 1.016 0.221 0.208 0.587 0.208 0.734 0.508 0.48 0.302 1.102 0.307 1.524 0.739 0.137 0.135 0.406 0.206 0.251 0.495z"></path>
<path fill="#add4f8" d="M14.578 2.286c-1.27-0.543-2.519 0.046-3.779 0-0.114-0.864 0.709-0.457 1.011-0.762 0.947 0.157 2.1-0.45 2.768 0.762z"></path>
<path fill="#88b9e5" d="M11.81 1.524c-0.254 0.353-0.874 0.229-1.016 0.762h-1.016c-0.122-0.22-0.211-0.477-0.252-0.749l-0.002-0.013 1.27-0.729c0.154 0.105 0.254 0.278 0.257 0.475v0c0.185 0.302 0.485 0.254 0.759 0.254z"></path>
<path fill="#6198cf" d="M17.305 3.81c-0.361 0-0.724 0-0.734-0.508 0.508-0.417 1.016 0.086 1.503-0.015 0.127 0.079 0.333 0.137 0.358 0.241 0.043 0.173-0.132 0.254-0.302 0.254z"></path>
<path fill="#5693cc" d="M12.31 0.78h0.998c0.069 0.059 0.113 0.147 0.113 0.245s-0.044 0.186-0.112 0.245l-0 0h-0.749c-0.137-0.135-0.406-0.203-0.249-0.49z"></path>
<path fill="#629ad1" d="M12.31 0.78l0.254 0.49h-1.006c-0.069-0.060-0.113-0.147-0.113-0.245s0.044-0.186 0.112-0.245l0-0z"></path>
<path fill="#71a4d4" d="M11.558 0.782v0.488h-0.508c-0.146-0.091-0.242-0.251-0.242-0.433 0-0.021 0.001-0.042 0.004-0.062l-0 0.002c0.068-0.008 0.148-0.014 0.229-0.015l0.002-0z"></path>
<path fill="#6199d0" d="M13.305 1.27c0-0.165 0-0.328 0-0.49 0.234 0.056 0.653-0.127 0.607 0.307-0.023 0.251-0.381 0.183-0.607 0.183z"></path>
<path fill="#699ed3" d="M21.333 6.309v3.015c-0.279 0.325-0.508 0.909-0.978 0.168-0.041-0.119-0.065-0.257-0.065-0.4s0.024-0.281 0.067-0.409l-0.003 0.009c0.203-0.686 0.069-1.369 0-2.052 0.027-0.149 0.090-0.279 0.179-0.387l-0.001 0.001c0.101-0.075 0.229-0.12 0.367-0.12 0.169 0 0.321 0.067 0.433 0.176l-0-0z"></path>
<path fill="#71a4d5" d="M19.081 3.764l0.729 0.046c0.254 0.483 0.891 0.762 0.785 1.455 0.043 0.043 0.070 0.102 0.070 0.168 0 0.015-0.001 0.030-0.004 0.044l0-0.001c0 0.074-0.028 0.109-0.046 0.109-0.119 0.097-0.272 0.155-0.439 0.155-0.085 0-0.166-0.015-0.241-0.043l0.005 0.002c-0.107-0.051-0.188-0.141-0.228-0.251l-0.001-0.003c0.094-0.521-0.508-0.551-0.64-0.922z"></path>
<path fill="#91b8df" d="M21.333 9.821c-0.069 0.762-0.416 1.511-0.023 2.273-0.097 0.084-0.22 0.14-0.355 0.157l-0.003 0c-0.411-0.020-0.569-0.297-0.648-0.65-0.021-0.12-0.033-0.257-0.033-0.397s0.012-0.278 0.035-0.412l-0.002 0.014c0.127-0.556 0.437-0.922 1.029-0.985z"></path>
<path fill="#88b7e5" d="M21.333 9.821c-0.279 0.32-0.711 0.528-0.762 1.016-0.338 0.137-0.531-0.097-0.739-0.29-0.070-0.085-0.126-0.185-0.165-0.293l-0.002-0.007c-0.020-0.062-0.032-0.134-0.032-0.208 0-0.165 0.058-0.317 0.155-0.436l-0.001 0.001c0.125-0.071 0.275-0.113 0.434-0.113 0.132 0 0.256 0.028 0.369 0.080l-0.006-0.002c0.373 0.292 0.472-0.254 0.762-0.254z"></path>
<path fill="#90b7de" d="M20.571 5.539c0-0.089 0.023-0.175 0.033-0.254 0.391 0.239 0.856 0.427 0.719 1.034h-0.736c-0.103-0.101-0.166-0.242-0.166-0.398 0-0.148 0.057-0.282 0.151-0.382l-0 0z"></path>
<path fill="#71a3d4" d="M21.059 12.114l0.254-0.020 0.030 1.524c-0.092 0.074-0.203 0.129-0.325 0.156l-0.005 0.001c-0.254 0-0.472-0.091-0.508-0.396 0.216-0.414 0.246-0.902 0.554-1.265z"></path>
<path fill="#a7c6e3" d="M21.107 13.608h0.239c0.074 0.612-0.29 0.96-0.744 1.255-0.093-0.074-0.16-0.176-0.19-0.293l-0.001-0.004c-0.071-0.541 0.384-0.696 0.696-0.957z"></path>
<path fill="#679dd1" d="M20.554 14.606c0.015 0.086 0.030 0.17 0.048 0.254l-0.091 0.447-0.678 0.056c-0.165-0.419 0.13-0.597 0.406-0.785 0.038-0.015 0.082-0.024 0.129-0.024 0.069 0 0.133 0.019 0.188 0.053l-0.002-0.001z"></path>
<path fill="#fefefe" d="M18.255 17.361c0.027 0.060 0.043 0.131 0.043 0.205 0 0.003-0 0.006-0 0.009v-0c-0.063 0.095-0.127 0.178-0.197 0.256l0.002-0.002c-0.239 0.206-0.442 0.447-0.602 0.716l-0.007 0.013c-0.064 0.089-0.14 0.165-0.226 0.227l-0.003 0.002c-0.333 0.201-0.618 0.439-0.863 0.713l-0.003 0.004c-0.307 0.234-0.508 0.579-0.856 0.777-0.143 0.065-0.308 0.112-0.482 0.134l-0.008 0.001c-0.576-0.046-0.889 0.411-1.323 0.645-0.881 0.381-1.351-0.678-2.146-0.61-0.251-0.017-0.482-0.081-0.691-0.185l0.011 0.005c-0.292-0.185-0.422-0.523-0.681-0.742-0.24-0.286-0.523-0.526-0.841-0.713l-0.015-0.008c-0.096-0.063-0.179-0.133-0.254-0.21l-0-0c-0.453-0.39-0.754-0.945-0.81-1.571l-0.001-0.009c0-0.056 0-0.112 0-0.168-0.724-2.21-1.016-4.404 0.236-6.542l0.097-0.147c0.932-0.98 2.21-0.488 3.302-0.782 0.763-0.087 1.452-0.34 2.051-0.723l-0.019 0.012c0.151-0.061 0.327-0.109 0.511-0.136l0.013-0.002c0.533 0 0.881-0.386 1.308-0.62 0.48-0.267 0.97-0.704 1.554-0.18 0.071 0.088 0.134 0.187 0.184 0.293l0.004 0.009c0.089 0.444 0.551 0.625 0.724 1.016 0.526 1.432 1.044 2.847 0.907 4.434-0.086 0.99-0.015 1.976-0.681 2.829-0.162 0.222-0.259 0.5-0.259 0.802 0 0.088 0.008 0.175 0.024 0.258l-0.001-0.009z"></path>
<path fill="#639bd0" d="M7.535 10.535c0.002-0.025 0.003-0.054 0.003-0.084s-0.001-0.059-0.003-0.088l0 0.004c-0.1-0.1-0.162-0.238-0.162-0.39s0.062-0.29 0.162-0.39v0c0.109-0.107 0.259-0.173 0.425-0.173 0.059 0 0.117 0.009 0.171 0.025l-0.004-0.001c0.373 0.229 0.442 0.508 0.135 0.846z"></path>
<path fill="#87b4df" d="M8.259 10.283c0.041-0.274 0.063-0.543-0.218-0.721-0.175-0.338 0.056-0.533 0.254-0.742l0.254-0.023 0.109 0.091c0.066 0.113 0.121 0.244 0.158 0.383l0.002 0.011c0.048 0.125 0.079 0.27 0.086 0.421l0 0.003c-0.033 0.254-0.163 0.472-0.351 0.621l-0.002 0.002-0.015-0.013z"></path>
<path fill="#a1c2e3" d="M8.274 17.394c-0.095-0.093-0.225-0.15-0.369-0.15-0.136 0-0.259 0.051-0.353 0.135l0-0c0-0.528 0.373-0.508 0.744-0.521v0c0.065 0.066 0.105 0.157 0.105 0.257 0 0.111-0.049 0.211-0.127 0.278l-0 0z"></path>
<path fill="#70a5d8" d="M21.62 23.365l0.714 0.315c0.106 0.094 0.172 0.23 0.172 0.381 0 0.107-0.033 0.206-0.090 0.288l0.001-0.002c-0.409 0.414-0.904 0.254-1.382 0.213-0.122-0.040-0.223-0.115-0.296-0.212l-0.001-0.002c-0.137-0.716-0.208-1.374 0.881-0.983z"></path>
<path fill="#99c0e4" d="M21.62 23.365c-0.863-0.132-0.597 0.599-0.762 1.001-0.538 0.229-0.696-0.193-0.904-0.528l-0.030-0.163c0.002-0.113 0.027-0.219 0.071-0.315l-0.002 0.005c0.109-0.165 0.254-0.317 0.363-0.48l0.196-0.211 0.295-0.051c0.488 0.023 0.698 0.305 0.775 0.742z"></path>
<path fill="#9fc2e3" d="M22.349 24.406c0-0.254 0-0.485 0-0.726 0.777 0.064 1.14 0.648 1.524 1.216 0.051 0.039 0.083 0.1 0.083 0.168 0 0.010-0.001 0.019-0.002 0.029l0-0.001c0 0.074-0.028 0.109-0.048 0.109-0.12 0.094-0.273 0.151-0.439 0.151-0.078 0-0.153-0.013-0.224-0.036l0.005 0.001c-0.117-0.035-0.217-0.095-0.297-0.175l0 0c-0.15-0.227-0.325-0.422-0.524-0.588l-0.004-0.003c-0.030-0.056-0.058-0.102-0.074-0.145z"></path>
<path fill="#c9dcee" d="M23.82 25.173c0-0.091 0.018-0.185 0.028-0.277 0.734 0.358 1.222 0.894 1.255 1.755l-0.508-0.508c-0.024 0.002-0.051 0.003-0.079 0.003-0.345 0-0.644-0.194-0.795-0.479l-0.002-0.005c-0.018-0.049-0.029-0.105-0.029-0.163 0-0.127 0.050-0.242 0.131-0.327l-0 0z"></path>
<path fill="#4e8cca" d="M5.283 13.092c-0.011-0.064-0.017-0.138-0.017-0.213 0-0.303 0.102-0.583 0.274-0.806l-0.002 0.003c0.030-0.037 0.076-0.060 0.127-0.060s0.096 0.023 0.127 0.059l0 0c0.124 0 0.254-0.020 0.373-0.015 0.465 0.015 0.343-0.927 0.899-0.612 0.475 0.269 0.218 0.838 0.231 1.27 0.033 0.96 0 1.92 0 2.88-0.444 0.119-0.353-0.411-0.62-0.508-0.35-0.523 0-1.178-0.325-1.699-0.424 0.13-0.815 0.152-1.067-0.3z"></path>
<path fill="#8cbbe7" d="M5.78 12.079h-0.246c-0.47-0.526-0.117-1.176-0.254-1.75 0-0.091 0.023-0.18 0.036-0.272 0.071-0.069 0.147-0.132 0.226-0.196 0.328-0.282 0.135-0.825 0.531-1.072 0.254 0.724 0.693 1.097 1.493 0.792v0.78l-0.508-0.033c-0.378 0.29-0.851 0.485-1.016 0.998z"></path>
<path fill="#7cafde" d="M6.042 11.332c-0.32-0.996 0.556-0.78 1.016-0.998-0.174 0.47-0.542 0.832-1.004 0.995l-0.012 0.004z"></path>
<path fill="#5490c9" d="M6.794 15.098l0.508 0.508c0 0.279-0.117 0.47-0.422 0.488-0.028-0.254-0.053-0.488-0.081-0.731-0.064-0.058-0.084-0.117-0.061-0.173s0.036-0.091 0.056-0.091z"></path>
<path fill="#b5dcfd" d="M20.064 23.657c0.152 0.337 0.433 0.592 0.778 0.706l0.009 0.003q0.114 0 0.229 0c0.424 0.254 0.871 0.457 1.31 0.676 0.66 0.485 0.975 1.229 1.43 1.869l0.015 0.493c0.856 0.414 0.457 1.397 0.902 1.996 0.414 0.935 0.079 1.29-0.899 1.27-2.524-0.025-5.046 0-7.568-0.018-0.148-0.006-0.287-0.041-0.413-0.099l0.007 0.003c-0.472-0.495-0.721-1.123-1.016-1.724-0.076-0.261-0.119-0.56-0.119-0.87 0-0.045 0.001-0.090 0.003-0.135l-0 0.006c0.043-0.546 0.081-1.097 0.823-1.133 0.258 0.039 0.485 0.147 0.67 0.304l-0.002-0.002c0.719 0.508 1.229 0.386 1.488-0.493 0.030-0.239 0.046-0.477 0.081-0.714 0.033-0.201 0.097-0.381 0.187-0.545l-0.004 0.009c0.312-0.427 0.47-0.96 0.82-1.387s0.762-0.632 1.27-0.216z"></path>
<path fill="#a1ccf2" d="M15.817 30.43c2.54 0 5.079-0.069 7.619 0.036 1.1 0.043 1.379-0.307 1.158-1.288-0.069-0.064-0.089-0.122-0.064-0.18s0.051-0.086 0.076-0.086l0.239 0.015c0.061 0.533 0.434 0.879 0.762 1.255 0 0.079 0 0.155-0.013 0.234-0.165 0.371-0.488 0.391-0.833 0.391-2.771 0-5.542 0-8.31 0-0.274-0.008-0.645 0.107-0.635-0.376z"></path>
<path fill="#a1ccf2" d="M23.827 26.921c-0.856-0.274-0.973-1.194-1.511-1.745l0.122-0.13c0.073-0.041 0.161-0.066 0.254-0.066 0.159 0 0.301 0.070 0.398 0.182l0.001 0.001c0.231 0.224 0.427 0.477 0.637 0.724 0.135 0.254 0.292 0.49 0.124 0.785z"></path>
<path fill="#79a7d7" d="M23.843 26.667l-0.254-0.742c-0.053-0.254 0.033-0.343 0.282-0.272l0.739 0.508c-0.108 0.298-0.389 0.507-0.718 0.507-0.017 0-0.034-0.001-0.051-0.002l0.002 0z"></path>
<path fill="#a8d1f6" d="M24.599 28.912c0 0.089 0 0.178 0 0.254q-0.368-0.884-0.744-1.778c0.973 0.152 0.678 0.93 0.744 1.524z"></path>
<path fill="#5893cc" d="M17.308 19.373c0 0.576 0.020 1.153 0 1.727s0.213 0.841 0.777 0.836c0.272 0.183 0.879-0.091 0.825 0.508-0.043 0.462-0.508 0.477-0.876 0.508-1.097 0.114-1.407-0.216-1.58-1.656-0.038-0.124-0.069-0.254-0.096-0.384-0.035-0.16-0.055-0.343-0.055-0.531 0-0.213 0.026-0.419 0.074-0.617l-0.004 0.018c0.063-0.178 0.169-0.327 0.306-0.441l0.002-0.001c0.092-0.066 0.206-0.105 0.33-0.105 0.064 0 0.125 0.010 0.182 0.030l-0.004-0.001z"></path>
<path fill="#70a5d8" d="M16.571 20.879c0.092 0.12 0.167 0.259 0.218 0.409l0.003 0.010c0.211 1.524 0.338 1.592 1.9 1.133-0.036-0.381-0.48-0.254-0.617-0.495h0.95c0.117 1.059 0.975 0.587 1.524 0.744 0.013 0.063 0.020 0.135 0.020 0.209 0 0.004-0 0.008-0 0.012v-0.001c-0.163 0.16-0.394 0.254-0.508 0.475v0.056c-0.381 0.178-0.82 0-1.199 0.198-0.081 0.018-0.174 0.029-0.269 0.029-0.194 0-0.377-0.043-0.542-0.121l0.008 0.003c-0.531-0.467-1.557-0.127-1.778-1.097-0.034-0.163-0.054-0.351-0.054-0.543 0-0.244 0.032-0.481 0.091-0.706l-0.004 0.019c0.052-0.138 0.14-0.252 0.254-0.334l0.002-0.001z"></path>
<path fill="#96bbdf" d="M18.083 17.623l0.216-0.048c0 0.345 0.018 0.691 0.025 1.039 0.002 0.018 0.003 0.039 0.003 0.060 0 0.19-0.093 0.358-0.235 0.462l-0.002 0.001c-0.19-0.031-0.343-0.163-0.403-0.339l-0.001-0.004c-0.109-0.467 0.168-0.813 0.396-1.171z"></path>
<path fill="#80acd7" d="M17.798 18.85l0.292 0.287c-0.198 0.284-0.508 0.254-0.782 0.236h0.015c-0.090-0.101-0.145-0.235-0.145-0.381s0.055-0.28 0.145-0.382l-0 0.001c0.272-0.16 0.35 0.084 0.475 0.239z"></path>
<path fill="#7eaedb" d="M8.317 3.048c-0.254 0.254-0.508 0.508-0.749 0.762l-0.833-0.028c-0.041-0.579 0.353-0.813 0.795-1.003 0.185 0.302 0.5 0.246 0.787 0.269z"></path>
<path fill="#6aa0d3" d="M9.542 1.524c0.627 0.069 0.429 0.419 0.254 0.762h-0.493c-0.3-0.254-0.406-0.508 0-0.749 0.068-0.008 0.146-0.013 0.225-0.013 0.005 0 0.009 0 0.014 0h-0.001z"></path>
<path fill="#6ca4d9" d="M7.53 22.123c0-0.001 0-0.002 0-0.002 0-0.075 0.020-0.145 0.054-0.205l-0.001 0.002 0.701 0.018c0.604 0.65 1.046 0.594 1.27-0.307 0.026-0.213 0.133-0.398 0.288-0.525l0.001-0.001c0.026-0.009 0.056-0.014 0.088-0.014 0.089 0 0.168 0.040 0.222 0.102l0 0c0.241 0.538 0.254 1.153 0.564 1.666 0.005 0.038 0.009 0.082 0.009 0.127 0 0.083-0.011 0.163-0.030 0.24l0.001-0.007c-0.101 0.216-0.289 0.378-0.518 0.441l-0.006 0.001c-0.838 0.206-0.457 0.988-0.691 1.481-0.069 0.311-0.232 0.576-0.456 0.773l-0.002 0.001c-0.040 0.010-0.087 0.015-0.134 0.015-0.213 0-0.401-0.11-0.509-0.277l-0.001-0.002c-0.42-0.971-1.068-1.776-1.879-2.371l-0.016-0.011c0.053-0.643 0.94-0.536 1.044-1.145z"></path>
<path fill="#619ad1" d="M10.001 21.133c-0.193 0.927-0.358 1.882-1.707 1.503-0.82-0.231-0.157-0.465 0-0.701 0.79 0.058 1.107-0.3 1.016-1.095-0.012-0.22-0.019-0.477-0.019-0.736s0.007-0.517 0.021-0.772l-0.002 0.036 0.124-0.117c0.080-0.041 0.174-0.065 0.274-0.065 0.142 0 0.272 0.048 0.375 0.13l-0.001-0.001c0.057 0.082 0.116 0.177 0.17 0.276l0.008 0.016c0.107 0.439 0.254 0.879 0 1.321-0.063 0.093-0.151 0.164-0.255 0.204l-0.004 0.001z"></path>
<path fill="#a9c6e4" d="M8.274 17.394l0.023-0.536c0.15 0.688 0.871 1.069 0.96 1.79-0.183 0.269-0.48 0.424-0.668 0.691l-0.274 0.023-0.274-0.731c0.434-0.345 0.203-0.815 0.234-1.237z"></path>
<path fill="#6199ce" d="M8.589 19.34c-0.135-0.579 0.15-0.762 0.668-0.693l0.030-0.018c0.101 0.096 0.163 0.231 0.163 0.381s-0.063 0.285-0.163 0.381l-0 0 0.018-0.015z"></path>
<path fill="#80b0de" d="M2.758 25.125l0.762-0.485c0.243 0.073 0.417 0.295 0.417 0.558 0 0.007-0 0.015-0 0.022l0-0.001c-0.114 0.625-0.363 1.115-1.112 1.095-0.262-0.048-0.479-0.209-0.602-0.43l-0.002-0.004z"></path>
<path fill="#7eacd8" d="M2.22 25.879c0.229 0.033 0.455 0.066 0.574 0.302 0.078 0.084 0.126 0.196 0.126 0.32 0 0.061-0.012 0.12-0.033 0.173l0.001-0.003c-0.079 0.162-0.21 0.288-0.371 0.359l-0.005 0.002c-0.044 0.015-0.094 0.023-0.147 0.023-0.13 0-0.247-0.051-0.334-0.135l0 0c0-0.333 0-0.663 0-0.993 0.052-0.030 0.114-0.048 0.18-0.048 0.003 0 0.005 0 0.008 0h-0z"></path>
<path fill="#96c4ec" d="M19.081 4.541c0.45 0.185 0.841 0.414 0.762 1.016-0.027 0.043-0.074 0.070-0.127 0.070s-0.1-0.028-0.127-0.070l-0-0.001c0.001-0.011 0.001-0.024 0.001-0.037 0-0.261-0.212-0.472-0.472-0.472-0.013 0-0.026 0.001-0.039 0.002l0.002-0c-0.086-0.165-0.173-0.33-0.254-0.508z"></path>
<path fill="#71a5d6" d="M6.062 8.795c-0.015 0.371 0 0.747-0.048 1.115-0.038 0.328-0.211 0.429-0.483 0.168 0-0.234 0-0.465 0-0.698-0.006-0.119-0.009-0.258-0.009-0.398 0-0.377 0.024-0.749 0.069-1.114l-0.004 0.044c0.020-0.104 0.094-0.198 0.043-0.312-0.041 0.19-0.145 0.277-0.34 0.213l0.013-1.488c0.93-0.127 0.947-0.099 0.749 1.25z"></path>
<path fill="#94bce4" d="M6.060 7.573c-0.147-0.48 0.317-1.328-0.749-1.25 0-0.254 0-0.493 0-0.739l0.701-0.033c0.096-0.115 0.237-0.189 0.395-0.196l0.001-0c0.108 0.008 0.207 0.038 0.296 0.086l-0.004-0.002 0.099 0.117c0.086 0.792-0.533 1.328-0.739 2.017z"></path>
<path fill="#5692cc" d="M5.298 7.812l0.488-0.701v2.461c-0.663 0.076-0.175-0.597-0.485-0.762z"></path>
<path fill="#6fa3d5" d="M5.3 8.818l0.485 0.762c0.002 0.018 0.003 0.038 0.003 0.059 0 0.19-0.102 0.357-0.255 0.448l-0.002 0.001c-0.076 0-0.152 0-0.226-0.015-0.003-0.422-0.005-0.841-0.005-1.255z"></path>
<path fill="#73a6d7" d="M4.317 23.462l0.719-0.079c0.655 0.018 0.66 0.361 0.411 0.83-0.263 0.321-0.653 0.529-1.091 0.551l-0.003 0c-0.253-0.026-0.468-0.172-0.587-0.38l-0.002-0.004c0.279-0.254 0.607-0.465 0.554-0.919z"></path>
<path fill="#659dd3" d="M3.764 24.381c0.014-0.001 0.029-0.002 0.045-0.002 0.198 0 0.373 0.101 0.476 0.254l0.001 0.002c0.063 0.066 0.103 0.155 0.103 0.254s-0.039 0.188-0.103 0.254l0-0c-0.064 0.060-0.15 0.097-0.245 0.097-0.104 0-0.197-0.044-0.263-0.115l-0-0-0.254-0.508z"></path>
<path fill="#7eafdc" d="M5.283 13.092c0.419 0.353 0.838 0.041 1.257 0 0.096 0.592 0.46 1.27-0.508 1.509l-0.698-0.277c-0.018-0.409-0.033-0.82-0.051-1.232z"></path>
<path fill="#528fcb" d="M20.317 14.598l-0.508 0.762v0.462c-0.063 0.022-0.135 0.037-0.21 0.043l-0.003 0c-0.48 0-0.495-0.356-0.508-0.686-0.041-1.524 0.030-3.048-0.056-4.587-0.015-0.297 0-0.709 0.457-0.726 0.254 0 0.198 0.323 0.338 0.46v0c0.254 0.424 0.49 0.843 0.734 1.27-0 0.005-0 0.010-0 0.015 0 0.275 0.219 0.499 0.492 0.508l0.001 0c-0.071 0.442 0.32 1.067-0.477 1.222-0.13-0.025-0.254-0.069-0.376 0.036-0.039 0.13-0.062 0.28-0.062 0.436 0 0.23 0.050 0.449 0.14 0.646l-0.004-0.010c0.023 0.048 0.043 0.099 0.043 0.15z"></path>
<path fill="#dae6f3" d="M18.255 17.361c-0.136-0.171-0.219-0.391-0.219-0.63 0-0.198 0.057-0.384 0.155-0.54l-0.002 0.004c1.016-2.047 0.968-4.064-0.025-6.113-0.168-0.345-0.089-0.813-0.124-1.222l0.157-0.094c0.124 0.035 0.23 0.1 0.315 0.185l0 0c0.307 0.404 0.762 0.726 0.686 1.331-0.091 1.938 0.188 3.881-0.142 5.808l-0.508 0.762c-0.042 0.113-0.117 0.206-0.214 0.268l-0.002 0.001z"></path>
<path fill="#639cd3" d="M19.048 16.091q0-3.119 0-6.245c-0.015-0.533 0.206-0.693 0.691-0.439l0.091 0.165c0 0.254 0 0.508 0 0.762-0.175-0.033-0.465-0.368-0.457-0.196 0.081 1.91-0.361 3.845 0.221 5.735-0.038 0.19-0.018 0.493-0.122 0.544-0.218 0.091-0.312-0.163-0.424-0.325z"></path>
<path fill="#96bbdf" d="M18.331 17.115c0.071-0.089 0.142-0.18 0.216-0.269 0.009-0.001 0.020-0.001 0.031-0.001 0.281 0 0.508 0.227 0.508 0.508 0 0.007-0 0.015-0 0.022l0-0.001-0.046 0.508c-0.282-0.218-0.165-0.803-0.709-0.767z"></path>
<path fill="#6da1d3" d="M1.778 28.409c-0.103 0.077-0.232 0.123-0.372 0.123s-0.269-0.046-0.374-0.124l0.002 0.001 0.028-0.726 0.462-0.254c0.655 0.173 0.508 0.561 0.254 0.98z"></path>
<path fill="#7eb1e1" d="M1.778 28.409c-0.018-0.348 0.119-0.734-0.254-1.001l0.508-0.508h0.508c0.17 0.373-0.137 0.648-0.193 0.973-0.117 0.254-0.127 0.604-0.546 0.551z"></path>
<path fill="#8ab7e1" d="M5.29 24.152c0.198-0.356 0.13-0.62-0.254-0.762 0.178-0.462 0.462-0.787 1.016-0.782 0.584 0.107 1.029-0.231 1.501-0.477 0.165 0.843-0.61 0.762-1.016 1.016-0.132 0.394-0.16 0.838-0.549 1.102-0.083 0.051-0.183 0.081-0.29 0.081-0.161 0-0.306-0.068-0.408-0.177l-0-0z"></path>
<path fill="#649cd1" d="M6.535 5.544h-0.508l0.061-0.996c0.071-0.086 0.142-0.175 0.211-0.254 0.742 0.277 0.477 0.77 0.236 1.25z"></path>
<path fill="#93c1ec" d="M7.545 4.043c0.053 0.653-0.508 1.001-0.742 1.524l-0.030-0.018c-0.075-0.136-0.119-0.299-0.119-0.472 0-0.191 0.054-0.369 0.147-0.521l-0.002 0.004z"></path>
<path fill="#77a9da" d="M6.799 4.551c0 0.33-0.018 0.658-0.025 0.988h-0.239c-0.053-0.422 0.173-0.902-0.254-1.252 0.417-0.381 0.46-0.046 0.518 0.264z"></path>
<path fill="#5e98d0" d="M6.039 14.598c0.566-0.368 0.508-0.942 0.508-1.509 0.531 0.615 0.117 1.346 0.254 2.009 0 0.086 0 0.173 0 0.254l-0.67-0.063c-0.036-0.226-0.066-0.46-0.091-0.691z"></path>
<path fill="#aad3f8" d="M1.778 28.444c0.274-0.188 0.239-0.48 0.254-0.762 0.277-0.094 0.508-0.569 0.853-0.13 0.009 0.053 0.014 0.114 0.014 0.176 0 0.112-0.016 0.22-0.046 0.322l0.002-0.008c-0.508 2.032-0.508 2.067 1.63 2.032 2.067-0.038 4.142 0.206 6.199-0.213 0.259 0.085 0.442 0.325 0.442 0.607 0 0.021-0.001 0.043-0.003 0.064l0-0.003c-0.097 0.254-0.315 0.284-0.549 0.282q-3.873 0-7.751 0c-1.747 0-1.811-0.109-1.049-1.628z"></path>
<path fill="#96c3ec" d="M1.778 29.176c-0.292 1.498-0.292 1.498 1.343 1.501h7.683c0.086 0.058 0.112 0.114 0.079 0.165s-0.063 0.074-0.094 0.074v0c-2.794 0-5.587 0-8.381 0-0.663 0-1.412 0.041-1.389-0.975 0.251-0.262 0.505-0.513 0.759-0.764z"></path>
<path fill="#75abdc" d="M15.817 30.43c0.18 0.084 0.361 0.254 0.541 0.254q4.198 0.023 8.396 0c0.308-0.049 0.584-0.138 0.841-0.262l-0.018 0.008c-0.122 0.795-0.762 0.508-1.183 0.508-2.862 0.028-5.722 0.018-8.582 0.020-0.081 0-0.163 0-0.254 0-0.377-0.094-0.668-0.385-0.76-0.755l-0.002-0.007-0.013-0.744c-0.045-0.041-0.074-0.099-0.074-0.165 0-0.012 0.001-0.023 0.003-0.035l-0 0.001q0.020-0.107 0.046-0.107c0.045-0.027 0.1-0.043 0.159-0.043s0.113 0.016 0.16 0.044l-0.001-0.001c0.231 0.501 0.47 0.925 0.738 1.328l-0.022-0.035z"></path>
<path fill="#659ed5" d="M14.088 25.933c0.561-0.356 1.504-0.648 0.208-1.3-0.254-0.65 0.223-0.734 0.658-0.851 0.254 0.013 0.48 0.129 0.637 0.306l0.001 0.001c0.099 0.32-0.193 0.762 0.269 0.97 0.114 0.112 0.213 0.236 0.323 0.35 0.338 0.317 0.889 0.119 1.196 0.508 0.005 0.026 0.009 0.055 0.009 0.085 0 0.098-0.033 0.189-0.088 0.261l0.001-0.001c-0.293 0.23-0.666 0.369-1.073 0.369-0.137 0-0.271-0.016-0.399-0.046l0.012 0.002c-0.523-0.386-1.239-0.244-1.752-0.655z"></path>
<path fill="#8bbbe8" d="M14.088 25.933c0.607 0.048 1.323-0.292 1.732 0.477l0.091 0.147c-0.029 0.11-0.118 0.194-0.229 0.216l-0.002 0c-1.074-0.089-1.034 0.427-0.62 1.148l0.013 0.993c0.069 0.066 0.086 0.127 0.058 0.185s-0.053 0.084-0.076 0.084l-0.229-0.020c-0.305-0.432-0.563-0.928-0.749-1.459l-0.013-0.042z"></path>
<path fill="#6ba1d3" d="M12.323 24.635c-0.665 0.381-1.117 0.762 0.018 1.117 0.102 0.033 0.137 0.277 0.203 0.422-0.087 0.051-0.191 0.082-0.303 0.082-0.008 0-0.016-0-0.023-0l0.001 0c-0.363-0.015-0.702-0.107-1.005-0.26l0.014 0.006c-0.195-0.136-0.32-0.358-0.32-0.61 0-0.049 0.005-0.097 0.014-0.144l-0.001 0.005c0.254-0.368 0.132-0.678-0.165-0.957-0.063-0.090-0.112-0.195-0.141-0.308l-0.002-0.007c-0.010-0.048-0.016-0.103-0.016-0.159 0-0.199 0.075-0.381 0.197-0.52l-0.001 0.001c0.121-0.073 0.266-0.117 0.422-0.117 0.105 0 0.205 0.020 0.297 0.055l-0.006-0.002c0.363 0.229 0.662 0.526 0.885 0.877l0.007 0.011c0.027 0.057 0.042 0.124 0.042 0.195 0 0.12-0.045 0.23-0.119 0.313l0-0z"></path>
<path fill="#91b9df" d="M12.323 24.635l-0.018-0.48c0.071-0.091 0.164-0.162 0.27-0.207l0.004-0.002c0.714-0.062 1.358-0.322 1.889-0.723l-0.009 0.007c0.062-0.017 0.133-0.027 0.207-0.027 0.117 0 0.229 0.025 0.329 0.069l-0.005-0.002c0.102 0.066 0.175 0.169 0.2 0.289l0.001 0.003c-0.003 0.128-0.053 0.243-0.132 0.331l0-0c-0.302 0.198-0.724 0.274-0.762 0.744z"></path>
<path fill="#81b4e3" d="M12.31 26.159l0.234 0.015c0 0.582 0 1.161 0 1.742-0.173 0.234-0.254 0.551-0.627 0.584-0.114-0.029-0.205-0.107-0.253-0.208l-0.001-0.002c-0.107-0.744 0.386-1.331 0.521-2.011z"></path>
<path fill="#5c95ce" d="M10.789 30.923c0-0.081 0-0.16 0.015-0.239l0.254-0.254c-0.001-0.012-0.001-0.026-0.001-0.040 0-0.282 0.192-0.519 0.452-0.589l0.004-0.001c0.002-0 0.005-0 0.008-0 0.113 0 0.216 0.047 0.289 0.122l0 0c0.109 0.808-0.226 1.133-1.021 1.001z"></path>
<path fill="#639ed4" d="M14.067 27.662c0.373 0.439 0.803 0.851 0.762 1.501l-0.023 0.269c-0.46-0.5-0.874-1.021-0.739-1.77z"></path>
<path fill="#649fd5" d="M11.817 28.444l0.731-0.508c0.086 0.67-0.368 1.074-0.742 1.524-0.141-0.123-0.229-0.303-0.229-0.504 0-0.205 0.093-0.389 0.238-0.511l0.001-0.001z"></path>
<path fill="#81b4e3" d="M11.817 28.444c0 0.333 0 0.665 0 0.998 0 0.165 0 0.33 0 0.493h-0.254c-0.179-0.193-0.289-0.453-0.289-0.738 0-0.057 0.004-0.113 0.013-0.167l-0.001 0.006c0.013-0.205 0.077-0.393 0.181-0.553l-0.003 0.005c0.047-0.063 0.121-0.104 0.205-0.104 0.051 0 0.099 0.015 0.139 0.041l-0.001-0.001z"></path>
<path fill="#96c3ed" d="M8.546 8.797c1.722 0.025 3.23-1.349 5.036-0.762-0.063 0.106-0.148 0.191-0.251 0.252l-0.003 0.002c-0.566 0.234-1.056 0.635-1.669 0.762-0.374 0.067-0.805 0.105-1.244 0.105-0.108 0-0.216-0.002-0.323-0.007l0.015 0.001c-0.254 0-0.533 0-0.8-0.015-0.291-0.007-0.556-0.114-0.764-0.286l0.002 0.002z"></path>
<path fill="#a2cdf4" d="M19.584 5.547c0.081 0 0.165 0 0.254 0v0c0.293 0.288 0.538 0.623 0.722 0.994l0.010 0.021c0 0.762 0 1.509-0.013 2.26-0.15 0.643-0.508 0.602-0.945 0.29-0.246-0.027-0.464-0.128-0.636-0.28l0.001 0.001c-0.084-0.138-0.134-0.304-0.134-0.482 0-0.080 0.010-0.157 0.029-0.23l-0.001 0.006c0.037-0.126 0.112-0.232 0.212-0.306l0.002-0.001c0.338 0.254 0.627 0.912 1.072 0.569 0.371-0.284 0.254-0.886-0.089-1.331-0.302-0.384-0.485-0.874-0.485-1.408 0-0.036 0.001-0.073 0.003-0.109l-0 0.005z"></path>
<path fill="#77a9d8" d="M13.308 8.063l0.274-0.036c0.032 0.002 0.069 0.004 0.107 0.004s0.075-0.001 0.112-0.004l-0.005 0c0.17-0.185 0.325-0.396 0.612-0.406 0.508 0.048 0.648 0.343 0.564 0.805-0.071 0.198-0.254 0.254-0.414 0.378l-0.467 0.030c-0.152 0.073-0.33 0.116-0.518 0.116-0.076 0-0.151-0.007-0.224-0.021l0.008 0.001c-0.404-0.262-0.508-0.551-0.048-0.869z"></path>
<path fill="#90c0ea" d="M15.817 6.052c0.696-1.206 1.016 0.208 1.524 0.223l-0.135 0.155c-0.19 0.106-0.416 0.169-0.658 0.169-0.261 0-0.505-0.073-0.712-0.2l0.006 0.003c-0.058-0.042-0.095-0.11-0.095-0.186 0-0.065 0.027-0.123 0.070-0.165l0-0z"></path>
<path fill="#9dc9f1" d="M15.817 6.052l0.015 0.274c0.101 0.108 0.163 0.253 0.163 0.413 0 0.101-0.025 0.195-0.068 0.279l0.002-0.003c-0.134 0.17-0.34 0.279-0.572 0.279-0.028 0-0.056-0.002-0.084-0.005l0.003 0c-0.13-0.014-0.249-0.051-0.356-0.107l0.006 0.003-0.122-0.137c0.176-0.467 0.542-0.828 1.002-0.992l0.012-0.004z"></path>
<path fill="#89b9e6" d="M19.083 7.807l-0.018 0.254c-0.218 0.14-0.416 0.043-0.615-0.048-0.095-0.058-0.174-0.133-0.235-0.221l-0.002-0.003c-0.047-0.092-0.075-0.201-0.075-0.316s0.028-0.224 0.077-0.32l-0.002 0.004 0.117-0.112c0.006-0 0.014-0 0.021-0 0.404 0 0.731 0.327 0.731 0.731 0 0.011-0 0.022-0.001 0.032l0-0.002z"></path>
<path fill="#90c0ea" d="M17.346 6.276c0.508 0.015 0.945 0.15 0.98 0.777l-0.018 0.030c-0.508 0.315-0.823 0.089-1.036-0.394-0.013-0.043-0.020-0.091-0.020-0.142 0-0.082 0.020-0.16 0.055-0.229l-0.001 0.003z"></path>
<path fill="#9dc9f1" d="M14.311 7.81l-0.508 0.226c0.119-0.554 0.295-1.046 1.016-0.988l0.013 0.013c0.173 0.493-0.31 0.528-0.521 0.749z"></path>
<path fill="#98c4ee" d="M8.297 8.82c-0.086 0.254-0.17 0.508-0.254 0.742l-0.493 0.015q-0.096-0.846 0.747-0.757z"></path>
<path fill="#86b8e3" d="M20.571 6.56c-0.391-0.234-0.742-0.508-0.731-1.016h0.731l0.015 0.78c0 0.076-0.015 0.155-0.015 0.236z"></path>
<path fill="#9cc8f1" d="M19.81 8.825c0.254 0.297 0.508 0.383 0.744 0l0.023 0.762c-0.107 0.073-0.239 0.117-0.381 0.117s-0.274-0.044-0.383-0.119l0.002 0.002c-0.095-0.1-0.154-0.235-0.154-0.384 0-0.146 0.056-0.279 0.149-0.379l-0 0z"></path>
<path fill="#71a4d5" d="M20.571 11.591c-0.485-0.284-0.813-0.658-0.734-1.27l0.739 0.508c-0.005 0.259-0.005 0.51-0.005 0.762z"></path>
<path fill="#73a8db" d="M20.081 12.843c0.019-0.003 0.041-0.005 0.064-0.005 0.247 0 0.447 0.2 0.447 0.447 0 0.018-0.001 0.035-0.003 0.052l0-0.002c0.103 0.165 0.283 0.273 0.489 0.273 0.013 0 0.026-0 0.039-0.001l-0.002 0q-0.274 0.508-0.554 0.998c-0.076 0-0.15 0-0.226 0v0c-0.615-0.518-0.389-1.145-0.254-1.763z"></path>
<path fill="#a0c1e2" d="M10.001 21.133l0.074-0.254c0.169-0.141 0.378-0.24 0.607-0.278l0.008-0.001c0.335-0.066 0.828 0.155 0.864-0.47 0.919-0.29 1.318 1.056 2.253 0.721 0.037 0.051 0.060 0.114 0.060 0.183 0 0.046-0.010 0.089-0.028 0.128l0.001-0.002c-0.31 0.305-0.864 0.19-1.087 0.643-0.071 0.088-0.155 0.161-0.25 0.219l-0.004 0.002c-0.851 0.277-1.435-0.366-2.133-0.617-0.084-0.086-0.165-0.173-0.254-0.254z"></path>
<path fill="#9fc1e2" d="M13.811 21.123c0-0.086 0-0.173 0-0.254 0.216-0.597 0.622-0.861 1.27-0.724 0.127 0.455 0.508 0.442 0.858 0.455 0.248 0.017 0.467 0.129 0.624 0.299l0.001 0.001 0.023-0.013-0.079 0.295c-0.083 0.070-0.18 0.128-0.285 0.168l-0.007 0.002c-0.141 0.039-0.314 0.073-0.49 0.095l-0.018 0.002c-0.526 0-0.731 0.582-1.204 0.688-0.681 0.099-1.369 0.254-1.966-0.254v-0.239c0.317-0.467 0.996-0.008 1.272-0.521z"></path>
<path fill="#bbd4ea" d="M14.557 8.813l0.254-0.269c0.203-0.317 0.269-0.724 0.615-0.95 0.23-0.263 0.48-0.498 0.75-0.707l0.012-0.009c0.142-0.060 0.308-0.095 0.482-0.095 0.231 0 0.447 0.062 0.634 0.169l-0.006-0.003c0.123 0.113 0.199 0.275 0.199 0.454 0 0.098-0.023 0.191-0.064 0.273l0.002-0.004-0.14 0.142c-0.709-0.3-1.168 0.206-1.641 0.561-0.338 0.259-0.64 0.513-1.097 0.437z"></path>
<path fill="#b8d2ea" d="M8.549 10.329l0.254-0.762c0.927-0.617 1.933-0.317 2.921-0.254 0.15 0.058 0.274 0.156 0.364 0.28l0.002 0.002c-1.14 0.429-2.469-0.048-3.54 0.734z"></path>
<path fill="#7dabd7" d="M15.807 20.871c-0.371-0.051-0.836 0.211-1.092-0.19-0.15-0.239 0.267-0.333 0.35-0.544l0.477-0.033c0.055-0.046 0.125-0.073 0.203-0.073 0.042 0 0.082 0.008 0.119 0.023l-0.002-0.001c0.353 0.297 0.356 0.571-0.056 0.818z"></path>
<path fill="#7caad7" d="M11.553 20.14c0.099 0.208 0.333 0.546 0.274 0.607-0.274 0.29-0.67 0.086-1.016 0.124-0.323-0.183-0.416-0.414-0.155-0.724l0.155-0.086z"></path>
<path fill="#a1c2e3" d="M12.091 9.603l-0.317-0.071c-0.020-0.036-0.032-0.078-0.032-0.124 0-0.060 0.021-0.115 0.056-0.159l-0 0.001c0.077-0.057 0.166-0.105 0.262-0.138l0.007-0.002c0.142-0.043 0.287-0.074 0.429-0.119 0.272-0.063 0.495-0.356 0.82-0.188l0.762 0.041c-0.549 0.533-1.184 0.861-1.986 0.759z"></path>
<path fill="#cddfef" d="M9.288 19.383v-0.762c0.599-0.117 0.813 0.307 1.016 0.731-0.040 0.057-0.106 0.094-0.18 0.094-0.048 0-0.092-0.015-0.128-0.042l0.001 0z"></path>
<path fill="#c7dbed" d="M17.798 18.85l-0.483-0.239c-0.081-0.592 0.295-0.825 0.762-0.988-0.089 0.409-0.183 0.818-0.279 1.227z"></path>
<path fill="#ccdeef" d="M17.31 18.611c0 0.254 0 0.508 0 0.762h-0.508c-0.063 0.062-0.15 0.1-0.246 0.1-0.104 0-0.198-0.046-0.262-0.118l-0-0c0.213-0.411 0.432-0.815 1.016-0.744z"></path>
<path fill="#a7c6e3" d="M16.305 19.36l0.508 0.018-0.254 0.254c-0.216 0.234-0.163 0.863-0.762 0.508l-0.254-0.041c0.223-0.274 0.277-0.729 0.762-0.739z"></path>
<path fill="#a8c8e3" d="M10.006 19.413l0.307-0.053c0.444 0.036 0.528 0.328 0.508 0.703v0.086c-0.599 0.328-0.551-0.279-0.762-0.526z"></path>
<path fill="#89b9e6" d="M18.088 8.8c0.036-0.528-0.213-0.785-0.742-0.762-0.015-0.074-0.030-0.145-0.048-0.218h0.107c0.31-0.292 0.615-0.234 0.919 0v0c0.137 0.133 0.222 0.32 0.222 0.526 0 0.136-0.037 0.264-0.102 0.374l0.002-0.003-0.145 0.13c-0.074-0.018-0.142-0.030-0.213-0.046z"></path>
<path fill="#7dacd8" d="M11.812 9.326c-0.005 0.075-0.019 0.145-0.040 0.212l0.002-0.007-2.971 0.046-0.254-0.254c0.187-0.16 0.433-0.257 0.7-0.257 0.030 0 0.059 0.001 0.088 0.004l-0.004-0c0.493 0 0.985 0 1.478 0 0.363 0.025 0.726-0.058 1.001 0.257z"></path>
<path fill="#6ba3d6" d="M9.298 9.321h-0.762v-0.465h0.762c0.065 0.057 0.106 0.14 0.106 0.232s-0.041 0.176-0.106 0.232l-0 0z"></path>
<path fill="#a1ccf3" d="M22.316 25.173c-0.032 0.003-0.068 0.005-0.106 0.005-0.518 0-0.96-0.328-1.129-0.789l-0.003-0.008c0.424-0.254 0.83 0.114 1.25 0.033v0c0.094 0.097 0.153 0.229 0.153 0.375 0 0.136-0.050 0.259-0.133 0.354l0.001-0.001z"></path>
<path fill="#9fcaf1" d="M18.834 23.403l1.247 0.025c0 0.076 0 0.152 0 0.229-0.902-0.254-1.092 0.541-1.43 1.046-0.17 0.254-0.096 0.673-0.546 0.711-0.073-0.092-0.118-0.209-0.122-0.337l-0-0.001c0.020-0.696 0.089-1.361 0.851-1.674z"></path>
<path fill="#6ba1d5" d="M23.873 25.651l-0.282 0.272c-0.508-0.033-0.508-0.396-0.508-0.762l0.739 0.023z"></path>
<path fill="#99c6ef" d="M18.065 26.667c-0.726 1.341-1.244 1.399-2.258 0.254-0.081-0.051-0.109-0.102-0.081-0.155s0.053-0.076 0.081-0.076l0.015-0.038c0.508-0.406 0.978 0.317 1.478 0.036 0.251-0.124 0.503-0.274 0.764-0.020z"></path>
<path fill="#a6cff5" d="M15.807 26.69c0.002 0.035 0.004 0.075 0.004 0.116s-0.001 0.081-0.004 0.121l0-0.005c-0.813-0.089-0.762 0.477-0.747 1.001-0.254-0.345-0.884-0.559-0.665-1.051 0.302-0.681 0.942-0.036 1.412-0.18z"></path>
<path fill="#71a8db" d="M18.088 25.156v0.254c0 0.163-0.023 0.325-0.036 0.488-0.254 0.19-0.295 0.637-0.744 0.551-0.039-0.037-0.064-0.090-0.064-0.148 0-0.016 0.002-0.032 0.005-0.047l-0 0.001c0.018-0.064 0.036-0.096 0.056-0.096v-0.254c-0.169-0.183-0.277-0.424-0.289-0.691l-0-0.002c-0.006-0.057-0.009-0.122-0.009-0.189 0-0.263 0.050-0.514 0.141-0.744l-0.005 0.014c0.053-0.1 0.143-0.174 0.251-0.205l0.003-0.001c0.444 0.145 0.422 0.604 0.622 0.917 0.030 0.051 0.048 0.102 0.069 0.152z"></path>
<path fill="#99c6ef" d="M15.055 29.183c0-0.089 0-0.178 0.018-0.269 0.361 0.45 0.82 0.853 0.739 1.524-0.451-0.186-0.763-0.623-0.763-1.132 0-0.043 0.002-0.086 0.007-0.128l-0 0.005z"></path>
<path fill="#88b9e6" d="M17.326 26.413c0.254-0.16 0.353-0.538 0.734-0.508 0 0.254 0 0.508 0 0.762l-0.747 0.254c-0.062-0.064-0.101-0.151-0.101-0.248 0-0.103 0.043-0.195 0.113-0.26l0-0z"></path>
<path fill="#93b8de" d="M15.807 20.147c0.384 0.018 0.508-0.366 0.762-0.508 0 0.422-0.018 0.843-0.025 1.27l-0.742-0.020c0.086-0.1 0.138-0.231 0.138-0.374 0-0.14-0.050-0.269-0.134-0.369l0.001 0.001z"></path>
<path fill="#78abdc" d="M17.567 24.147h-0.234c-0.46-0.493-0.998-0.145-1.506-0.14-0.254-0.102-0.559-0.137-0.762-0.363 0-0.081 0-0.16 0-0.254 0.325-0.576 0.681-1.135 1.486-1.041 0.051 0.508 0.419 0.546 0.815 0.536s0.67 0.056 0.706 0.508l-0.048 0.145c-0.102 0.193-0.212 0.36-0.335 0.515l0.005-0.007z"></path>
<path fill="#e9f1f8" d="M16.551 22.349c-0.65 0.132-0.858 0.886-1.483 1.051h-0.508c-0.208-0.587 0.221-0.83 0.594-1.087 0.457-0.312 0.762-0.782 1.153-1.143 0.031-0.004 0.067-0.006 0.104-0.006s0.073 0.002 0.108 0.006l-0.004-0c0.013 0.401 0.023 0.792 0.036 1.178z"></path>
<path fill="#7fb2e3" d="M18.834 23.403c-0.584 0.439-0.353 1.229-0.747 1.752h-0.041c-0.254-0.29-0.218-0.64-0.218-0.983-0.002-0.024-0.003-0.051-0.003-0.079 0-0.262 0.097-0.502 0.258-0.684l-0.001 0.001z"></path>
<path fill="#add5fa" d="M9.31 25.143c0.269-0.566-0.655-1.638 0.726-1.735 0.289 0.216 0.54 0.46 0.755 0.733l0.006 0.008c0.142 0.162 0.229 0.375 0.229 0.609 0 0.111-0.020 0.218-0.056 0.317l0.002-0.006c-0.056 0.185-0.038 0.384-0.089 0.569-0.080 0.096-0.189 0.165-0.314 0.192l-0.004 0.001c-0.556 0.025-0.917-0.295-1.257-0.688z"></path>
<path fill="#9fcaf2" d="M6.027 24.127c-0.015-0.416 0.069-0.785 0.488-0.985 1.755-0.038 1.925 1.206 2.032 2.509 0.129 0.147 0.208 0.342 0.208 0.554 0 0.133-0.031 0.258-0.085 0.37l0.002-0.005c-0.067 0.094-0.176 0.155-0.299 0.155-0.005 0-0.009-0-0.014-0l0.001 0c-0.508-0.399-0.383-1.039-0.566-1.562-0.282-0.782-0.681-1.29-1.61-0.95z"></path>
<path fill="#e9f1f8" d="M10.116 21.153l0.193 0.018c0.254 0.549 0.978 0.762 1.054 1.432-0.092 0.185-0.28 0.311-0.498 0.311-0.089 0-0.173-0.021-0.247-0.058l0.003 0.001c-0.731-0.404-0.556-1.074-0.505-1.704z"></path>
<path fill="#8dbce9" d="M9.31 25.143c0.549-0.155 0.762 0.49 1.244 0.508-0.254 0.792-0.825 0.523-1.354 0.394l-0.15-0.145c0.008-0.269-0.053-0.574 0.259-0.757z"></path>
<path fill="#cddef0" d="M10.621 22.857l0.683-0.211c0.564-0.028 0.576 0.348 0.549 0.762-0.035 0.055-0.096 0.091-0.165 0.091-0.061 0-0.116-0.028-0.152-0.073l-0-0-0.736-0.086c-0.001 0-0.002 0-0.003 0-0.107 0-0.193-0.086-0.193-0.193 0-0.005 0-0.011 0.001-0.016l-0 0.001z"></path>
<path fill="#84b6e4" d="M8.556 26.667c0-0.333 0-0.665 0-0.998l0.508 0.254c0.376 0.234 0.574 0.528 0.338 0.973-0.378 0.221-0.625 0.038-0.846-0.229z"></path>
<path fill="#94c2ec" d="M10.603 23.111l0.196 0.208c0 0.277 0 0.554 0 0.83-0.008 0-0.016 0-0.025 0-0.407 0-0.736-0.33-0.736-0.736 0-0.002 0-0.004 0-0.006v0c0.006 0 0.014 0 0.022 0 0.228 0 0.428-0.117 0.543-0.295l0.002-0.003z"></path>
<path fill="#92b9de" d="M10.052 19.624c0.254 0.165 0.373 0.536 0.762 0.523-0.078 0.099-0.126 0.225-0.126 0.362s0.047 0.263 0.127 0.363l-0.001-0.001-0.736 0.018c0.229-0.427-0.094-0.843-0.025-1.265z"></path>
<path fill="#a2cdf2" d="M3.782 25.143h0.485c0.025 0.053 0.053 0.107 0.081 0.16-0.307 0.762-0.472 1.663-1.58 1.674-0.043-0.035-0.070-0.088-0.070-0.148 0-0.021 0.003-0.041 0.009-0.059l-0 0.001c0.025-0.066 0.048-0.099 0.071-0.099l0.015-0.48c0.632-0.064 0.762-0.597 0.988-1.049z"></path>
<path fill="#8fbae3" d="M2.778 26.667v0.254c0.068 0.064 0.11 0.154 0.11 0.254s-0.042 0.19-0.11 0.254l-0 0-0.747 0.254c0.165-0.254 0.33-0.508 0.493-0.762z"></path>
<path fill="#a0cbf2" d="M5.29 24.152l0.749-0.015c-0.361 0.719-0.762 1.351-1.745 1.016l-0.028-0.010c0-0.157 0.013-0.317 0.020-0.475z"></path>
<path fill="#8ab6e1" d="M19.81 8.825c0 0.254 0 0.508 0 0.747-0.368-0.218-0.622-0.104-0.782 0.274-0.399-0.223-0.808-0.442-0.747-1.016l0.046-0.041c0.097-0.085 0.224-0.137 0.364-0.137 0.149 0 0.284 0.059 0.383 0.155l-0-0z"></path>
<path fill="#b5dcfd" d="M4.295 25.173c0.762-0.020 1.072-0.841 1.745-1.016 1.148-0.734 1.501-0.65 1.956 0.597 0.199 0.47 0.315 1.017 0.315 1.591 0 0.113-0.005 0.225-0.013 0.336l0.001-0.015c0.536 0.523 1.123 0.863 1.892 0.508 0.432-0.206 0.869-0.686 1.346-0.254s0.124 0.996 0.018 1.501v0.508c-0.223 0.353-0.16 0.924-0.749 1.016-0.333 0.434-0.775 0.508-1.305 0.508-2.067-0.025-4.137-0.046-6.202 0-1.034 0.028-1.44-0.163-1.095-1.333 0.174-0.664 0.371-1.227 0.607-1.769l-0.030 0.078c0-0.168 0-0.333 0-0.508 0.866-0.279 0.988-1.191 1.516-1.747z"></path>
<path fill="#97c5ee" d="M10.799 29.928l0.749-1.016c0 0.33 0 0.663 0 0.996l-0.508 0.508c-0.147-0.094-0.243-0.256-0.243-0.441 0-0.017 0.001-0.033 0.002-0.049l-0 0.002z"></path>
<path fill="#a8d1f7" d="M15.825 23.906c0.526-0.064 1.237-1.27 1.509 0.254 0 0.328-0.023 0.658-0.033 0.985-0.406 0.419-0.808 0.851-1.478 0.508l-0.025-0.467c-0.467-0.287-0.201-0.655-0.109-1.016-0-0.004-0-0.008-0-0.012 0-0.105 0.054-0.198 0.136-0.251l0.001-0.001z"></path>
<path fill="#5c98d1" d="M17.326 26.413v0.495c-0.076 0.452-0.312 0.597-0.604 0.201-0.172-0.279-0.476-0.462-0.822-0.462-0.024 0-0.048 0.001-0.072 0.003l0.003-0c-0.003-0.038-0.005-0.082-0.005-0.127s0.002-0.089 0.006-0.133l-0 0.006 1.493-0.254c-0.008 0.107-0.003 0.19 0.003 0.272z"></path>
<path fill="#8bbbe8" d="M15.822 25.651c0.61 0.165 0.886-0.632 1.478-0.508 0 0.254 0 0.508 0.020 0.762-0.498-0.091-1.067 0.226-1.498-0.254z"></path>
<path fill="#8ebeea" d="M15.807 24.127c-0.013 0.348-0.208 0.693 0 1.044-1.138-0.099-0.698-0.566-0.254-1.036 0.030-0.040 0.077-0.065 0.13-0.065 0.050 0 0.094 0.022 0.124 0.057l0 0z"></path>
<path fill="#659dd2" d="M15.807 24.127h-0.254c-0.020 0.003-0.042 0.004-0.066 0.004-0.189 0-0.353-0.103-0.441-0.256l-0.001-0.002c0-0.081 0-0.163 0-0.254 0.282 0 0.579-0.038 0.762 0.254 0.004 0.038 0.006 0.082 0.006 0.127s-0.002 0.089-0.006 0.133l0-0.006z"></path>
<path fill="#81b4e3" d="M11.304 25.905c0.345 0.036 0.739-0.114 1.016 0.254l-0.025 0.028c-0.439 0.46-0.871 0.963-1.524 0.31 0.036-0.32 0.061-0.67 0.533-0.592z"></path>
<path fill="#acc9e6" d="M11.535 23.413l0.284-0.048c0.762-0.284 1.016-0.028 0.78 0.744l-0.295 0.033c-0.48-0.003-0.556-0.437-0.77-0.729z"></path>
<path fill="#8cbbe9" d="M10.819 25.166l-0.023-1.016c0.307 0.282 1.432 0.353 0.254 1.016-0.074 0.114-0.152 0.107-0.231 0z"></path>
<path fill="#70a7db" d="M10.819 25.166c0.036-0.003 0.077-0.005 0.119-0.005s0.084 0.002 0.125 0.005l-0.005-0c0.081 0.254 0.165 0.49 0.254 0.736l-0.508 0.526-0.107-0.107c-0.041-0.085-0.066-0.184-0.069-0.289v-0.001c0.023-0.155 0.087-0.293 0.179-0.405l-0.001 0.001z"></path>
<path fill="#f7f9fc" d="M12.599 24.127c0-0.508-0.254-0.762-0.78-0.744l-0.508-0.731c-0.338-0.488-1.069-0.706-0.996-1.473 0.8 0.071 1.399 0.795 2.248 0.706h2.225c0.266-0.329 0.616-0.579 1.018-0.721l0.016-0.005 0.495 0.028c0 0.724-0.493 1.143-1.034 1.417-0.323 0.182-0.572 0.463-0.71 0.802l-0.004 0.011c-0.324 0.475-0.863 0.782-1.473 0.782-0.177 0-0.349-0.026-0.51-0.074l0.013 0.003z"></path>
<path fill="#a4cff4" d="M10.794 26.433c0.617 0.63 0.957-0.389 1.493-0.254 0.297 0.846-0.508 1.448-0.508 2.225-0.071 0.010-0.153 0.015-0.236 0.015h-0c0-0.206 0-0.411 0-0.617 0-0.795-0.099-1.13-0.942-0.485-0.988 0.762-1.801 0.465-2.311-0.655h0.254l0.734 0.254c0.373 0.15 0.526-0.147 0.724-0.361 0.254-0.168 0.485-0.317 0.787-0.152z"></path>
<path fill="#89b8e5" d="M13.316 8.803l-0.762 0.508c-0.16-0.223-0.447-0.226-0.653-0.373-0.030-0.043-0.061-0.084-0.089-0.127 0.508-0.236 0.851-0.803 1.501-0.747-0.075 0.102-0.12 0.23-0.12 0.368 0 0.14 0.046 0.269 0.123 0.373l-0.001-0.002z"></path>
<path fill="#6ba3d6" d="M11.812 9.326h-1.016c-0.152-0.31-0.79 0.15-0.742-0.475l1.76-0.028v0.015c0.142 0.135 0.409 0.206 0.254 0.493z"></path>
<path fill="#5490cc" d="M10.047 8.838l0.742 0.475h-1.491c0-0.155 0-0.31 0.018-0.465z"></path>
<path fill="#74a6d7" d="M19.091 8.815l-0.747-0.018-0.023-0.985 0.744 0.254c0.008 0.251 0.018 0.5 0.025 0.749z"></path>
<path fill="#89b6e1" d="M15.576 7.822l-0.762 0.721c0.018-0.368 0-0.709-0.493-0.734l0.508-0.749 0.254 0.018c0.216 0.201 0.384 0.451 0.488 0.731l0.004 0.013z"></path>
<path fill="#649dd2" d="M17.318 7.068h-1.227c-0.029 0.046-0.080 0.075-0.137 0.075s-0.108-0.030-0.137-0.075l-0-0.001c0-0.254 0-0.488 0-0.731h1.476c0 0.079 0.020 0.157 0.025 0.236l-0.137 0.102c-0.175 0.018-0.356 0.025-0.373 0.023 0.029-0.003 0.063-0.005 0.097-0.005 0.149 0 0.29 0.033 0.417 0.091l-0.006-0.003c0.033 0.039 0.053 0.090 0.053 0.145 0 0.054-0.019 0.104-0.050 0.142l0-0z"></path>
<path fill="#649bd1" d="M15.817 7.058h0.272l-0.508 0.762c-0.485-0.036-0.546-0.353-0.493-0.744z"></path>
<path fill="#7aaad8" d="M17.318 7.068v-0.272c-0.076-0.048-0.104-0.099-0.081-0.152s0.043-0.081 0.069-0.081h0.038c0.269 0.279 0.528 0.579 0.978 0.526l0.015 0.731h-0.919c-0.041-0.259-0.069-0.505-0.099-0.752z"></path>
<path fill="#6299ce" d="M13.811 21.123c0.254 0.254 0.206 0.457-0.137 0.508-0.167 0.012-0.362 0.018-0.559 0.018s-0.392-0.007-0.585-0.020l0.026 0.001c0.142-0.805 0.825-0.363 1.255-0.508z"></path>
<path fill="#5b97d0" d="M18.065 24.152c0 0.33 0 0.66-0.018 0.99-0.673-0.084-0.416-0.617-0.48-0.996v0c0.060-0.070 0.148-0.113 0.247-0.113 0.101 0 0.191 0.046 0.251 0.118l0 0.001z"></path>
<path fill="#659fd5" d="M10.077 26.682c-0.048 0.254 0.028 0.612-0.35 0.683-0.33 0.064-0.396-0.19-0.437-0.444 0.003-0.038 0.005-0.083 0.005-0.128 0-0.33-0.097-0.637-0.263-0.895l0.004 0.007c0.508-0.079 1.067 0.208 1.524-0.241l0.241-0.028c0 0.178 0 0.356 0 0.536-0.201 0.241-0.643 0.102-0.724 0.51z"></path>
<path fill="#5290cc" d="M10.077 26.682c-0.132-0.074-0.335-0.117-0.378-0.224-0.069-0.17 0.094-0.272 0.267-0.279 0.274 0 0.551 0 0.828 0v0.239z"></path>
<path fill="#5492cc" d="M17.293 6.563c0.005 0.035 0.008 0.076 0.008 0.117s-0.003 0.082-0.008 0.121l0-0.005h-0.945l-0.013-0.234z"></path>
</svg>
