<!-- Generated by IcoMoon.io -->
<svg version="1.1" xmlns="http://www.w3.org/2000/svg" width="32" height="32" viewBox="0 0 32 32">
<title>tower-icon</title>
<path fill="#fefefe" d="M0.018 22.5c0-7.225 0.010-14.44-0.018-21.657 0-0.662 0.098-0.843 0.815-0.843 4.728 0.043 9.457 0.022 14.185 0.022 0.122 0.116 0.201 0.277 0.207 0.456l0 0.001c-0.003 0.121-0.021 0.237-0.050 0.348l0.002-0.011c-0.157 0.558-0.472 1.030-0.893 1.376l-0.005 0.004c-0.203 0.265-0.436 0.493-0.698 0.683l-0.010 0.007c-0.087 0.045-0.189 0.083-0.295 0.11l-0.010 0.002c-0.438 0.070-0.75 0.37-1.072 0.625-0.12 0.1-0.255 0.189-0.4 0.262l-0.012 0.006c-0.094 0.040-0.204 0.070-0.318 0.087l-0.007 0.001c-0.075 0.005-0.162 0.008-0.25 0.008s-0.175-0.003-0.262-0.009l0.012 0.001c-0.758 0.345-1.639 0.613-2.561 0.76l-0.059 0.008c-0.349 0.059-0.751 0.093-1.16 0.093-0.104 0-0.207-0.002-0.309-0.006l0.015 0c-0.75-0.058-1.463-0.063-1.272 1.038 0.225 0.888 0.705 1.5 1.695 1.55 0.128 0 0.25 0 0.378 0 0.007-0 0.014-0 0.022-0 0.349 0 0.668 0.124 0.918 0.33l-0.002-0.002c0.080 0.107 0.142 0.233 0.178 0.37l0.002 0.008c0.051 0.448 0.080 0.968 0.080 1.495 0 0.582-0.035 1.155-0.104 1.718l0.007-0.068c-0.185 0.568-0.685 0.965-0.843 1.55-0.185 0.42-0.583 0.715-1.053 0.75l-0.004 0c-0.862-0.090-1.572 1.030-2.515 0.325-0.515 0-1.208-0.377-1.25 0.607 0.135 1.098 0.765 1.925 1.915 2.11 1.083 0.177 1.375 0.75 1.325 1.712-0.037 0.75 0.077 1.5-0.1 2.233-0.147 0.442-0.548 0.688-0.81 1.040-0.673 0.933-1.732 1.28-2.685 1.795-0.058 0.015-0.124 0.024-0.192 0.024-0.123 0-0.239-0.028-0.343-0.078l0.005 0.002c-0.5-0.663-1.27-0.448-1.917-0.63-0.106-0.063-0.198-0.133-0.28-0.213l0 0z"></path>
<path fill="#fefefe" d="M17 0.022c4.75 0 9.5 0.013 14.235-0.018 0.625 0 0.767 0.142 0.765 0.765-0.025 7.575-0.017 15.148-0.017 22.723-0.587-0.025-0.87-1.145-1.655-0.462-0.11 0.134-0.237 0.248-0.379 0.341l-0.006 0.004c-0.112 0.051-0.244 0.080-0.382 0.080-0.117 0-0.229-0.021-0.332-0.060l0.007 0.002c-0.915-0.587-2.087-0.795-2.705-1.825-0.293-0.43-0.683-0.8-0.805-1.33-0.087-1.045-0.2-2.087 0.085-3.12 0.328-0.525 0.93-0.365 1.39-0.56 0.645-0.555 1.645-0.787 1.72-1.867 0.005-0.055 0.008-0.118 0.008-0.182 0-0.218-0.032-0.428-0.092-0.626l0.004 0.015c-0.102-0.214-0.316-0.359-0.564-0.359-0.146 0-0.281 0.051-0.387 0.135l0.001-0.001c-0.84 0.75-1.593 0.25-2.378-0.037-1.883-0.885-2.84-3.5-1.982-5.348 0.28-0.603 0.863-0.548 1.35-0.702 0.578-0.5 1.392-0.79 1.527-1.692 0.13-1.013-0.5-1.11-1.25-1.045-0.104 0.005-0.225 0.008-0.347 0.008-0.407 0-0.807-0.034-1.195-0.099l0.042 0.006c-1.185-0.032-2.137-0.84-3.288-0.975-0.126-0.024-0.237-0.056-0.343-0.097l0.013 0.004c-0.405-0.16-0.688-0.52-1.095-0.677-0.121-0.046-0.218-0.090-0.312-0.138l0.017 0.008c-0.354-0.175-0.653-0.409-0.897-0.691l-0.003-0.004c-0.433-0.345-0.752-0.814-0.905-1.354l-0.005-0.019c-0.031-0.102-0.050-0.22-0.052-0.341l-0-0.001c0.009-0.182 0.089-0.344 0.212-0.46l0-0z"></path>
<path fill="#fbfcfd" d="M31.983 24c0 2.455-0.020 4.913 0.017 7.365 0 0.538-0.1 0.67-0.642 0.642-1.038-0.058-2.080-0.017-3.12-0.017-0.080-0.107-0.128-0.242-0.128-0.389 0-0.006 0-0.012 0-0.017l-0 0.001c0.070-1.33 0.015-2.66 0.038-4 0-0.538-0.040-1.090 0.34-1.545 0.088-0.104 0.196-0.189 0.319-0.247l0.006-0.003c0.685-0.23 1.517 0 2.065-0.665 0.68-0.070 0.372-1.11 1.105-1.125z"></path>
<path fill="#fefefe" d="M3.765 31.98c-1.042 0-2.085-0.040-3.123 0.017-0.54 0.027-0.65-0.105-0.64-0.642 0.040-2.12 0.015-4.25 0.015-6.365 0.522-0.163 0.873 0.25 1.308 0.385 0.077 0.030 0.15 0.070 0.23 0.093 2.3 0.663 2.297 0.663 2.303 3.143 0 1-0.030 1.98 0.038 2.97 0 0.002 0 0.004 0 0.007 0 0.148-0.049 0.285-0.131 0.395l0.001-0.002z"></path>
<path fill="#e7f0f7" d="M3.765 31.98c0-0.075 0-0.152-0.013-0.227 0.422-0.465 1-0.367 1.52-0.367q10.725-0.020 21.453 0c0.527 0 1.098-0.098 1.523 0.365 0 0.078 0 0.152 0 0.23z"></path>
<path fill="#d7e5f2" d="M31.983 24c-0.465 0.315 0.053 1.395-0.985 1.265-0.087-0.073-0.151-0.171-0.182-0.284l-0.001-0.004c-0.080-0.427 0.31-0.72 0.317-1.12 0.14-0.895-0.75-0.712-1.117-1.060 1-0.703 1.602-0.345 1.968 0.705z"></path>
<path fill="#ecf3f9" d="M17 0.022l-0.023 0.535c-0.092 0.079-0.199 0.143-0.315 0.19l-0.008 0.003c-0.197 0.048-0.423 0.075-0.655 0.075s-0.458-0.027-0.675-0.079l0.020 0.004c-0.124-0.050-0.23-0.116-0.324-0.196l0.002 0.001-0.023-0.532z"></path>
<path fill="#f3f7fb" d="M1.018 25.5c-0.435 0.038-0.655-0.355-1-0.5v-2.5h0.263c0.074 0.087 0.14 0.184 0.194 0.289l0.004 0.008c0.117 0.805 0.112 1.642 0.608 2.352 0.007 0.030 0.012 0.064 0.012 0.1 0 0.094-0.030 0.18-0.080 0.252l0.001-0.001z"></path>
<path fill="#4d8cc9" d="M8.533 8c-0.023-0.061-0.044-0.135-0.061-0.212l-0.002-0.011c0.116-0.118 0.277-0.191 0.455-0.191 0.139 0 0.267 0.044 0.372 0.12l-0.002-0.001c0.515 0.75 0.227 1.58 0.307 2.377 0.053 0.5-0.168 1.082 0.39 1.45 1.82 0.275 3.645 0.080 5.465 0.115s3.65 0.018 5.475 0c1.293 0 1.413-0.155 1.468-1.418 0.032-0.815-0.19-1.662 0.25-2.44 0.090-0.087 0.213-0.141 0.348-0.141 0.114 0 0.219 0.038 0.303 0.102l-0.001-0.001c0.355 1.563 0.203 3.138 0.117 4.712-0.209 0.353-0.572 0.597-0.995 0.637l-0.005 0c-4.25 0.115-8.5 0.057-12.75 0.040-0.341-0.018-0.655-0.12-0.926-0.285l0.009 0.005c-0.162-0.163-0.268-0.383-0.287-0.627l-0-0.003c0.122-0.707 0.192-1.522 0.192-2.353 0-0.662-0.044-1.313-0.13-1.952l0.008 0.075z"></path>
<path fill="#488ac6" d="M9.25 7.75l-0.777 0.020-0.96-0.020c-0.265-0.695 0.213-0.883 0.718-1.018 0.245-0.050 0.527-0.078 0.815-0.078 0.106 0 0.212 0.004 0.317 0.012l-0.014-0.001q6.662 0 13.33 0c0.61 0 1.265-0.11 1.75 0.428 0.22 0.338 0.087 0.545-0.25 0.678-0.171 0.077-0.37 0.134-0.578 0.159l-0.010 0.001c-0.134-0.025-0.251-0.089-0.34-0.18l-0-0h-0.5c-0.119 0.094-0.254 0.177-0.397 0.245l-0.013 0.005c-2.983 0.295-5.975 0.105-8.963 0.12-1.25 0-2.5 0.178-3.728-0.117-0.153-0.071-0.284-0.155-0.403-0.255l0.003 0.002z"></path>
<path fill="#78b1e6" d="M24.5 7.5c-0.25-0.527-0.712-0.5-1.172-0.5h-14.613c-0.547 0-1.13-0.053-1.202 0.732l-0.25 0.035c-0.11-0.14-0.295-0.19-0.397-0.34-0.144-0.25-0.235-0.548-0.25-0.866l-0-0.004c0.133-0.633 0.5-0.87 1.13-0.668 0.112 0.073 0.209 0.155 0.294 0.249l0.001 0.001c0.217 0.25 0.5 0.25 0.803 0.25 4.615 0 9.23 0 13.847 0 0.145 0 0.352 0.050 0.355-0.213-0.17-0.285-0.438-0.543-0.295-0.928 0.132-0.13 0.303-0.22 0.495-0.249l0.005-0.001c0.194-0.033 0.418-0.051 0.647-0.051 0.036 0 0.073 0 0.109 0.001l-0.005-0c0.027-0.001 0.058-0.002 0.089-0.002 0.296 0 0.575 0.071 0.821 0.197l-0.010-0.005c0.074 0.050 0.122 0.134 0.122 0.228 0 0.084-0.037 0.159-0.096 0.209l-0 0c-0.5 0.372 0.14 0.375 0.198 0.567 0.233 0.181 0.396 0.443 0.447 0.743l0.001 0.007c-0.23 0.412-0.422 0.915-1.070 0.605z"></path>
<path fill="#86b3dd" d="M6 20.75c0-0.955-0.018-1.913 0.018-2.867 0.022-0.625-0.195-0.845-0.843-0.92-1.572-0.19-2.425-1.213-2.385-2.713 0.040-0.033 0.091-0.054 0.147-0.054s0.108 0.020 0.148 0.054l-0-0c0.073 0.073 0.136 0.155 0.189 0.244l0.003 0.006c0.245 0.545 0.63 0.99 1.111 1.3l0.012 0.007c0.213 0.169 0.456 0.317 0.716 0.434l0.022 0.009c0.46 0.21 1.063 0.152 1.34 0.705 0.103 0.675 0.161 1.454 0.161 2.247 0 0.846-0.067 1.677-0.196 2.487l0.012-0.089c-0.079 0.159-0.24 0.266-0.427 0.266-0.044 0-0.086-0.006-0.127-0.017l0.003 0.001c-0.537-0.422-0.005-0.747 0.095-1.1z"></path>
<path fill="#83b3e1" d="M11.725 3.75l0.275-0.25c0.523-0.067 0.75-0.63 1.265-0.728 0.087-0.011 0.165-0.027 0.24-0.050l-0.010 0.003c0.039-0.034 0.091-0.055 0.148-0.055s0.108 0.021 0.148 0.055l-0-0c-0.002 0.032-0.003 0.069-0.003 0.106 0 0.398 0.106 0.772 0.291 1.094l-0.006-0.011c-0.25 0.522-0.585 0.88-1.228 0.728-0.32-0.192-0.5-0.577-0.887-0.678-0.096-0.052-0.174-0.125-0.231-0.213l-0.002-0.002z"></path>
<path fill="#d7e6f3" d="M2.75 23.215c0.692-0.785 1.873-0.863 2.5-1.727 0.099 0.081 0.172 0.19 0.206 0.316l0.001 0.004c0.088 0.535-0.19 0.86-0.63 1.090-0.1 0.054-0.216 0.104-0.338 0.143l-0.015 0.004c-0.567 0.090-1.083 0.802-1.725 0.17z"></path>
<path fill="#e4edf7" d="M4.47 13.533c0.32 0.21 0.575 0.605 1.038 0.148 0.275-0.264 0.648-0.427 1.060-0.427 0.067 0 0.133 0.004 0.197 0.013l-0.008-0.001c0.072 0.088 0.115 0.202 0.115 0.325 0 0.025-0.002 0.050-0.005 0.075l0-0.003c-0.532 1.088-1.367 1.088-2.343 0.652-0.11-0.107-0.179-0.256-0.179-0.422 0-0.136 0.047-0.262 0.125-0.362l-0.001 0.001z"></path>
<path fill="#a6c5e4" d="M7.013 7.5c0.080 0.093 0.162 0.185 0.25 0.28-1.115-0.080-1.647-0.82-2-1.765 0.058-0.067 0.143-0.109 0.237-0.109 0.018 0 0.035 0.001 0.052 0.004l-0.002-0c0.363 0.143 0.663 0.382 0.876 0.686l0.004 0.006c0.247 0.249 0.445 0.548 0.576 0.88l0.006 0.018z"></path>
<path fill="#c0d6ed" d="M6.768 4.5l1.732-0.025 0.080 0.178c-0.28 0.75-0.86 0.902-1.572 0.798-0.238-0.077-0.407-0.296-0.407-0.555 0-0.017 0.001-0.033 0.002-0.049l-0 0.002c0.019-0.136 0.078-0.255 0.165-0.348l-0 0z"></path>
<path fill="#9cbfe1" d="M8.533 8c0.5 1.395 0.123 2.83 0.207 4.25-0.038 0.036-0.089 0.058-0.145 0.058-0.074 0-0.138-0.037-0.177-0.094l-0-0.001c-0.042-0.085-0.067-0.185-0.067-0.291 0-0.16 0.056-0.307 0.15-0.423l-0.001 0.001z"></path>
<path fill="#c6daee" d="M8.5 4.475l2.5-0.697c0.31 0.47-0.085 0.633-0.37 0.845-0.098 0.051-0.212 0.095-0.331 0.125l-0.011 0.002c-0.219 0.042-0.471 0.066-0.729 0.066s-0.51-0.024-0.754-0.070l0.025 0.004c-0.122-0.038-0.226-0.106-0.307-0.194l-0-0.001z"></path>
<path fill="#a3c4e4" d="M2.75 23.215c0.71 0.297 1.105-0.575 1.75-0.477 0.25 0.883-0.47 0.872-0.978 1.055-0.558 0-1.17 0.185-1.56-0.43 0.013-0.103 0.1-0.183 0.206-0.183 0.041 0 0.080 0.012 0.112 0.033l-0.001-0z"></path>
<path fill="#8eb5dc" d="M4.47 13.533l0.050 0.703-0.14 0.080c-0.453-0.1-0.902-0.25-1.37-0.063h-0.22c0.070-1.377 1.087-0.553 1.68-0.72z"></path>
<path fill="#81acd8" d="M6.768 4.5l-0.018 0.272c-0.553 0.287-0.907 0.768-1.25 1.25-0.080 0-0.157-0.013-0.237-0.015-0.263-1.245 0.237-1.758 1.505-1.508z"></path>
<path fill="#7cabd9" d="M11.725 3.75l0.297 0.033c0.058 0.135 0.092 0.291 0.092 0.456 0 0.059-0.004 0.117-0.013 0.173l0.001-0.006c-0.026 0.108-0.081 0.2-0.155 0.272l-0 0c-0.305 0.215-0.588 0.5-1 0.418-0.235-0.128-0.553-0.192-0.43-0.582v0c0.473-0.043 0.665-0.48 1-0.708 0.060-0.026 0.13-0.046 0.204-0.055l0.004-0z"></path>
<path fill="#c6daee" d="M8.5 11.5l0.023 0.768c0.11 0.455-0.162 0.585-0.535 0.633-0.112-0.019-0.207-0.085-0.264-0.176l-0.001-0.002c-0.008-0.578 0.312-0.947 0.778-1.223z"></path>
<path fill="#cedff0" d="M2.29 23.212l-0.272 0.038c-0.485-0.078-0.958-0.218-1.442-0.29-0.106-0.054-0.197-0.115-0.279-0.186l0.002 0.002c0-0.087-0.013-0.177-0.018-0.265 0.72 0.113 1.68-0.497 2.010 0.703z"></path>
<path fill="#c3d7ed" d="M5.285 21.777c0-0.098-0.018-0.192-0.027-0.29 0.018-0.48 0.445-0.552 0.75-0.75 0.008 0.055 0.012 0.118 0.012 0.183 0 0.309-0.103 0.593-0.277 0.821l0.002-0.003c-0.059 0.073-0.149 0.119-0.249 0.119-0.081 0-0.155-0.030-0.211-0.080l0 0z"></path>
<path fill="#ecf3f9" d="M14 2.025c0.477-0.302 0.707-0.802 1-1.25 0.352 0.363 0.322 0.768 0.133 1.19-0.083 0.115-0.198 0.202-0.333 0.249l-0.005 0.001c-0.072 0.024-0.155 0.038-0.241 0.038-0.216 0-0.412-0.087-0.554-0.228l0 0z"></path>
<path fill="#cfdff0" d="M14 2.025h0.732c-0.020 0.65-0.313 0.958-0.985 0.79l-0.248-0.083z"></path>
<path fill="#bed5ec" d="M13.25 2.777c-0.383 0.295-0.598 0.893-1.25 0.723 0.383-0.297 0.62-0.86 1.25-0.723z"></path>
<path fill="#83b4e3" d="M11.5 3.795c-0.195 0.433-0.418 0.83-1 0.707 0.18-0.235 0.54-0.343 0.512-0.725z"></path>
<path fill="#94c8f9" d="M14.965 1.97l0.035-1.2c0.012-0.064 0.020-0.137 0.020-0.212v-0c0.038-0.005 0.081-0.008 0.125-0.008s0.087 0.003 0.13 0.008l-0.005-0.001c0.171 0.196 0.275 0.453 0.275 0.735 0 0.166-0.036 0.323-0.1 0.464l0.003-0.007c-0.113 0.185-0.215 0.39-0.482 0.22z"></path>
<path fill="#c6daee" d="M6.78 13.537c0-0.090 0-0.182 0-0.273 0.455 0.060 0.713-0.22 0.945-0.547l0.072 0.065c0.235 1.025-0.247 1.082-1.018 0.755z"></path>
<path fill="#619ad0" d="M30.015 22.788c0.953-0.165 1.727-0.11 1.485 1.203-0.133 0.157-0.345 0.265-0.442 0.418-0.43 0.672-0.867 0.983-1.532 0.262-0.135-0.145-0.392-0.095-0.595-0.133-0.208-0.028-0.396-0.087-0.568-0.172l0.011 0.005c-0.233-0.168-0.515-0.323-0.365-0.677 0.118-0.268 0.382-0.452 0.688-0.452 0.042 0 0.083 0.003 0.124 0.010l-0.004-0.001c0.39 0.020 0.782 0.295 1.165-0.027z"></path>
<path fill="#659cd0" d="M25.5 6.777c-0.234-0.099-0.413-0.288-0.498-0.521l-0.002-0.006c-0.12-0.235-0.41-0.412-0.25-0.75l0.25-0.25c-0.17-0.34 0.055-0.532 0.273-0.728 1.22-0.237 1.723 0.235 1.457 1.468-0.367 0.355-0.652 0.805-1.23 0.787z"></path>
<path fill="#d7e5f2" d="M23.525 7.79l0.45-0.040c0.188-0.085 0.407-0.134 0.637-0.134s0.45 0.049 0.647 0.138l-0.010-0.004c-0.367 0.552-1.558-0.19-1.535 1.115 0.020 1.885-0.13 3.745 2.035 4.635l-0.16 0.15c-0.158 0.082-0.345 0.13-0.544 0.13-0.112 0-0.221-0.015-0.325-0.044l0.008 0.002c-0.985-0.4-1.47-1.098-1.375-2.19 0.12-1.252-0.165-2.518 0.17-3.758z"></path>
<path fill="#7cacdc" d="M29.98 23.223c-0.335 0.473-0.837 0.227-1.265 0.275-0.677 0.078-0.657 0.337-0.23 0.75-0.14 0.146-0.338 0.237-0.556 0.237-0.1 0-0.196-0.019-0.284-0.054l0.005 0.002c-0.372-0.142-0.485-0.593-0.867-0.727-0.387-0.207-0.717-0.464-0.998-0.768l-0.002-0.002c-0.068-0.077-0.117-0.173-0.137-0.279l-0.001-0.004c0.009-0.111 0.060-0.208 0.137-0.277l0-0c0.277-0.157 0.5-0.392 0.83-0.47 0.113 0.008 0.211 0.070 0.267 0.161l0.001 0.001c0.657 0.648 1.602 0.723 2.357 1.177z"></path>
<path fill="#7fb0df" d="M26.71 22h-0.23c-0.218 0.25-0.532 0.25-0.815 0.335-0.266-0.010-0.485-0.202-0.537-0.454l-0.001-0.004c-0.001-0.015-0.002-0.033-0.002-0.051 0-0.121 0.025-0.237 0.071-0.342l-0.002 0.005c0.395-1 0.135-2.017 0.207-3.025 0.035-0.523-0.065-1.063 0.16-1.567 0.063-0.123 0.188-0.206 0.332-0.21h0c0.090 0.030 0.153 0.113 0.153 0.211 0 0.045-0.013 0.087-0.036 0.122l0.001-0.001-0.012 3.48c0.165 0.468 0.343 0.927 0.785 1.22 0.018 0.030 0.029 0.066 0.029 0.104 0 0.075-0.042 0.141-0.103 0.175l-0.001 0.001z"></path>
<path fill="#7baad9" d="M29.212 14.75c0.065 1.217-1.133 1.355-1.723 2.012-0.293 0.183-0.61 0.090-0.918 0.087-0.285-0.27-0.030-0.405 0.137-0.56 0.416-0.202 0.773-0.453 1.084-0.751l-0.001 0.001c0.265-0.43 0.555-0.835 1.115-0.898 0.011-0.001 0.024-0.002 0.037-0.002 0.104 0 0.199 0.042 0.268 0.109l-0-0z"></path>
<path fill="#9cbfe1" d="M25.25 7.75h-1.275c0.103-0.153 0.275-0.253 0.471-0.253 0.019 0 0.038 0.001 0.057 0.003l-0.002-0c0.5-0.020 0.665-0.5 1-0.73 0.35-0.348 0.668-0.75 1.22-0.777 0.030 1.045-1.090 1.095-1.47 1.758z"></path>
<path fill="#d8e5f2" d="M26.71 22c0.012-0.057 0.018-0.123 0.018-0.19 0-0.013-0-0.026-0.001-0.039l0 0.002c-0.039-0.032-0.064-0.080-0.064-0.134 0-0.022 0.004-0.043 0.012-0.062l-0 0.001c0.025-0.060 0.050-0.090 0.073-0.090 0.563 0.962 1.867 0.872 2.5 1.75-0.97-0.177-2.030-0.148-2.538-1.238z"></path>
<path fill="#e3ecf7" d="M25.75 13.5c0.718 0.185 1.385 0.477 2.113-0.172 0.233-0.205 1.135-0.425 1.363 0.435-0.657 0.12-1.37 0.088-1.858 0.68-0.184 0.075-0.398 0.118-0.622 0.118-0.258 0-0.502-0.057-0.721-0.16l0.010 0.004c-0.22-0.13-0.366-0.366-0.366-0.636 0-0.089 0.016-0.175 0.045-0.254l-0.002 0.005z"></path>
<path fill="#7ba9d6" d="M27.468 14.227c0.33-1.125 1.073-0.71 1.767-0.47l-0.023 1h-0.212c-0.475-0.15-0.98-0.123-1.462-0.23-0.055-0.040-0.090-0.105-0.090-0.178 0-0.003 0-0.007 0-0.010l-0 0.001c-0.008-0.078 0.003-0.113 0.020-0.113z"></path>
<path fill="#c3d9ed" d="M20 3.5c1.323-0.232 2.25 0.928 3.5 0.973l-0.093 0.135c-0.087 0.056-0.188 0.101-0.295 0.128l-0.007 0.002c-0.149 0.029-0.322 0.046-0.498 0.048h-0.002c-0.068 0.003-0.147 0.005-0.227 0.005-0.208 0-0.413-0.013-0.614-0.038l0.024 0.002c-0.108-0.016-0.205-0.042-0.298-0.076l0.010 0.003c-0.392-0.15-0.665-0.5-1.075-0.638-0.16-0.053-0.297-0.138-0.407-0.25l-0-0c-0.033-0.045-0.052-0.101-0.052-0.161 0-0.049 0.013-0.095 0.035-0.135l-0.001 0.001z"></path>
<path fill="#b8d1e9" d="M25.25 4.532l-0.265 0.718h-0.985c-0.218-0.202-0.825-0.103-0.538-0.695l0.047-0.085z"></path>
<path fill="#8cb7e0" d="M20 3.5c-0.002 0.034-0.004 0.074-0.004 0.114s0.001 0.080 0.004 0.119l-0-0.005-0.102 0.135c-0.131 0.078-0.288 0.124-0.456 0.124-0.073 0-0.144-0.009-0.212-0.025l0.006 0.001c-0.41-0.098-0.635-0.433-0.907-0.71-0.074-0.080-0.134-0.173-0.175-0.276l-0.002-0.006c-0-0.007-0.001-0.014-0.001-0.022 0-0.109 0.044-0.207 0.116-0.278v0c0.051-0.019 0.11-0.030 0.172-0.030 0.119 0 0.228 0.042 0.314 0.111l-0.001-0.001c0.080 0 0.157 0.020 0.25 0.025 0.343 0.225 0.527 0.683 1 0.725z"></path>
<path fill="#ecf3f9" d="M17 0.77c0.288 0.453 0.517 0.953 1 1.25-0.135 0.195-0.338 0.335-0.574 0.386l-0.006 0.001c-0.015 0.001-0.033 0.002-0.051 0.002-0.112 0-0.218-0.025-0.314-0.069l0.005 0.002c-0.154-0.113-0.265-0.276-0.309-0.465l-0.001-0.005c-0.063-0.4-0.085-0.792 0.25-1.103z"></path>
<path fill="#cddfef" d="M26.75 21.483c0 0.095-0.015 0.19-0.020 0.285-0.773-0.12-0.788-0.677-0.735-1.273 0.255 0.325 0.69 0.505 0.755 0.988z"></path>
<path fill="#cfe0f0" d="M17.5 2.217l0.5-0.195 0.75 0.728-0.5 0.035c-0.54 0.178-0.828 0.038-0.75-0.567z"></path>
<path fill="#95cafa" d="M26.473 16.73l1.018 0.035c-0.438 0.415-0.988 0.155-1.477 0.25l-0.012-0.265c0.061-0.066 0.149-0.108 0.246-0.108 0.087 0 0.167 0.033 0.226 0.088l-0-0z"></path>
<path fill="#94c8f9" d="M17 0.77v1.23c-0.042 0.032-0.095 0.052-0.152 0.052-0.088 0-0.165-0.045-0.209-0.113l-0.001-0.001c-0.115-0.176-0.183-0.391-0.183-0.622 0-0.29 0.107-0.554 0.284-0.757l-0.001 0.001c0.038-0.006 0.081-0.009 0.125-0.009s0.087 0.003 0.13 0.009l-0.005-0.001c-0 0.005-0 0.010-0 0.016 0 0.068 0.005 0.136 0.013 0.202l-0.001-0.008z"></path>
<path fill="#c3d9ed" d="M20 3.5c-0.613 0.147-0.805-0.3-1.015-0.72 0.515 0.010 0.685 0.47 1.015 0.72z"></path>
<path fill="#4e8cca" d="M28.975 25.98c-0.078 0-0.152 0.030-0.23 0.047-0.099 0.052-0.217 0.082-0.342 0.082-0.001 0-0.002 0-0.003 0h0c-0.172 0.023-0.372 0.036-0.574 0.036s-0.401-0.013-0.597-0.038l0.023 0.002c-7.065-0.030-14.127 0-21.19 0-1.25 0-1.44 0.192-1.442 1.455 0 3.5-0.295 3.075 3.053 3.072 1.282 0 2.573 0.11 3.85-0.085 0.793-0.637 0.172-1.587 0.515-2.322 0.049-0.125 0.13-0.229 0.233-0.304l0.002-0.001c0.647-0.122 0.57 0.332 0.575 0.72 0.12 0.66-0.365 1.433 0.383 1.97 1.873 0.020 3.75 0.142 5.605-0.073 0.585-0.538 0.25-1.235 0.325-1.865 0-0.37-0.115-0.837 0.532-0.765 0.112 0.066 0.198 0.164 0.248 0.281l0.002 0.004c0.345 0.75-0.21 1.672 0.485 2.345 1.727 0.25 3.462 0.047 5.19 0.108 0.082-0.003 0.179-0.005 0.276-0.005 0.426 0 0.844 0.033 1.253 0.095l-0.046-0.006c0.363 0.122 0.75 0.215 0.948 0.598-0.006 0.156-0.135 0.281-0.292 0.281-0.007 0-0.014-0-0.021-0.001l0.001 0c-7.87 0-15.75 0.020-23.61 0-0.5-0.29-0.335-0.795-0.36-1.225-0.078-1.355 0.127-2.72-0.115-4.073-0.228-0.457-0.84-0.325-1.105-0.727-0.14-0.418 0.18-0.5 0.45-0.582 0.297-0.079 0.638-0.124 0.99-0.124 0.093 0 0.186 0.003 0.277 0.009l-0.012-0.001q11.645 0 23.29 0c0.63 0 1.358-0.205 1.802 0.5 0.007 0.032 0.011 0.068 0.011 0.105 0 0.233-0.159 0.429-0.375 0.484l-0.003 0.001z"></path>
<path fill="#c3d9ed" d="M2.77 25.72c0.009-0 0.019-0 0.029-0 0.334 0 0.643 0.105 0.896 0.284l-0.005-0.003c0.445 0.938 0.087 1.93 0.19 2.89 0.092 0.852-0.147 1.725 0.138 2.567h23.968c-0.125-1.27-0.085-2.543-0.095-3.815 0.172-0.575-0.578-1.47 0.587-1.703l0.267 0.070c-0.5 1.37-0.105 2.793-0.25 4.183-0.047 0.517 0.188 1.087-0.25 1.54h-24.495c-0.583-1.215-0.225-2.5-0.235-3.75s0.022-2.25-1.667-2.055c-0.010 0-0.021 0.001-0.032 0.001-0.332 0-0.624-0.169-0.796-0.425l-0.002-0.003c0-0.085 0-0.17 0-0.25 0.081-0.089 0.185-0.157 0.303-0.194l0.005-0.001c0.675-0.183 0.952 0.468 1.445 0.665z"></path>
<path fill="#c4d8ed" d="M28.975 25.98l0.25-0.25c0.431-0.45 1.037-0.73 1.708-0.73 0.015 0 0.029 0 0.044 0l-0.002-0c0 0.087 0 0.175 0 0.265-0.372 1.012-1.255 0.67-2 0.715z"></path>
<path fill="#71a4d5" d="M30.985 25c-0.655 0.080-1.017 0.858-1.75 0.73-0.095-0.63-0.595-0.473-0.977-0.475q-12.415 0-24.832 0c-0.25 0-0.888-0.31-0.645 0.465-0.625 0.223-0.875-0.617-1.46-0.5-0.056-0.046-0.092-0.116-0.092-0.193 0-0.062 0.022-0.118 0.059-0.162l-0 0c0.5-0.552 0.985-1.21 1.863-0.573 0.32 0.48 0.815 0.332 1.25 0.33q11.647 0 23.297 0c0.427 0 1.020 0.325 1.29-0.355 0.055-0.008 0.118-0.012 0.183-0.012s0.128 0.004 0.19 0.013l-0.007-0.001c1.218 0.308 1.215 0.31 2.155-0.25z"></path>
<path fill="#72a3d3" d="M16.735 0.57l0.045 1.442c-0.5-0.115-0.96-0.522-1.527-0.25 0-0.403 0-0.802 0.012-1.205 0.213-0.056 0.458-0.088 0.711-0.088 0.27 0 0.531 0.037 0.78 0.105l-0.021-0.005z"></path>
<path fill="#acc9e5" d="M1.305 24.977c-0.004 0.035-0.007 0.074-0.007 0.115s0.002 0.080 0.007 0.12l-0-0.005-0.28 0.025c-1-0.598-0.75-1.57-0.733-2.468l0.267 0.017c0.245 0.733 0.732 1.385 0.745 2.195z"></path>
<path fill="#95cafa" d="M9.5 12.762h13c0.817 0.27 1.13 1.227 1.977 1.46 0.118 0.040 0.218 0.087 0.313 0.142l-0.008-0.005c0.337 0.277 0.744 0.482 1.19 0.586l0.020 0.004c0.141 0.027 0.266 0.067 0.384 0.119l-0.011-0.004c0.195 0.090 0.338 0.263 0.384 0.473l0.001 0.005c-0.198 0.66-0.77 0.542-1.233 0.545q-9.518 0.038-19.035 0c-0.46 0-1.165 0.212-1.192-0.662 0.132-0.249 0.38-0.422 0.669-0.447l0.003-0c0.582-0.033 1.173-0.045 1.593-0.553 0.404-0.28 0.749-0.611 1.034-0.989l0.008-0.011c0.23-0.325 0.605-0.445 0.902-0.662z"></path>
<path fill="#6da1d2" d="M22.46 7.785l0.29-0.035c0 1.035-0.055 2.072 0.017 3.102 0.067 0.957-0.323 1.188-1.223 1.18-4.008-0.033-8.023-0.018-12.045-0.033-0.028-0.042-0.044-0.094-0.044-0.149 0-0.107 0.061-0.2 0.15-0.245l0.002-0.001c0.703-0.357 1.46-0.25 2.2-0.25 2.817 0 5.637 0 8.457 0 1.805-0.015 1.797-0.033 1.835-1.793 0.023-0.605-0.082-1.248 0.36-1.777z"></path>
<path fill="#73aadd" d="M8.75 13.5c-0.158 0.475-0.525 0.842-0.989 0.997l-0.011 0.003c-0.457 0.225-0.832 0.637-1.4 0.613-0.167-0.092-0.365-0.181-0.571-0.253l-0.029-0.009c-0.393-0.078-0.813 0-1.175-0.25-0.058-0.046-0.095-0.116-0.095-0.195v-0c0-0.078 0.013-0.117 0.030-0.117l0.018-0.063c0.853 0.085 1.718 0.217 2.25-0.697 0.52 0 1.035-0.020 1-0.75 0.325-0.032 0.596-0.234 0.725-0.514l0.002-0.006 0.245-0.008c0 0.162 0.015 0.325 0.025 0.5 0.080 0.098 0.128 0.223 0.128 0.361 0 0.151-0.058 0.288-0.153 0.39l0-0z"></path>
<path fill="#78a9da" d="M23.525 7.79c-0.020 1.288-0.058 2.575-0.058 3.862 0 1.018 0.75 1.455 1.52 1.855 0.035 0.045 0.067 0.092 0.102 0.14-0.034 0.114-0.107 0.209-0.203 0.269l-0.002 0.001c-0.187 0.114-0.414 0.181-0.656 0.181-0.072 0-0.143-0.006-0.211-0.017l0.007 0.001c-0.433-0.447-1.25-0.705-0.79-1.6q0.015-2.357 0.015-4.732z"></path>
<path fill="#6ca0d2" d="M9.512 11.75c0 0.088 0 0.178 0 0.265-0.575-1.387-0.115-2.838-0.25-4.25l0.295 0.027c0.253 0.568 0.4 1.231 0.4 1.928 0 0.736-0.164 1.434-0.458 2.059l0.012-0.030z"></path>
<path fill="#7ab2e5" d="M23.235 12.482c-0.063 0.768 0.45 1.16 1 1.522 0.225 0.095 0.385 0.223 0.25 0.5-1.078-0.11-1.36-1.133-2-1.75z"></path>
<path fill="#7cb4e8" d="M8.75 13.5c0-0.25 0-0.5 0-0.765l0.75 0.027c-0.161 0.326-0.421 0.582-0.74 0.733l-0.010 0.004z"></path>
<path fill="#daedfc" d="M9.512 11.75l0.030-3.96h12.918c0.017 1 0 1.983 0.063 2.972 0.038 0.725-0.19 1.040-0.975 1.033-4.012-0.045-8.025-0.045-12.035-0.045z"></path>
<path fill="#94c8f9" d="M12.75 4.5c0.633 0.12 0.893-0.4 1.25-0.732 0.605-0.775 1.25-1.482 2.383-1.197 0.552 0.188 0.837 0.817 1.465 0.882 0.665 0 0.983 0.75 1.645 0.75 0.187 0.028 0.355 0.079 0.511 0.152l-0.011-0.005c0.367 0.23 0.645 0.622 1.142 0.617 0.18 0.014 0.346 0.041 0.507 0.079l-0.022-0.004c0.12 0.028 0.223 0.061 0.322 0.1l-0.015-0.005c0.55 0.122 0.872 0.595 1.325 0.87l0.855 0.42c-0.085 0.478-0.45 0.322-0.69 0.322q-7.485 0.020-14.973-0.013c-0.232 0-0.957 0.383-0.685-0.475 0.669-0.396 1.459-0.787 2.279-1.12l0.124-0.045c0.098-0.031 0.212-0.055 0.33-0.067l0.007-0.001c0.633 0.235 1.1-0.043 1.5-0.5v-0.015c0.097-0.101 0.232-0.163 0.383-0.163 0.143 0 0.272 0.056 0.368 0.148l-0-0z"></path>
<path fill="#629bd0" d="M5.5 6.032c-0.080-0.912 0.275-1.395 1.25-1.25 0.032 0.195 0.058 0.393 0.268 0.5 0.197 0.295 1.11-0.122 0.75 0.75-0.537-0.018-0.957 0.117-1 0.75-0.064 0.065-0.152 0.105-0.25 0.105s-0.186-0.040-0.25-0.105l-0-0z"></path>
<path fill="#7eb3e4" d="M7.75 6c0.045-0.545-0.58-0.412-0.75-0.75 0.029 0.002 0.063 0.003 0.097 0.003 0.579 0 1.093-0.277 1.417-0.706l0.003-0.004 0.25 0.027c0.377 0.48 1.095 0.225 1.48 0.688-0.815 0.38-1.482 1.13-2.5 1z"></path>
<path fill="#83b5e5" d="M23.25 6.020l-1.5-0.75c0.128-0.144 0.314-0.234 0.521-0.234 0.129 0 0.249 0.035 0.352 0.095l-0.003-0.002 0.135 0.135z"></path>
<path fill="#6aa3d8" d="M24.75 5.518l0.25 0.75c-0.28-0.2-0.727-0.183-0.825-0.625z"></path>
<path fill="#83b5e5" d="M23.465 4.565c0.035 0.353 0.378 0.45 0.535 0.685h-0.75c-0.092-0.086-0.149-0.208-0.149-0.344s0.057-0.258 0.149-0.343l0-0c0.029-0.003 0.063-0.005 0.097-0.005 0.042 0 0.082 0.003 0.122 0.008l-0.005-0.001z"></path>
<path fill="#7eb3e4" d="M6.25 6.77h0.5c0.293 0.175 0.25 0.468 0.25 0.75-0.237-0.27-0.487-0.508-0.75-0.75z"></path>
<path fill="#7dacda" d="M23.235 4.577c0 0.23 0 0.458 0 0.688h-0.5c-0.072-0.096-0.116-0.217-0.116-0.349s0.044-0.253 0.117-0.35l-0.001 0.001z"></path>
<path fill="#4788c6" d="M25.75 16.75c0 1.28-0.017 2.56 0 3.843 0 0.462 0.040 0.925-0.485 1.165-0.367 0.34-0.828 0.343-1.285 0.34-5.672 0-11.348 0.052-17.023-0.027-0.269-0.013-0.509-0.133-0.677-0.319l-0.001-0.001q0-2.483-0.025-4.968c-0.25-0.215-0.428-0.44-0.013-0.657 0.308-0.158 0.65-0.108 0.98-0.108q8.777-0.018 17.528-0.018c0.082-0.011 0.178-0.018 0.274-0.018 0.253 0 0.495 0.044 0.72 0.125l-0.015-0.005c0.425 0.207 0.297 0.427 0.020 0.648z"></path>
<path fill="#7bb3e8" d="M5.515 15.25c-0.223 0.878 0.5 0.475 0.75 0.48 2.663 0.037 5.325 0.020 7.985 0.020 3.828 0 7.652 0 11.48-0.020 0.25 0 0.975 0.405 0.75-0.477 0.438-0.335 0.782-0.197 1.073 0.213 0.010 0.034 0.016 0.073 0.016 0.114 0 0.112-0.044 0.214-0.116 0.289l0-0c-0.34 0.375-0.78 0.41-1.25 0.37-0.483-0.185-0.985-0.117-1.477-0.117-5.558 0-11.113 0-16.668 0-1.12 0-2.223 0.035-3.295 0.383l-0.535-0.5c-0.185-0.293-0.040-0.5 0.173-0.695 0.37-0.248 0.735-0.387 1.115-0.057z"></path>
<path fill="#508dc7" d="M4.77 16.5c0.46-0.565 1.1-0.483 1.718-0.483h20c0.128 0.21 0.657 0 0.515 0.5l-0.517 0.23-0.485 0.003h-0.25c0.172-1-0.617-0.46-0.887-0.462-4.34-0.038-8.665-0.038-12.992-0.038-1.665 0-3.328 0-5 0-0.317 0-0.857-0.19-0.623 0.5z"></path>
<path fill="#4e8cc8" d="M4.5 15.5c-0.085 0.165-0.173 0.33-0.25 0.5-0.617-0.281-1.072-0.825-1.225-1.485l-0.003-0.015c0.5-0.803 1-0.342 1.488 0l1.462 0.012c0.303 0.46 0.027 0.572-0.367 0.595s-0.855-0.070-1.105 0.393z"></path>
<path fill="#77addf" d="M6.28 21.75h0.47c0.1 0.543-0.425 0.75-0.598 1.163-0.22 0.28-0.445 0.558-0.87 0.442-0.261-0.135-0.462-0.353-0.572-0.619l-0.003-0.008c0.315-0.25 0.61-0.5 0.567-0.942l0.475-0.050z"></path>
<path fill="#6ea1d2" d="M4.5 14.5c-0.5-0.092-1-0.415-1.487 0 0-0.085 0-0.172-0.013-0.25 0.525-0.908 1-0.318 1.5 0.045 0 0.075 0 0.145 0 0.205z"></path>
<path fill="#6ca4d8" d="M16.5 2.777c-1.107-0.37-1.607 0.792-2.5 1-0.953-0.1-0.555-0.542-0.25-0.965 0.475-0.078 0.66-0.52 0.985-0.79 0.075 0 0.15-0.025 0.225-0.042l0.29-0.208c0.75-1.37 1.080-0.25 1.528 0.25h0.223l0.25 0.277c0.067 0.072 0.108 0.169 0.108 0.275s-0.041 0.203-0.108 0.275l0-0c-0.093 0.051-0.204 0.082-0.321 0.082-0.163 0-0.313-0.058-0.43-0.155l0.001 0.001z"></path>
<path fill="#5d99d2" d="M12.75 4.5l-0.75 0.015c-0.075-0.097-0.12-0.22-0.12-0.354 0-0.144 0.052-0.275 0.138-0.377l-0.001 0.001c0.545-0.060 0.8 0.16 0.732 0.715z"></path>
<path fill="#73a7da" d="M4.718 22.72c0.327 0.025 0.537 0.172 0.548 0.525 0.039 0.051 0.062 0.116 0.062 0.186 0 0.058-0.016 0.111-0.043 0.158l0.001-0.001c-0.48 0.582-0.985 1.11-1.85 0.837-0.53-0.355 0.040-0.62 0.078-0.93 0.45-0.098 0.928-0.16 1-0.75 0.057-0.011 0.128-0.020 0.199-0.025l0.006-0z"></path>
<path fill="#639ed6" d="M10.262 5.272c-0.5-0.213-1.428 0.5-1.48-0.688l1.717-0.070 0.5 0.5c-0.117 0.18-0.375 0.082-0.5 0.25-0.075 0-0.155 0.003-0.238 0.008z"></path>
<path fill="#629ad1" d="M3.513 23.5c0.288 0.37-0.1 0.52-0.25 0.75-0.030 0.035-0.075 0.057-0.125 0.057s-0.095-0.022-0.125-0.057l-0-0c-0.815-0.325-1.052 0.703-1.718 0.73-0.485-0.652-1.042-1.28-0.75-2.195 0.56-0.035 1.15-0.215 1.472 0.465 0.433 0.46 1 0.148 1.495 0.25z"></path>
<path fill="#83b4e3" d="M10.5 5.265c0.095-0.152 0.262-0.252 0.453-0.252 0.017 0 0.033 0.001 0.049 0.002l-0.002-0c0.35-0.133 0.565-0.545 1-0.482-0.133 0.968-0.895 0.683-1.5 0.732z"></path>
<path fill="#96cafb" d="M3.022 24.25c0.080 0 0.163 0 0.25 0 0.875 0.305 1.298-0.587 2-0.75 0.622-0.098 0.822-0.665 1.178-1.065 0.435-0.58 1.058-0.558 1.692-0.558q8.227 0 16.455 0c0.602 0 0.845 0.48 1.155 0.87v0c0.25 0.25 0.4 0.608 0.788 0.7 0.31 0.277 0.707 0.453 0.968 0.793h1.5l0.545 0.37c-0.358 0.433-0.852 0.367-1.32 0.367q-12.258 0.023-24.483-0.012c-0.325 0-1.435 0.455-0.728-0.715z"></path>
<path fill="#b5cfe8" d="M25 13.75c0.003-0.037 0.004-0.081 0.004-0.125s-0.002-0.088-0.005-0.131l0 0.006h0.735c0.1 0.235 0.198 0.473 0.297 0.71-0.072 0.101-0.178 0.173-0.302 0.199l-0.003 0.001c-0.477 0.027-0.727-0.193-0.727-0.66z"></path>
<path fill="#8ac0f2" d="M27.5 24.235c-0.5 0-0.782-0.345-1-0.75 0.027-0.041 0.073-0.067 0.125-0.067s0.098 0.026 0.125 0.067l0 0.001c0.54-0.045 0.793 0.203 0.75 0.75z"></path>
<path fill="#86bcef" d="M26.75 23.5h-0.25c-0.014 0.001-0.030 0.002-0.047 0.002-0.389 0-0.705-0.316-0.705-0.705 0-0.016 0.001-0.033 0.002-0.049l-0 0.002c0.473 0.045 0.67 0.475 1 0.75z"></path>
<path fill="#639cd1" d="M25.75 22.25c0.177-0.288 0.465-0.25 0.75-0.25 0 0.512-0.367 0.5-0.727 0.5-0.070-0.052-0.095-0.105-0.075-0.16s0.023-0.090 0.052-0.090z"></path>
<path fill="#85bcef" d="M25.75 22.25v0.25c0 0.085 0 0.17 0 0.25-0.33-0.159-0.591-0.42-0.746-0.741l-0.004-0.009c0.082-0.11 0.168-0.105 0.25 0z"></path>
<path fill="#80b6ea" d="M25.25 22h-0.25c-5.5 0-10.98 0.017-16.47-0.020-0.88 0-1.627 0.145-2.25 0.767-0.028 0.040-0.073 0.065-0.125 0.065s-0.097-0.026-0.125-0.065l-0-0c0.13-0.42 0.457-0.698 0.75-1l18.47 0.003c0 0.080 0 0.16 0 0.25z"></path>
<path fill="#4e8cc8" d="M27.5 15.75c0-0.082 0-0.162-0.015-0.25-0.109-0.149-0.22-0.322-0.321-0.5l-0.014-0.027c-0.001-0.011-0.001-0.023-0.001-0.036 0-0.154 0.068-0.292 0.176-0.386l0.001-0.001 0.148-0.065c0.56-0.223 1.125-0.475 1.5 0.268-0.425 0.234-0.766 0.575-0.994 0.987l-0.006 0.013c-0.060 0.061-0.143 0.099-0.235 0.099-0.093 0-0.178-0.039-0.237-0.102l-0-0z"></path>
<path fill="#7aabdb" d="M27.5 15.75l0.48 0.018-1 0.75-0.5-0.5c0.020 0.001 0.042 0.001 0.065 0.001 0.353 0 0.683-0.1 0.962-0.273l-0.008 0.005z"></path>
<path fill="#9ec1e1" d="M25.733 14.25l0.288-0.035h1.448v0.25l0.032 0.035c-0.258 0.19-0.582 0.305-0.933 0.305-0.266 0-0.516-0.066-0.736-0.181l0.009 0.004c-0.086-0.048-0.143-0.138-0.143-0.242 0-0.050 0.013-0.097 0.037-0.137l-0.001 0.001z"></path>
<path fill="#7cb3e8" d="M21.25 5.263c-0.625 0.1-1.055-0.125-1.25-0.75-0.035-0.237-0.157-0.478 0-0.718l0.025-0.067 0.475 0.047c0.323 0.143 0.378 0.517 0.63 0.72 0.142 0.24 0.285 0.478 0.12 0.768z"></path>
<path fill="#649dd2" d="M22.75 4.567c0.076 0.095 0.122 0.216 0.122 0.349s-0.046 0.254-0.123 0.35l0.001-0.001h-1v-0.015c-0.094-0.091-0.153-0.219-0.153-0.36s0.059-0.269 0.153-0.36l0-0z"></path>
<path fill="#6ca3d7" d="M21.75 4.537v0.713h-0.5l-0.25-0.725c0.066-0.070 0.159-0.114 0.263-0.114 0.091 0 0.174 0.034 0.238 0.089l-0-0c0.006-0 0.012-0 0.019-0 0.083 0 0.162 0.014 0.236 0.039l-0.005-0.002z"></path>
<path fill="#90b9df" d="M21.5 4.5l-0.5 0.022-0.5-0.75c0.5 0.018 0.66 0.497 1 0.728z"></path>
<path fill="#74ade1" d="M19.5 4.5c-0.802 0.265-1-0.902-1.75-0.75-0.052-0.037-0.085-0.097-0.085-0.165 0-0.003 0-0.007 0-0.010l-0 0c0-0.067 0.015-0.103 0.032-0.103 0.203-0.25 0.595-0.2 0.8-0.462l0.75 0.75c0.195 0.225 0.427 0.417 0.253 0.74z"></path>
<path fill="#5d98d0" d="M19.5 4.5l-0.25-0.728 0.73 0.025c0.108 0.238 0.387 0.475 0 0.717z"></path>
<path fill="#6da5d8" d="M18.5 3.025c-0.025 0.5-0.39 0.5-0.75 0.5-0.485 0.015-0.378-0.27-0.277-0.547 0.106-0.058 0.231-0.092 0.365-0.092 0.159 0 0.307 0.048 0.43 0.131l-0.003-0.002c0.012-0 0.026-0 0.040-0 0.069 0 0.136 0.004 0.203 0.011l-0.008-0.001z"></path>
<path fill="#72a3d3" d="M18.262 3h-0.75c-0.13-0.019-0.231-0.12-0.25-0.248l-0-0.002c0-0.16 0-0.32 0-0.48l0.25-0.070c0.081 0.334 0.377 0.578 0.73 0.578 0.007 0 0.014-0 0.021-0l-0.001 0c-0.012 0.090-0.012 0.163 0 0.223z"></path>
<path fill="#6198ce" d="M12.018 30.73c-0.283 0.35-0.68 0.25-1.043 0.25-1.87 0-3.75-0.038-5.61 0.020-0.9 0.030-1.17-0.308-1.117-1.157 0.035-0.412 0.055-0.891 0.055-1.375s-0.020-0.963-0.059-1.437l0.004 0.062c-0.105-1.095 0.268-1.415 1.38-1.407 6.86 0.052 13.717 0.023 20.575 0.038 0.517 0 1.090-0.207 1.543 0.25 0.433 1.448 0.188 2.93 0.235 4.4-0.058 0.42-0.14 0.81-0.723 0.622-2 0-3.985 0-5.977-0.025-0.438 0-0.925 0.157-1.29-0.25-0.315-0.895 0.108-1.852-0.25-2.75v0c-1.121 0.069-2.431 0.109-3.75 0.109s-2.629-0.040-3.929-0.118l0.179 0.009c-0.332 0.907 0.090 1.865-0.223 2.76z"></path>
<path fill="#83bbee" d="M19.25 30.727c-1 0.5-2.090 0.168-3.137 0.225-1.107 0.065-2.22 0.020-3.332 0.020-0.3-0.628-0.115-1.288-0.117-1.935 0.070-0.050 0.197-0.102 0.207-0.080 0.697 1.525 2.067 1.13 3.288 1.163 0.328 0 0.657 0 0.988 0 0.75 0.035 1.402-0.043 1.67-0.902 0.037-0.155 0.175-0.267 0.338-0.267 0.059 0 0.115 0.015 0.164 0.041l-0.002-0.001c0.058 0.585 0.145 1.168-0.065 1.738z"></path>
<path fill="#518fcb" d="M12.25 27.985c1.178-0.53 2.42-0.225 3.623-0.218 1.287 0 2.61-0.335 3.87 0.218-0.442 0-0.378 0.227-0.25 0.5-0.113 0.135-0.188 0.315-0.402 0.323-0.198-0.031-0.377-0.091-0.539-0.177l0.009 0.005c-0.793-0.047-1.72-0.073-2.654-0.073s-1.861 0.027-2.781 0.079l0.127-0.006c-0.087 0.024-0.186 0.038-0.289 0.038-0.038 0-0.076-0.002-0.114-0.006l0.005 0c-0.138-0.031-0.258-0.094-0.356-0.181l0.001 0.001c0.133-0.275 0.197-0.515-0.25-0.503z"></path>
<path fill="#518ec9" d="M27.75 30.483q0-2.25 0-4.5c0.25-0.063 0.477-0.387 0.75-0.030-0.8 0.395-0.065 1.035-0.25 1.53-0.28 0.955-0.035 1.938-0.148 2.9-0.029 0.089-0.112 0.153-0.209 0.153-0.055 0-0.105-0.020-0.143-0.053l0 0z"></path>
<path fill="#6198ce" d="M4.018 31.468c-0.572-0.733-0.208-1.578-0.268-2.367-0.075-1.025-0.045-2.058-0.060-3.090 0.56 0.345 0.3 0.9 0.31 1.357 0.037 1.365 0.015 2.733 0.018 4.1z"></path>
<path fill="#699ed0" d="M28 30.483c0.128-1-0.265-2.032 0.25-3-0.082 1.328 0.345 2.69-0.25 4 0-0.082 0-0.163 0-0.25-0.083-0.101-0.133-0.232-0.133-0.375s0.050-0.274 0.134-0.376l-0.001 0.001z"></path>
<path fill="#5491cc" d="M19.75 27.985c0.517 0.878 0.12 1.835 0.25 2.75-0.525-0.883-0.13-1.837-0.25-2.75z"></path>
<path fill="#5491cc" d="M12.018 30.73c0.115-0.91-0.28-1.867 0.25-2.75-0.137 0.918 0.258 1.872-0.25 2.75z"></path>
<path fill="#5491cc" d="M12.5 28.485h0.25c0.067 0.063 0.108 0.151 0.108 0.25s-0.042 0.187-0.108 0.25l-0 0c0 0.663 0 1.325 0.018 2-0.563-0.785-0.133-1.675-0.268-2.5z"></path>
<path fill="#5491cc" d="M19.25 28.727l0.25-0.25c-0.108 0.75 0.25 1.54-0.25 2.25 0-0.58 0-1.163-0.020-1.75-0.070-0.063-0.090-0.12-0.063-0.177s0.058-0.073 0.082-0.073z"></path>
<path fill="#4e8cc8" d="M28 30.483c0 0.25 0 0.5 0 0.75-0.265-0.012-0.55 0.047-0.735-0.223 0 0 0 0 0.001 0 0.276 0 0.5-0.224 0.5-0.5 0-0.010-0-0.019-0.001-0.029l0 0.001z"></path>
<path fill="#5894cd" d="M25.75 14.5h1.75l-0.25 0.5c-0.385 0.275-0.865-0.023-1.25 0.21-0.031-0.002-0.067-0.003-0.104-0.003s-0.073 0.001-0.109 0.003l0.005-0c-0.12-0.082-0.198-0.217-0.198-0.371 0-0.135 0.060-0.256 0.155-0.338l0.001-0z"></path>
<path fill="#78aee0" d="M25.75 14.5c0.012 0.232 0.023 0.465 0.035 0.697-0.425-0.115-0.83-0.25-1.040-0.7-0.008-0.044-0.013-0.094-0.013-0.145 0-0.239 0.101-0.453 0.262-0.604l0-0 0.005 0.002c0.25 0.162 0.34 0.543 0.723 0.515z"></path>
<path fill="#87bdef" d="M6.265 15c0.55-0.015 0.885-0.662 1.5-0.5-0.3 0.655-0.84 0.825-1.5 0.75-0.067-0.057-0.088-0.11-0.063-0.162s0.048-0.088 0.063-0.088z"></path>
<path fill="#72a6d8" d="M6.265 15c0 0.078 0 0.158 0 0.25h-0.75c-0.022-0.001-0.048-0.001-0.074-0.001-0.346 0-0.671 0.093-0.95 0.256l0.009-0.005c0.067-0.5 0.445-0.485 0.815-0.5 0.327 0 0.67 0 0.662-0.477 0.235 0.075 0.272 0.273 0.287 0.477z"></path>
<path fill="#72a6d9" d="M25 13.75c0 0.277 0.043 0.57-0.25 0.75-0.082 0-0.165 0-0.25 0l-0.25-0.5c0.168-0.287 0.46-0.25 0.75-0.25z"></path>
<path fill="#7aabdb" d="M25.983 15.215c0.37-0.357 0.835-0.152 1.25-0.21 0.153 0.088 0.254 0.25 0.254 0.435 0 0.023-0.002 0.045-0.004 0.067l0-0.003c-0.249-0.16-0.552-0.255-0.878-0.255-0.043 0-0.085 0.002-0.127 0.005l0.006-0z"></path>
<path fill="#a0d0fc" d="M20.235 9.908c0.038 0.6-0.078 1.078-0.895 1.117-0.905 0.043-0.872-0.525-0.843-1.127s-0.183-1.373 0.788-1.345c0.795 0.023 0.98 0.623 0.95 1.355z"></path>
<path fill="#a0d0fc" d="M13.5 9.895c0.037 0.617 0.053 1.168-0.845 1.127-0.818-0.023-0.905-0.522-0.905-1.162 0-0.69 0.165-1.287 0.957-1.308 0.982-0.025 0.752 0.768 0.793 1.342z"></path>
<path fill="#7cb3e6" d="M17.25 2.768l0.25 0.25c-0.003 0.019-0.004 0.042-0.004 0.065 0 0.186 0.101 0.348 0.252 0.434l0.002 0.001c0 0.083 0 0.163 0 0.25-0.64-0.050-0.927-0.545-1.25-1z"></path>
<path fill="#6da1d2" d="M6.75 21c0-1.065 0.022-2.13-0.027-3.192-0.035-0.777 0.207-1.135 1.037-1.080s1.637 0 2.457 0c0.609-0.079 1.313-0.124 2.027-0.124s1.419 0.045 2.11 0.132l-0.082-0.008h3.445c0.646-0.079 1.395-0.124 2.154-0.124s1.507 0.045 2.243 0.132l-0.089-0.009 2.975 0.023c0.029 0.043 0.047 0.096 0.047 0.153 0 0.106-0.060 0.198-0.148 0.244l-0.002 0.001c-0.5 0.277-1.052 0.2-1.587 0.205-4.53 0.032-9.060 0.020-13.588 0.040-2.277 0-2.277 0-2.317 2.225 0 0.207 0 0.415-0.032 0.622-0.020 0.245-0.095 0.469-0.211 0.665l0.004-0.007c-0.049 0.092-0.143 0.153-0.253 0.153-0.061 0-0.117-0.019-0.163-0.051l0.001 0.001z"></path>
<path fill="#5a94cd" d="M6.75 21l0.28-0.017c0.327-0.315 0.75-0.328 1.163-0.328 5.375 0 10.75-0.025 16.13 0 0.18 0.005 0.351 0.034 0.514 0.084l-0.014-0.004c0.164 0.068 0.306 0.157 0.429 0.266l-0.002-0.001c-0.092 0.153-0.257 0.253-0.445 0.253-0.019 0-0.039-0.001-0.058-0.003l0.002 0c-0.676 0.092-1.457 0.145-2.25 0.145s-1.574-0.053-2.34-0.155l0.090 0.010h-0.75c-1.048 0.093-2.268 0.147-3.5 0.147s-2.452-0.053-3.657-0.158l0.157 0.011h-1c-0.713 0.096-1.538 0.151-2.375 0.151s-1.662-0.055-2.47-0.162l0.095 0.010c0.013-0.093 0.013-0.172 0-0.25z"></path>
<path fill="#4688c5" d="M12.5 21.25h7c-0.795 0.5-1.68 0.25-2.5 0.22-1.5-0.055-3.027 0.328-4.5-0.22z"></path>
<path fill="#4688c5" d="M6.763 21.25h4.75c-0.713 0.192-1.531 0.303-2.375 0.303s-1.662-0.11-2.441-0.318l0.066 0.015z"></path>
<path fill="#4688c5" d="M20.25 21.25h4.5c-0.674 0.195-1.449 0.307-2.25 0.307s-1.576-0.112-2.309-0.321l0.059 0.014z"></path>
<path fill="#6da1d2" d="M25.25 21l-0.277-0.017c-0.147-0.168-0.248-0.38-0.282-0.614l-0.001-0.006c0.060-1.13-0.348-2.297 0.31-3.363 0-0.082 0-0.168 0-0.25 0.575 1.383 0.122 2.83 0.25 4.25z"></path>
<path fill="#6da1d2" d="M22.025 16.73h-4.308c0.646-0.172 1.389-0.27 2.154-0.27s1.507 0.099 2.214 0.284l-0.061-0.014z"></path>
<path fill="#6da1d2" d="M14.283 16.73h-4.055c0.608-0.173 1.306-0.272 2.027-0.272s1.42 0.099 2.082 0.285l-0.054-0.013z"></path>
<path fill="#85bdef" d="M6.013 22.75h0.25c-0.040 0.648-0.463 0.775-1 0.75 0-0.082 0-0.163 0-0.25 0.388 0.030 0.487-0.355 0.75-0.5z"></path>
<path fill="#dceffd" d="M16.023 25.957c3.447 0 6.895 0.025 10.343-0.017 0.867 0 1.22 0.25 1.125 1.13-0.128 1.183 0.5 2.7-0.28 3.473-0.733 0.712-2.22 0.165-3.372 0.212-0.87 0.035-1.75-0.027-2.615 0.017-0.75 0.040-1-0.233-1.025-1-0.052-2.295-0.082-2.295-2.35-2.295-1.62 0-3.25 0.045-4.86-0.015-0.938-0.035-1.22 0.325-1.22 1.233 0 2.065-0.035 2.065-2.152 2.065-1.373 0-2.75-0.032-4.112 0-0.768 0.027-0.98-0.25-1-1-0.107-3.813-0.128-3.81 3.67-3.81z"></path>
<path fill="#97cbfc" d="M19.25 28.727l-0.015 0.25c-0.098 1.475-1.020 1.668-2.25 1.517-0.292-0.038-0.63-0.060-0.973-0.060-0.357 0-0.708 0.024-1.053 0.069l0.040-0.004c-1.223 0.152-2.147-0.043-2.25-1.515 0-0.168 0-0.332 0-0.5 0.036-0.004 0.077-0.006 0.119-0.006s0.083 0.002 0.124 0.006l-0.005-0c2 0.027 4 0 6 0.020z"></path>
<path fill="#83bbee" d="M19 28.5c-0.887 0.187-1.907 0.294-2.951 0.294-1.080 0-2.132-0.114-3.147-0.331l0.098 0.018c0.887-0.181 1.906-0.285 2.95-0.285 1.080 0 2.133 0.111 3.15 0.323l-0.1-0.017z"></path>
<path fill="#d9edfc" d="M25 17v3.5c-0.027 0.008-0.058 0.012-0.090 0.012-0.114 0-0.215-0.056-0.277-0.141l-0.001-0.001c-0.32-0.53-0.25-1.125-0.25-1.698 0-0.723-0.302-1.075-1.043-1.058-1.035 0.025-2.075-0.082-3.1 0.145-1.75 0.183-1.85 0.233-1.563 2.093 0.117 0.75-0.15 0.885-0.75 0.89-1.29 0-2.578 0-3.865 0-0.6 0-0.982-0.152-0.735-0.885 0.059-0.238 0.093-0.512 0.093-0.794 0-0.161-0.011-0.319-0.032-0.474l0.002 0.018c-0.015-0.425-0.207-0.727-0.67-0.735-0.027-0.003-0.058-0.005-0.090-0.005-0.41 0-0.743 0.329-0.75 0.737v0.001c-0.014 0.087-0.021 0.188-0.021 0.291 0 0.336 0.083 0.652 0.229 0.93l-0.005-0.011c0.36 0.683 0.030 0.913-0.613 0.913-1.37 0-2.75 0.055-4.112-0.032-0.137-0.047-0.256-0.113-0.36-0.197l0.002 0.002c-0.070-3.525-0.070-3.527 3.423-3.525q7.287 0.005 14.577 0.025z"></path>
<path fill="#b7d5ef" d="M7 20.5h0.25c1.61 0.265 3.235 0.19 4.838 0.060 0.842-0.070 1.645 0.075 2.463 0.093 3.323 0.070 6.63-0.5 9.955-0.207l0.245 0.055h0.25c0 0.16-0.020 0.32-0.032 0.48h-17.927c-0.013-0.163-0.022-0.323-0.040-0.48z"></path>
<path fill="#def0fe" d="M20.25 17.5c1.315-0.523 2.68-0.165 4.023-0.22 0.442-0.017 0.468 0.39 0.47 0.733 0 0.828 0 1.655 0 2.483v0c-1.398 0.27-2.81 0.047-4.215 0.117-0.4 0.023-0.733-0.137-0.573-0.555 0.323-0.837-0.052-1.735 0.295-2.558z"></path>
<path fill="#d3e7fb" d="M20.25 17.5c0.155 0.389 0.246 0.841 0.246 1.313 0 0.617-0.154 1.198-0.425 1.707l0.010-0.020h4.67c-0.282 0.35-0.68 0.25-1.040 0.25q-7.71 0-15.412 0c-0.36 0-0.75 0.102-1.043-0.25h4.81c-0.61-0.955-0.912-1.93-0.188-2.795 0.373-0.455 1.373-0.42 1.6-0.070 0.57 0.823 0.318 1.848 0.063 2.825h4.9c-0.262-0.902-0.43-1.898-0.050-2.69 0.293-0.602 1.218-0.183 1.86-0.27z"></path>
<path fill="#9ccefc" d="M13.5 18.89c-0.047 0.46 0.188 1.090-0.703 1.12-0.95 0.030-0.79-0.617-0.8-1.18s-0.090-1.102 0.765-1.095 0.72 0.598 0.738 1.155z"></path>
<path fill="#9ccefc" d="M18.5 18.863c0.043-0.475-0.177-1.102 0.707-1.125 0.953-0.027 0.785 0.625 0.795 1.185s0.080 1.098-0.77 1.087-0.71-0.608-0.733-1.148z"></path>
</svg>
